<mxfile host="app.diagrams.net" agent="Mozilla/5.0 (Windows NT 10.0; Win64; x64) AppleWebKit/537.36 (KHTML, like Gecko) Chrome/131.0.0.0 Safari/537.36" version="26.0.6">
  <diagram id="WI9T0HZ2pTsCkuznbFz-" name="Page-1">
    <mxGraphModel dx="2072" dy="1097" grid="1" gridSize="10" guides="1" tooltips="1" connect="1" arrows="1" fold="1" page="1" pageScale="1" pageWidth="827" pageHeight="1169" math="0" shadow="0">
      <root>
        <mxCell id="0" />
        <mxCell id="1" parent="0" />
        <mxCell id="AcxdMaKK0mU5kZiv2lnr-43" style="edgeStyle=elbowEdgeStyle;rounded=0;orthogonalLoop=1;jettySize=auto;elbow=vertical;html=1;strokeColor=#808080;" parent="1" source="AcxdMaKK0mU5kZiv2lnr-38" target="g8Hrz8pBSeV4qm7vl3dj-1" edge="1">
          <mxGeometry relative="1" as="geometry">
            <mxPoint x="170" y="785" as="targetPoint" />
          </mxGeometry>
        </mxCell>
        <mxCell id="g8Hrz8pBSeV4qm7vl3dj-45" style="edgeStyle=orthogonalEdgeStyle;rounded=0;orthogonalLoop=1;jettySize=auto;html=1;" parent="1" source="AcxdMaKK0mU5kZiv2lnr-35" edge="1">
          <mxGeometry relative="1" as="geometry">
            <mxPoint x="480.5" y="740" as="targetPoint" />
          </mxGeometry>
        </mxCell>
        <mxCell id="AcxdMaKK0mU5kZiv2lnr-35" value="" style="shape=image;verticalLabelPosition=bottom;labelBackgroundColor=#ffffff;verticalAlign=top;aspect=fixed;imageAspect=0;image=data:image/svg+xml,PHN2ZyB4bWxuczpkYz0iaHR0cDovL3B1cmwub3JnL2RjL2VsZW1lbnRzLzEuMS8iIHhtbG5zOmNjPSJodHRwOi8vY3JlYXRpdmVjb21tb25zLm9yZy9ucyMiIHhtbG5zOnJkZj0iaHR0cDovL3d3dy53My5vcmcvMTk5OS8wMi8yMi1yZGYtc3ludGF4LW5zIyIgeG1sbnM6c3ZnPSJodHRwOi8vd3d3LnczLm9yZy8yMDAwL3N2ZyIgeG1sbnM9Imh0dHA6Ly93d3cudzMub3JnLzIwMDAvc3ZnIiB4bWxuczp4bGluaz0iaHR0cDovL3d3dy53My5vcmcvMTk5OS94bGluayIgeG1sbnM6c29kaXBvZGk9Imh0dHA6Ly9zb2RpcG9kaS5zb3VyY2Vmb3JnZS5uZXQvRFREL3NvZGlwb2RpLTAuZHRkIiB4bWxuczppbmtzY2FwZT0iaHR0cDovL3d3dy5pbmtzY2FwZS5vcmcvbmFtZXNwYWNlcy9pbmtzY2FwZSIgdmVyc2lvbj0iMS4xIiBpZD0iTGF5ZXJfMSIgeD0iMHB4IiB5PSIwcHgiIHZpZXdCb3g9IjAgMCAxNy45Mzk5OTkgMTYuNDM5OTk5IiB4bWw6c3BhY2U9InByZXNlcnZlIiBzb2RpcG9kaTpkb2NuYW1lPSJkaXNrc19zdG9yYWdlLnN2ZyIgd2lkdGg9IjE3LjkzOTk5OSIgaGVpZ2h0PSIxNi40Mzk5OTkiIGlua3NjYXBlOnZlcnNpb249IjAuOTIuMyAoMjQwNTU0NiwgMjAxOC0wMy0xMSkiPjxtZXRhZGF0YSBpZD0ibWV0YWRhdGEzMTA3NSI+PHJkZjpSREY+PGNjOldvcmsgcmRmOmFib3V0PSIiPjxkYzpmb3JtYXQ+aW1hZ2Uvc3ZnK3htbDwvZGM6Zm9ybWF0PjxkYzp0eXBlIHJkZjpyZXNvdXJjZT0iaHR0cDovL3B1cmwub3JnL2RjL2RjbWl0eXBlL1N0aWxsSW1hZ2UiLz48ZGM6dGl0bGUvPjwvY2M6V29yaz48L3JkZjpSREY+PC9tZXRhZGF0YT48ZGVmcyBpZD0iZGVmczMxMDczIi8+PHNvZGlwb2RpOm5hbWVkdmlldyBwYWdlY29sb3I9IiNmZmZmZmYiIGJvcmRlcmNvbG9yPSIjNjY2NjY2IiBib3JkZXJvcGFjaXR5PSIxIiBvYmplY3R0b2xlcmFuY2U9IjEwIiBncmlkdG9sZXJhbmNlPSIxMCIgZ3VpZGV0b2xlcmFuY2U9IjEwIiBpbmtzY2FwZTpwYWdlb3BhY2l0eT0iMCIgaW5rc2NhcGU6cGFnZXNoYWRvdz0iMiIgaW5rc2NhcGU6d2luZG93LXdpZHRoPSIxOTIwIiBpbmtzY2FwZTp3aW5kb3ctaGVpZ2h0PSIxMDE3IiBpZD0ibmFtZWR2aWV3MzEwNzEiIHNob3dncmlkPSJmYWxzZSIgZml0LW1hcmdpbi10b3A9IjAiIGZpdC1tYXJnaW4tbGVmdD0iMCIgZml0LW1hcmdpbi1yaWdodD0iMCIgZml0LW1hcmdpbi1ib3R0b209IjAiIGlua3NjYXBlOnpvb209IjguMjQyNDI0MiIgaW5rc2NhcGU6Y3g9IjM0LjkzMjczNCIgaW5rc2NhcGU6Y3k9Ii01Ljg3NTA0NTgiIGlua3NjYXBlOndpbmRvdy14PSItOCIgaW5rc2NhcGU6d2luZG93LXk9Ii04IiBpbmtzY2FwZTp3aW5kb3ctbWF4aW1pemVkPSIxIiBpbmtzY2FwZTpjdXJyZW50LWxheWVyPSJMYXllcl8xIi8+JiN4YTsmI3hhOzxnIGlkPSJnMzEwNjgiIHRyYW5zZm9ybT0idHJhbnNsYXRlKC01NS44NjAwMDEsLTIwNi4xMSkiPiYjeGE7CTxkZWZzIGlkPSJkZWZzMzEwMzUiPiYjeGE7CQk8cmVjdCBpZD0iU1ZHSURfM18iIHg9IjU1Ljg2MDAwMSIgeT0iMjA2LjExIiB3aWR0aD0iMTkuODA5OTk5IiBoZWlnaHQ9IjE2Ljk4Ii8+JiN4YTsJPC9kZWZzPiYjeGE7CTxjbGlwUGF0aCBpZD0iU1ZHSURfNF8iPiYjeGE7CQk8dXNlIHhsaW5rOmhyZWY9IiNTVkdJRF8zXyIgc3R5bGU9Im92ZXJmbG93OnZpc2libGUiIGlkPSJ1c2UzMTAzNyIgeD0iMCIgeT0iMCIgd2lkdGg9IjEwMCUiIGhlaWdodD0iMTAwJSIvPiYjeGE7CTwvY2xpcFBhdGg+JiN4YTsJPGcgY2xpcC1wYXRoPSJ1cmwoI1NWR0lEXzRfKSIgaWQ9ImczMTA2NiI+JiN4YTsJCTxkZWZzIGlkPSJkZWZzMzEwNDEiPiYjeGE7CQkJPHJlY3QgaWQ9IlNWR0lEXzVfIiB4PSI1NS44NjAwMDEiIHk9IjIwNi4xMSIgd2lkdGg9IjE5LjgwOTk5OSIgaGVpZ2h0PSIxNi45OCIvPiYjeGE7CQk8L2RlZnM+JiN4YTsJCTxjbGlwUGF0aCBpZD0iU1ZHSURfNl8iPiYjeGE7CQkJPHVzZSB4bGluazpocmVmPSIjU1ZHSURfNV8iIHN0eWxlPSJvdmVyZmxvdzp2aXNpYmxlIiBpZD0idXNlMzEwNDMiIHg9IjAiIHk9IjAiIHdpZHRoPSIxMDAlIiBoZWlnaHQ9IjEwMCUiLz4mI3hhOwkJPC9jbGlwUGF0aD4mI3hhOwkJPHBhdGggc3R5bGU9ImZpbGw6IzRhOWY0OSIgZD0ibSA3My44LDIxOS4yIGMgMCwxLjg1IC00LjAxLDMuMzUgLTguOTcsMy4zNSAtNC45NiwwIC04Ljk3LC0xLjQ5IC04Ljk3LC0zLjM1IHYgLTIuMjcgSCA3My44IFoiIGNsaXAtcGF0aD0idXJsKCNTVkdJRF82XykiIGlkPSJwYXRoMzEwNDYiIGlua3NjYXBlOmNvbm5lY3Rvci1jdXJ2YXR1cmU9IjAiLz4mI3hhOwkJPHBhdGggc3R5bGU9ImZpbGw6I2FkYzgwYiIgZD0ibSA3My44LDIxNi45MyBjIDAsMS44NSAtNC4wMSwzLjQxIC04Ljk3LDMuNDEgLTQuOTYsMCAtOC45NywtMS41NSAtOC45NywtMy40MSAwLC0xLjg1IDQuMDEsLTMuMzUgOC45NywtMy4zNSA0Ljk2LDAgOC45NywxLjUgOC45NywzLjM1IHoiIGNsaXAtcGF0aD0idXJsKCNTVkdJRF82XykiIGlkPSJwYXRoMzEwNDgiIGlua3NjYXBlOmNvbm5lY3Rvci1jdXJ2YXR1cmU9IjAiLz4mI3hhOwkJPHBhdGggc3R5bGU9ImZpbGw6I2NiZTIzOCIgZD0ibSA2My42MywyMTMuNTggYyAtMS41LDAuMDYgLTIuOTksMC4zIC00LjQzLDAuNzggbCA0LjA3LDEuODUgYyAwLjQyLC0wLjEyIDAuNzgsLTAuMTggMS4yLC0wLjE4IHoiIGNsaXAtcGF0aD0idXJsKCNTVkdJRF82XykiIGlkPSJwYXRoMzEwNTAiIGlua3NjYXBlOmNvbm5lY3Rvci1jdXJ2YXR1cmU9IjAiLz4mI3hhOwkJPHBhdGggc3R5bGU9ImZpbGw6I2NiZTIzOCIgZD0ibSA3MC40NSwyMTkuNTYgLTQuMDcsLTEuOTEgYyAtMC40MiwwLjEyIC0wLjg0LDAuMTggLTEuMiwwLjI0IGwgMC44NCwyLjQ1IGMgMS41LC0wLjEyIDMsLTAuMzYgNC40MywtMC43OCB6IiBjbGlwLXBhdGg9InVybCgjU1ZHSURfNl8pIiBpZD0icGF0aDMxMDUyIiBpbmtzY2FwZTpjb25uZWN0b3ItY3VydmF0dXJlPSIwIi8+JiN4YTsJCTxwYXRoIHN0eWxlPSJmaWxsOiMwODdlMDYiIGQ9Im0gNjcuMjgsMjE2LjkzIGMgMCwwLjU0IC0xLjE0LDAuOTYgLTIuNDUsMC45NiAtMS4zMSwwIC0yLjQ1LC0wLjQyIC0yLjQ1LC0wLjk2IDAsLTAuNDggMS4xNCwtMC45IDIuNDUsLTAuOSAxLjMxLDAgMi40NSwwLjQyIDIuNDUsMC45IHoiIGNsaXAtcGF0aD0idXJsKCNTVkdJRF82XykiIGlkPSJwYXRoMzEwNTQiIGlua3NjYXBlOmNvbm5lY3Rvci1jdXJ2YXR1cmU9IjAiLz4mI3hhOwkJPHBhdGggc3R5bGU9ImZpbGw6IzA4NzlkYSIgZD0ibSA3My44LDIxMS43MyBjIDAsMS44NSAtNC4wMSwzLjM1IC04Ljk3LDMuMzUgLTQuOTYsMCAtOC45NywtMS40OSAtOC45NywtMy4zNSB2IC0yLjI3IEggNzMuOCBaIiBjbGlwLXBhdGg9InVybCgjU1ZHSURfNl8pIiBpZD0icGF0aDMxMDU2IiBpbmtzY2FwZTpjb25uZWN0b3ItY3VydmF0dXJlPSIwIi8+JiN4YTsJCTxwYXRoIHN0eWxlPSJmaWxsOiMxMWJkZjUiIGQ9Im0gNzMuOCwyMDkuNDYgYyAwLDEuODUgLTQuMDEsMy40MSAtOC45NywzLjQxIC00Ljk2LDAgLTguOTcsLTEuNTUgLTguOTcsLTMuNDEgMCwtMS44NSA0LjAxLC0zLjM1IDguOTcsLTMuMzUgNC45NiwwIDguOTcsMS41IDguOTcsMy4zNSB6IiBjbGlwLXBhdGg9InVybCgjU1ZHSURfNl8pIiBpZD0icGF0aDMxMDU4IiBpbmtzY2FwZTpjb25uZWN0b3ItY3VydmF0dXJlPSIwIi8+JiN4YTsJCTxwYXRoIHN0eWxlPSJmaWxsOiMzOWNlZjciIGQ9Im0gNjMuNjMsMjA2LjExIGMgLTEuNSwwLjA2IC0yLjk5LDAuMyAtNC40MywwLjc4IGwgNC4wNywxLjg1IGMgMC40MiwtMC4xMiAwLjg0LC0wLjE4IDEuMiwtMC4xOCB6IiBjbGlwLXBhdGg9InVybCgjU1ZHSURfNl8pIiBpZD0icGF0aDMxMDYwIiBpbmtzY2FwZTpjb25uZWN0b3ItY3VydmF0dXJlPSIwIi8+JiN4YTsJCTxwYXRoIHN0eWxlPSJmaWxsOiMzOWNlZjciIGQ9Im0gNzAuNDUsMjEyLjA5IC00LjA3LC0xLjkxIGMgLTAuNDIsMC4xMiAtMC44NCwwLjE4IC0xLjIsMC4yNCBsIDAuODQsMi40NSBjIDEuNSwtMC4xMiAzLC0wLjM2IDQuNDMsLTAuNzggeiIgY2xpcC1wYXRoPSJ1cmwoI1NWR0lEXzZfKSIgaWQ9InBhdGgzMTA2MiIgaW5rc2NhcGU6Y29ubmVjdG9yLWN1cnZhdHVyZT0iMCIvPiYjeGE7CQk8cGF0aCBzdHlsZT0iZmlsbDojMDM1MjkzIiBkPSJtIDY3LjI4LDIwOS40NiBjIDAsMC41NCAtMS4xNCwwLjk2IC0yLjQ1LDAuOTYgLTEuMzEsMCAtMi40NSwtMC40MiAtMi40NSwtMC45NiAwLC0wLjQ4IDEuMTQsLTAuOSAyLjQ1LC0wLjkgMS4zMSwwIDIuNDUsMC40MiAyLjQ1LDAuOSB6IiBjbGlwLXBhdGg9InVybCgjU1ZHSURfNl8pIiBpZD0icGF0aDMxMDY0IiBpbmtzY2FwZTpjb25uZWN0b3ItY3VydmF0dXJlPSIwIi8+JiN4YTsJPC9nPiYjeGE7PC9nPiYjeGE7PC9zdmc+;spacingTop=4;" parent="1" vertex="1">
          <mxGeometry x="450" y="651.5" width="61" height="54" as="geometry" />
        </mxCell>
        <mxCell id="g8Hrz8pBSeV4qm7vl3dj-21" value="" style="edgeStyle=orthogonalEdgeStyle;rounded=0;orthogonalLoop=1;jettySize=auto;html=1;" parent="1" source="AcxdMaKK0mU5kZiv2lnr-38" target="g8Hrz8pBSeV4qm7vl3dj-1" edge="1">
          <mxGeometry relative="1" as="geometry" />
        </mxCell>
        <mxCell id="g8Hrz8pBSeV4qm7vl3dj-22" value="" style="edgeStyle=orthogonalEdgeStyle;rounded=0;orthogonalLoop=1;jettySize=auto;html=1;" parent="1" source="g8Hrz8pBSeV4qm7vl3dj-25" target="g8Hrz8pBSeV4qm7vl3dj-1" edge="1">
          <mxGeometry relative="1" as="geometry" />
        </mxCell>
        <mxCell id="AcxdMaKK0mU5kZiv2lnr-38" value="User" style="shape=image;verticalLabelPosition=bottom;labelBackgroundColor=none;verticalAlign=top;aspect=fixed;imageAspect=0;image=data:image/svg+xml,PHN2ZyB4bWxuczpjYz0iaHR0cDovL2NyZWF0aXZlY29tbW9ucy5vcmcvbnMjIiB4bWxuczpkYz0iaHR0cDovL3B1cmwub3JnL2RjL2VsZW1lbnRzLzEuMS8iIHhtbG5zOmlua3NjYXBlPSJodHRwOi8vd3d3Lmlua3NjYXBlLm9yZy9uYW1lc3BhY2VzL2lua3NjYXBlIiB4bWxuczpyZGY9Imh0dHA6Ly93d3cudzMub3JnLzE5OTkvMDIvMjItcmRmLXN5bnRheC1ucyMiIHhtbG5zOnNvZGlwb2RpPSJodHRwOi8vc29kaXBvZGkuc291cmNlZm9yZ2UubmV0L0RURC9zb2RpcG9kaS0wLmR0ZCIgeG1sbnM6c3ZnPSJodHRwOi8vd3d3LnczLm9yZy8yMDAwL3N2ZyIgeG1sbnM9Imh0dHA6Ly93d3cudzMub3JnLzIwMDAvc3ZnIiB4bWxuczp4bGluaz0iaHR0cDovL3d3dy53My5vcmcvMTk5OS94bGluayIgdmVyc2lvbj0iMS4xIiBpZD0ic3ZnMzExODM2IiBpbmtzY2FwZTp2ZXJzaW9uPSIwLjkyLjMgKDI0MDU1NDYsIDIwMTgtMDMtMTEpIiBzb2RpcG9kaTpkb2NuYW1lPSJkZXZlbG9wZXJfNS5zdmciIHg9IjBweCIgeT0iMHB4IiB2aWV3Qm94PSIwIDAgMTkuMjkgNDguMDciIHN0eWxlPSJlbmFibGUtYmFja2dyb3VuZDpuZXcgMCAwIDE5LjI5IDQ4LjA3OyIgeG1sOnNwYWNlPSJwcmVzZXJ2ZSI+JiN4YTs8c29kaXBvZGk6bmFtZWR2aWV3IGJvcmRlcmNvbG9yPSIjNjY2NjY2IiBib3JkZXJvcGFjaXR5PSIxIiBmaXQtbWFyZ2luLWJvdHRvbT0iMCIgZml0LW1hcmdpbi1sZWZ0PSIwIiBmaXQtbWFyZ2luLXJpZ2h0PSIwIiBmaXQtbWFyZ2luLXRvcD0iMCIgZ3JpZHRvbGVyYW5jZT0iMTAiIGd1aWRldG9sZXJhbmNlPSIxMCIgaWQ9Im5hbWVkdmlldzMxMTgzOCIgaW5rc2NhcGU6Y3VycmVudC1sYXllcj0ic3ZnMzExODM2IiBpbmtzY2FwZTpjeD0iMTIuODYzMjIyIiBpbmtzY2FwZTpjeT0iMzIuMDQ4MDkyIiBpbmtzY2FwZTpwYWdlb3BhY2l0eT0iMCIgaW5rc2NhcGU6cGFnZXNoYWRvdz0iMiIgaW5rc2NhcGU6d2luZG93LWhlaWdodD0iMTAxNyIgaW5rc2NhcGU6d2luZG93LW1heGltaXplZD0iMSIgaW5rc2NhcGU6d2luZG93LXdpZHRoPSIxOTIwIiBpbmtzY2FwZTp3aW5kb3cteD0iLTgiIGlua3NjYXBlOndpbmRvdy15PSItOCIgaW5rc2NhcGU6em9vbT0iMTMuNTI3NzczIiBvYmplY3R0b2xlcmFuY2U9IjEwIiBwYWdlY29sb3I9IiNmZmZmZmYiIHNob3dncmlkPSJmYWxzZSI+JiN4YTsJPC9zb2RpcG9kaTpuYW1lZHZpZXc+JiN4YTs8ZyBpZD0iZzMxMTgzNCIgdHJhbnNmb3JtPSJ0cmFuc2xhdGUoLTAuMDAxNzcxNzcsMC4wMDM0KSI+JiN4YTsJPHRpdGxlIGlkPSJ0aXRsZTMxMTYyOSI+UGFnZS0xPC90aXRsZT4mI3hhOwk8ZyBpZD0iZ3JvdXA3MDY1LTEiPiYjeGE7CQk8dGl0bGUgaWQ9InRpdGxlMzExNjMxIj5EZXZlbG9wZXIgIzU8L3RpdGxlPiYjeGE7CQk8ZyBpZD0ic2hhcGU3MDY2LTIiIHRyYW5zZm9ybT0idHJhbnNsYXRlKDExLjQ3MzcsLTEuMzYyMjQpIj4mI3hhOwkJCTx0aXRsZSBpZD0idGl0bGUzMTE2MzMiPlNoZWV0LjcwNjY8L3RpdGxlPiYjeGE7CQkJPHBhdGggaWQ9InBhdGgzMTE2MzUiIGlua3NjYXBlOmNvbm5lY3Rvci1jdXJ2YXR1cmU9IjAiIGQ9Ik0wLDQ3Ljk3bDIuMzEsMC4xbDAuMDItMi45MmgtMi4xTDAsNDcuOTd6Ii8+JiN4YTsJCTwvZz4mI3hhOwkJPGcgaWQ9InNoYXBlNzA2Ny00IiB0cmFuc2Zvcm09InRyYW5zbGF0ZSgxMC44OTA0KSI+JiN4YTsJCQk8dGl0bGUgaWQ9InRpdGxlMzExNjM4Ij5TaGVldC43MDY3PC90aXRsZT4mI3hhOwkJCTxwYXRoIGlkPSJwYXRoMzExNjQwIiBpbmtzY2FwZTpjb25uZWN0b3ItY3VydmF0dXJlPSIwIiBzdHlsZT0iZmlsbDojNUMyRDkxOyIgZD0iTTAsNDcuODZjMi4xNiwwLjExLDIuMTYsMC4xMSwyLjE2LDAuMTEgICAgIGMwLjEyLTAuMzMsMC4xMi0wLjMzLDAuMTItMC4zM2MwLjcxLDAuMTEsMi4xNiwwLjMzLDIuOTgsMC40M2MwLjU2LDAsMS4zNCwwLDEuNzktMC4yMWMwLDAsMC4xNC0wLjExLDAuMTQtMC4yMiAgICAgYzAtMC44Ni0zLjQyLTEuMzItNC4zMS0yLjNjLTAuMTIsMC0wLjEyLDAtMC4xMiwwQzIuNSw0NS41NiwyLjI4LDQ2LDEuNzMsNDZjLTAuNTYsMC0xLjAxLTAuNTUtMS4yNC0wLjY2ICAgICBDMC4xMiw0NS41NiwwLDQ3Ljc1LDAsNDcuODZ6Ii8+JiN4YTsJCTwvZz4mI3hhOwkJPGcgaWQ9InNoYXBlNzA2OC02IiB0cmFuc2Zvcm09InRyYW5zbGF0ZSgzLjExMjg1LC0wLjM4OTIxMykiPiYjeGE7CQkJPHRpdGxlIGlkPSJ0aXRsZTMxMTY0MyI+U2hlZXQuNzA2ODwvdGl0bGU+JiN4YTsJCQk8cGF0aCBpZD0icGF0aDMxMTY0NSIgaW5rc2NhcGU6Y29ubmVjdG9yLWN1cnZhdHVyZT0iMCIgc3R5bGU9ImZpbGw6IzVDMkQ5MTsiIGQ9Ik0xLjE1LDQ1LjM0YzAsMC40OCwwLDAuNDgsMCwwLjQ4ICAgICBDMCw0Ny4zNSwwLDQ3LjM1LDAsNDcuMzVjMCwwLjUxLDAsMC41MSwwLDAuNTFjMCwwLjExLDAuMTEsMC4yMSwwLjIyLDAuMjFjMi40NywwLDIuNDcsMCwyLjQ3LDBjMC4yNSwwLDAuNDItMC4yMSwwLjQyLTAuNDMgICAgIGMwLTEuNDksMC0xLjQ5LDAtMS40OWMwLTAuNDgsMC0wLjQ4LDAtMC40OGMwLTAuMzMsMC0wLjMzLDAtMC4zM0wxLjE1LDQ1LjM0eiIvPiYjeGE7CQk8L2c+JiN4YTsJCTxnIGlkPSJzaGFwZTcwNjktOCIgdHJhbnNmb3JtPSJ0cmFuc2xhdGUoNC4yNzk0OCwtMy4xMTM3KSI+JiN4YTsJCQk8dGl0bGUgaWQ9InRpdGxlMzExNjQ4Ij5TaGVldC43MDY5PC90aXRsZT4mI3hhOwkJCTxwYXRoIGlkPSJwYXRoMzExNjUwIiBpbmtzY2FwZTpjb25uZWN0b3ItY3VydmF0dXJlPSIwIiBzdHlsZT0iZmlsbDojMDA3OEQ3OyIgZD0iTTcuMyw0OC4wN2MtMC4xOC0xLjE3LDAuMjMtNi45NC0wLjAzLTExLjA4ICAgICBjLTAuMjYtNC4wNC0xLjI1LTUuNjktMS4yNS01LjY5cy0wLjMzLTAuMjItMC40MSwwLjFjLTAuMDMsMC4xNS0xLjg4LDUuMy0xLjg4LDUuM3MtMS4yMSw5LjM1LTEuNywxMS4zN2MtMi4wMywwLTIuMDMsMC0yLjAzLDAgICAgIGMwLjUyLTEyLjAxLDAuNTItMTIuMDEsMC41Mi0xMi4wMWMwLjg5LTguNjIsMC44OS04LjYyLDAuODktOC42MmM4LjM3LTMuMzEsOC4zNy0zLjMxLDguMzctMy4zMWMtMC4yMywxLjE4LDAuOTEsNy4yLDAuODgsMTIuNzUgICAgIGMtMC4wOCw0LjY5LTEuMTQsMTAuMzEtMS4xMSwxMS4xOUw3LjMsNDguMDd6Ii8+JiN4YTsJCTwvZz4mI3hhOwkJPGcgaWQ9InNoYXBlNzA3MC0xMCIgdHJhbnNmb3JtPSJ0cmFuc2xhdGUoMy44OTA2LC0yLjkxOTA5KSI+JiN4YTsJCQk8dGl0bGUgaWQ9InRpdGxlMzExNjUzIj5TaGVldC43MDcwPC90aXRsZT4mI3hhOwkJCTxwYXRoIGlkPSJwYXRoMzExNjU1IiBpbmtzY2FwZTpjb25uZWN0b3ItY3VydmF0dXJlPSIwIiBzdHlsZT0iZmlsbDojMDA3OEQ3OyIgZD0iTTIuNjEsNDguMDdjLTIuNjEsMC0yLjYxLDAtMi42MSwwICAgICBjMC41Ni0xMi4zNCwwLjU2LTEyLjM0LDAuNTYtMTIuMzRjMC44Ny04Ljc5LDAuODctOC43OSwwLjg3LTguNzljOS4wNS0zLjU5LDkuMDUtMy41OSw5LjA1LTMuNTljLTAuMTEsMC41Ni0wLjExLDAuNTYtMC4xMSwwLjU2ICAgICBjLTAuMDgsMC40OCwwLjA3LDEuOTQsMC4yNSwzLjYzYzAuMjksMi40NCwwLjY2LDUuODEsMC42Miw5LjAzYy0wLjA0LDMuMDgtMC41MSw2LjU2LTAuODQsOC44M2MtMC4xNCwxLjE3LTAuMjUsMi4wNS0wLjI1LDIuMzQgICAgIGMwLjAzLDAuMzMsMC4wMywwLjMzLDAuMDMsMC4zM2MtMi44MywwLTIuODMsMC0yLjgzLDBjLTAuMDctMC4yNi0wLjA3LTAuMjYtMC4wNy0wLjI2Yy0wLjA3LTAuNTQtMC4wNC0xLjkzLDAtMy43ICAgICBjMC4wNy0yLjI2LDAuMTEtNS4wOC0wLjA0LTcuNDNjLTAuMTgtMy4xOC0wLjg1LTQuODMtMS4wNy01LjM0Yy0wLjI5LDAuODEtMS41NCw0LjI5LTEuODMsNS4xMmMtMC4wNywwLjctMS4yMiw5LjM4LTEuNjksMTEuMzUgICAgIEwyLjYxLDQ4LjA3eiBNMC42Nyw0Ny40NWMxLjQzLDAsMS40MywwLDEuNDMsMGMwLjUxLTIuNDEsMS42Mi0xMS4wMiwxLjY2LTExLjFjMC0wLjA3LDAtMC4wNywwLTAuMDdjMC43Mi0yLDEuODMtNS4xMiwxLjg3LTUuMjYgICAgIGMwLjA3LTAuMjIsMC4yMi0wLjMsMC4yOS0wLjMzYzAuMjktMC4xMSwwLjU1LDAuMDMsMC41OSwwLjA3YzAuMDgsMC4wNCwwLjA4LDAuMDQsMC4wOCwwLjA0YzAuMDMsMC4wNywwLjAzLDAuMDcsMC4wMywwLjA3ICAgICBjMC4wNCwwLjA3LDAuOTksMS43NSwxLjI0LDUuNzhjMC4xNSwyLjM4LDAuMDgsNS4yLDAuMDQsNy40NmMtMC4wNCwxLjQ0LTAuMDcsMi43Mi0wLjA0LDMuMzRjMS42OSwwLDEuNjksMCwxLjY5LDAgICAgIGMwLTAuNDQsMC4xMS0xLjEzLDAuMjctMi4xMmMwLjI5LTIuMjcsMC43Ni01LjcyLDAuOC04Ljc2YzAuMDQtMy4xOC0wLjMzLTYuNTItMC41OC04Ljk2Yy0wLjE4LTEuNTEtMC4yOS0yLjYtMC4yOS0zLjMgICAgIGMtNy43MiwzLjA4LTcuNzIsMy4wOC03LjcyLDMuMDhjLTAuODUsOC4zOC0wLjg1LDguMzgtMC44NSw4LjM4TDAuNjcsNDcuNDV6Ii8+JiN4YTsJCTwvZz4mI3hhOwkJPGcgaWQ9InNoYXBlNzA3MS0xMiIgdHJhbnNmb3JtPSJ0cmFuc2xhdGUoNC44NjI3OSwtMjMuNzQyKSI+JiN4YTsJCQk8dGl0bGUgaWQ9InRpdGxlMzExNjU4Ij5TaGVldC43MDcxPC90aXRsZT4mI3hhOwkJCTxwYXRoIGlkPSJwYXRoMzExNjYwIiBpbmtzY2FwZTpjb25uZWN0b3ItY3VydmF0dXJlPSIwIiBzdHlsZT0iZmlsbDojRTZFN0U4OyIgZD0iTTcuNTgsNDguMDdIMC4zNmwtMC4xMy04Ljg4TDAsMzQuNTRsNi44OS0wLjQ4ICAgICBMNy41OCw0OC4wN3oiLz4mI3hhOwkJPC9nPiYjeGE7CQk8ZyBpZD0ic2hhcGU3MDcyLTE0IiB0cmFuc2Zvcm09InRyYW5zbGF0ZSg0Ljg2Mjc5LC0zNS44MDc2KSI+JiN4YTsJCQk8dGl0bGUgaWQ9InRpdGxlMzExNjYzIj5TaGVldC43MDcyPC90aXRsZT4mI3hhOwkJCTxwYXRoIGlkPSJwYXRoMzExNjY1IiBpbmtzY2FwZTpjb25uZWN0b3ItY3VydmF0dXJlPSIwIiBzdHlsZT0iZmlsbDojRTZFN0U4OyIgZD0iTTAuNjYsNDguMDdMMCw0NS4ybDQuNjQtMS4wMmwwLjYxLDIuODQgICAgIEwwLjY2LDQ4LjA3eiIvPiYjeGE7CQk8L2c+JiN4YTsJCTxnIGlkPSJzaGFwZTcwNzMtMTYiIHRyYW5zZm9ybT0idHJhbnNsYXRlKDkuOTE4MTgsLTIzLjc0MikiPiYjeGE7CQkJPHRpdGxlIGlkPSJ0aXRsZTMxMTY2OCI+U2hlZXQuNzA3MzwvdGl0bGU+JiN4YTsJCQk8cGF0aCBpZD0icGF0aDMxMTY3MCIgaW5rc2NhcGU6Y29ubmVjdG9yLWN1cnZhdHVyZT0iMCIgc3R5bGU9ImZpbGw6I0U2RTdFODsiIGQ9Ik0wLDQ4LjA3aDQuNjdsMC4xNy04Ljg0bDAuMjItNC42M0wwLDM0LjI1ICAgICBWNDguMDd6Ii8+JiN4YTsJCTwvZz4mI3hhOwkJPGcgaWQ9InNoYXBlNzA3NC0xOCIgdHJhbnNmb3JtPSJ0cmFuc2xhdGUoOS41MjkzMSwtMzUuODA3NikiPiYjeGE7CQkJPHRpdGxlIGlkPSJ0aXRsZTMxMTY3MyI+U2hlZXQuNzA3NDwvdGl0bGU+JiN4YTsJCQk8cGF0aCBpZD0icGF0aDMxMTY3NSIgaW5rc2NhcGU6Y29ubmVjdG9yLWN1cnZhdHVyZT0iMCIgc3R5bGU9ImZpbGw6I0U2RTdFODsiIGQ9Ik01LjA2LDQ4LjA3bC01LjA2LTFsMC42LTIuODlsNS4wNCwxLjA0ICAgICBMNS4wNiw0OC4wN3oiLz4mI3hhOwkJPC9nPiYjeGE7CQk8ZyBpZD0ic2hhcGU3MDc1LTIwIiB0cmFuc2Zvcm09InRyYW5zbGF0ZSg3LjE5NjA1LC0zMi4zMDQ2KSI+JiN4YTsJCQk8dGl0bGUgaWQ9InRpdGxlMzExNjc4Ij5TaGVldC43MDc1PC90aXRsZT4mI3hhOwkJCTxwYXRoIGlkPSJwYXRoMzExNjgwIiBpbmtzY2FwZTpjb25uZWN0b3ItY3VydmF0dXJlPSIwIiBzdHlsZT0iZmlsbDojMDBCMjk0OyIgZD0iTTQuNDEsNDYuMDJjLTAuMTgsMC0wLjM2LDAuMDQtMC41MiwwLjE1ICAgICBjMC0wLjExLTAuMDQtMC4xOC0wLjA3LTAuMjZjLTAuMDgtMC4xOC0wLjA4LTAuMTgtMC4wOC0wLjE4Yy0wLjAzLTAuMTgtMC4xMS0wLjMzLTAuMTEtMC40YzAuMDgtMC4xNCwwLjA4LTAuMTQsMC4wOC0wLjE0ICAgICBjMC0wLjA0LDAtMC4wNC0wLjA0LTAuMDhjLTAuMTEtMC4xMi0wLjExLTAuMTItMC4xMS0wLjEyYzAtMC4wNC0wLjA0LTAuMDQtMC4wNC0wLjA0Yy0wLjQxLDAtMC40MSwwLTAuNDEsMCAgICAgYy0wLjA0LDAtMC4wNywwLjA0LTAuMDcsMC4wOGMwLDAuMDUsMC4wMywwLjA4LDAuMDcsMC4wOGMwLjM4LDAsMC4zOCwwLDAuMzgsMGMwLjA3LDAuMDgsMC4wNywwLjA4LDAuMDcsMC4wOCAgICAgYy0wLjA3LDAuMTQtMC4wNywwLjE0LTAuMDcsMC4xNHMwLDAsMCwwLjA0YzAuMDMsMCwwLjA3LDAuMTQsMC4xNCwwLjMzYy0xLjUyLDAtMS41MiwwLTEuNTIsMGMtMC4wMy0wLjExLTAuMDMtMC4xMS0wLjAzLTAuMTEgICAgIGMwLjE0LTAuMDQsMC4zNC0wLjExLDAuNDEtMC4yMmMtMC45MywwLTAuOTMsMC0wLjkzLDBjMCwwLjE0LDAuMTUsMC4yNSwwLjM0LDAuMjVjMC4wMywwLDAuMDMsMCwwLjA3LDBsMCwwICAgICBjMC4wNCwwLjE1LDAuMDQsMC4xNSwwLjA0LDAuMTVjLTAuMzcsMC40NC0wLjM3LDAuNDQtMC4zNywwLjQ0Yy0wLjE5LTAuMTEtMC4zOC0wLjE5LTAuNTktMC4xOUMwLjQ5LDQ2LjAyLDAsNDYuNDYsMCw0Ny4wNSAgICAgYzAsMC41NCwwLjQ5LDEuMDIsMS4wNSwxLjAyYzAuNDcsMCwwLjg4LTAuMzMsMC45OS0wLjc3YzAuMjIsMC4wNCwwLjIyLDAuMDQsMC4yMiwwLjA0YzAsMC4wNywwLjA3LDAuMTgsMC4xNiwwLjIyICAgICBjLTAuMDQsMC4yMi0wLjA0LDAuMjItMC4wNCwwLjIyYy0wLjEyLDAtMC4xMiwwLTAuMTIsMGMtMC4wNCwwLTAuMDcsMC0wLjA3LDAuMDNjMCwwLjA0LDAuMDMsMC4wOCwwLjA3LDAuMDhjMC4zLDAsMC4zLDAsMC4zLDAgICAgIGMwLjA0LDAsMC4wNC0wLjA0LDAuMDQtMC4wOGMwLTAuMDMsMC0wLjAzLTAuMDQtMC4wM2MtMC4wNywwLTAuMDcsMC0wLjA3LDBjMC4wNC0wLjIyLDAuMDQtMC4yMiwwLjA0LTAuMjIgICAgIGMwLjE0LDAsMC4yNS0wLjExLDAuMjUtMC4yNmMwLTAuMDMtMC4wMy0wLjA3LTAuMDctMC4xMWMxLjAzLTEuMTMsMS4wMy0xLjEzLDEuMDMtMS4xM2MwLjA0LDAuMDQsMC4wNCwwLjExLDAuMDgsMC4xNSAgICAgYy0wLjI2LDAuMjItMC40NCwwLjQ3LTAuNDQsMC44NGMwLDAuNTQsMC40NCwxLjAyLDEuMDMsMS4wMmMwLjYsMCwxLjAzLTAuNDgsMS4wMy0xLjAyQzUuNDQsNDYuNDYsNS4wMSw0Ni4wMiw0LjQxLDQ2LjAyeiAgICAgIE0xLjA1LDQ3LjkyYy0wLjQ5LDAtMC44OS0wLjQtMC44OS0wLjg3YzAtMC40OCwwLjQtMC44OCwwLjg5LTAuODhjMC4xOCwwLDAuMzIsMC4wNywwLjQ3LDAuMTVjLTAuNDcsMC42Mi0wLjQ3LDAuNjItMC40NywwLjYyICAgICBsMCwwYy0wLjA0LDAtMC4xMSwwLjAzLTAuMTEsMC4xMWgwLjAzYy0wLjAzLDAuMDMtMC4wMywwLjAzLTAuMDMsMC4wM2MwLjA3LDAsMC4wNywwLDAuMDcsMGMwLDAuMDQsMCwwLjA4LDAuMDQsMC4wOCAgICAgYzAuMDMsMCwwLjAzLTAuMDQsMC4wMy0wLjA0YzAuODIsMC4xNSwwLjgyLDAuMTUsMC44MiwwLjE1QzEuNzksNDcuNjMsMS40NSw0Ny45MiwxLjA1LDQ3LjkyeiBNMS45Myw0Ny4wNWMwLDAuMDMsMCwwLjA3LDAsMC4xMSAgICAgYy0wLjc4LTAuMTUtMC43OC0wLjE1LTAuNzgtMC4xNWMwLjQ5LTAuNjIsMC40OS0wLjYyLDAuNDktMC42MkMxLjgyLDQ2LjU3LDEuOTMsNDYuNzksMS45Myw0Ny4wNXogTTEuNzUsNDYuMjggICAgIGMwLjI5LTAuNCwwLjI5LTAuNCwwLjI5LTAuNGMwLjM4LDEuMjQsMC4zOCwxLjI0LDAuMzgsMS4yNGMtMC4wOSwwLjA0LTAuMDksMC4wNC0wLjEyLDAuMTFjLTAuMjItMC4wNy0wLjIyLTAuMDctMC4yMi0wLjA3ICAgICBjMC0wLjA0LDAtMC4wOCwwLTAuMTFDMi4wOCw0Ni43MiwxLjk3LDQ2LjQ2LDEuNzUsNDYuMjh6IE0yLjY3LDQ3LjA1YzAuMDgtMC4yMiwwLjA4LTAuMjIsMC4wOC0wLjIyYzAuMDcsMCwwLjA3LDAsMC4wNywwICAgICBjMC4wNCwwLDAuMDctMC4wNCwwLjA3LTAuMDRjMC0wLjA0LTAuMDMtMC4wNy0wLjA3LTAuMDdjLTAuMjYsMC0wLjI2LDAtMC4yNiwwYy0wLjAzLDAtMC4wNywwLjAzLTAuMDcsMC4wNyAgICAgYzAsMCwwLjA0LDAuMDQsMC4wNywwLjA0YzAuMDQsMCwwLjA0LDAsMC4wNCwwYy0wLjA0LDAuMjUtMC4wNCwwLjI1LTAuMDQsMC4yNWMtMC4wMywwLTAuMDMsMC0wLjAzLDBsMCwwICAgICBjLTAuMzgtMS4yNy0wLjM4LTEuMjctMC4zOC0xLjI3YzEuNTIsMCwxLjUyLDAsMS41MiwwYzAsMC4wMywwLDAuMDcsMC4wNCwwLjFMMi42Nyw0Ny4wNXogTTQuNDEsNDcuOTIgICAgIGMtMC40NywwLTAuODktMC40LTAuODktMC44N2MwLTAuMywwLjE1LTAuNTEsMC4zMy0wLjY2YzAuMDQsMC4wNywwLjA5LDAuMTUsMC4wOSwwLjIyYzAuMTEsMC4xOCwwLjI5LDAuMzMsMC4zNiwwLjQ0bDAsMCAgICAgYzAsMC4wMywwLjA0LDAuMTEsMC4xMSwwLjExczAuMTEtMC4wOCwwLjExLTAuMTFjMC0wLjA4LTAuMDQtMC4xMS0wLjExLTAuMTFsMCwwYy0wLjExLTAuMDgtMC4yOS0wLjIyLTAuMzYtMC40ICAgICBjMC0wLjA0LTAuMDQtMC4xMS0wLjA4LTAuMjJjMC4xMS0wLjA4LDAuMjYtMC4xNSwwLjQ0LTAuMTVjMC40OSwwLDAuODksMC40LDAuODksMC44OEM1LjMsNDcuNTIsNC45LDQ3LjkyLDQuNDEsNDcuOTJ6Ii8+JiN4YTsJCTwvZz4mI3hhOwkJPGcgaWQ9InNoYXBlNzA3Ni0yMiIgdHJhbnNmb3JtPSJ0cmFuc2xhdGUoOS45MTgxOCwtMzguMzM3NCkiPiYjeGE7CQkJPHRpdGxlIGlkPSJ0aXRsZTMxMTY4MyI+U2hlZXQuNzA3NjwvdGl0bGU+JiN4YTsJCQk8cGF0aCBpZD0icGF0aDMxMTY4NSIgaW5rc2NhcGU6Y29ubmVjdG9yLWN1cnZhdHVyZT0iMCIgc3R5bGU9ImZpbGw6I0YyN0FCNDsiIGQ9Ik0wLjE5LDQ3Ljg3YzAsMC4xNC0wLjA5LDAuMi0wLjE0LDAuMiAgICAgYzAsMCwwLDAtMC4wNS0wLjA2QzAuMTksNDcuODcsMC4xOSw0Ny44NywwLjE5LDQ3Ljg3TDAuMTksNDcuODd6Ii8+JiN4YTsJCTwvZz4mI3hhOwkJPGcgaWQ9InNoYXBlNzA3Ny0yNCIgdHJhbnNmb3JtPSJ0cmFuc2xhdGUoOC4xNjgyNCwtMzcuNzUzNikiPiYjeGE7CQkJPHRpdGxlIGlkPSJ0aXRsZTMxMTY4OCI+U2hlZXQuNzA3NzwvdGl0bGU+JiN4YTsJCQk8cGF0aCBpZD0icGF0aDMxMTY5MCIgaW5rc2NhcGU6Y29ubmVjdG9yLWN1cnZhdHVyZT0iMCIgc3R5bGU9ImZpbGw6I0NFOUM1RTsiIGQ9Ik0xLjg1LDQ4LjA3QzAuODQsNDguMDcsMCw0Ny4zOSwwLDQ2LjMzICAgICBjMC0xLjM4LDAtMS4zOCwwLTEuMzhjMy42OSwwLDMuNjksMCwzLjY5LDBjMCwxLjM4LDAsMS4zOCwwLDEuMzhDMy42OSw0Ny4zOSwyLjg3LDQ4LjA3LDEuODUsNDguMDd6Ii8+JiN4YTsJCTwvZz4mI3hhOwkJPGcgaWQ9InNoYXBlNzA3OC0yNiIgdHJhbnNmb3JtPSJ0cmFuc2xhdGUoNy4wMDE2MSwtMzkuNjk5NykiPiYjeGE7CQkJPHRpdGxlIGlkPSJ0aXRsZTMxMTY5MyI+U2hlZXQuNzA3ODwvdGl0bGU+JiN4YTsJCQk8cGF0aCBpZD0icGF0aDMxMTY5NSIgaW5rc2NhcGU6Y29ubmVjdG9yLWN1cnZhdHVyZT0iMCIgc3R5bGU9ImZpbGw6I0NFOUM1RTsiIGQ9Ik01LjgzLDQ0LjE0YzAsMi4zMy0xLjI2LDMuOTMtMi45MywzLjkzICAgICBjLTEuNjYsMC0yLjktMS42LTIuOS0zLjkzYzAtMi4zNSwxLjI0LTQuMjUsMi45LTQuMjVDNS4wMSwzOS44OSw1LjgzLDQxLjc5LDUuODMsNDQuMTR6Ii8+JiN4YTsJCTwvZz4mI3hhOwkJPGcgaWQ9InNoYXBlNzA3OS0yOCIgdHJhbnNmb3JtPSJ0cmFuc2xhdGUoNi42MTI3MywtNDIuNDI0MikiPiYjeGE7CQkJPHRpdGxlIGlkPSJ0aXRsZTMxMTY5OCI+U2hlZXQuNzA3OTwvdGl0bGU+JiN4YTsJCQk8cGF0aCBpZD0icGF0aDMxMTcwMCIgaW5rc2NhcGU6Y29ubmVjdG9yLWN1cnZhdHVyZT0iMCIgc3R5bGU9ImZpbGw6I0NFOUM1RTsiIGQ9Ik0wLjU4LDQ2LjMyYy0wLjMyLDAtMC4zMiwwLTAuMzIsMCAgICAgQzAuMSw0Ni4zMiwwLDQ2LjQ2LDAsNDYuNjNjMCwxLjEzLDAsMS4xMywwLDEuMTNjMCwwLjE3LDAuMSwwLjMxLDAuMjYsMC4zMWMwLjIsMCwwLjIsMCwwLjIsMEwwLjU4LDQ2LjMyeiIvPiYjeGE7CQk8L2c+JiN4YTsJCTxnIGlkPSJzaGFwZTcwODAtMzAiIHRyYW5zZm9ybT0idHJhbnNsYXRlKDEyLjY0MDMsLTQyLjQyNDIpIj4mI3hhOwkJCTx0aXRsZSBpZD0idGl0bGUzMTE3MDMiPlNoZWV0LjcwODA8L3RpdGxlPiYjeGE7CQkJPHBhdGggaWQ9InBhdGgzMTE3MDUiIGlua3NjYXBlOmNvbm5lY3Rvci1jdXJ2YXR1cmU9IjAiIHN0eWxlPSJmaWxsOiNDRTlDNUU7IiBkPSJNMCw0Ni4zMmMwLjQ2LDAsMC40NiwwLDAuNDYsMCAgICAgYzAuMiwwLDAuMzIsMC4xNCwwLjMyLDAuMzFjMCwxLjEzLDAsMS4xMywwLDEuMTNjMCwwLjE3LTAuMTIsMC4zMS0wLjMyLDAuMzFjLTAuMjksMC0wLjI5LDAtMC4yOSwwTDAsNDYuMzJ6Ii8+JiN4YTsJCTwvZz4mI3hhOwkJPGcgaWQ9InNoYXBlNzA4MS0zMiIgdHJhbnNmb3JtPSJ0cmFuc2xhdGUoOC41NTcxMSwtNDMuNTkxOCkiPiYjeGE7CQkJPHRpdGxlIGlkPSJ0aXRsZTMxMTcwOCI+U2hlZXQuNzA4MTwvdGl0bGU+JiN4YTsJCQk8cGF0aCBpZD0icGF0aDMxMTcxMCIgaW5rc2NhcGU6Y29ubmVjdG9yLWN1cnZhdHVyZT0iMCIgc3R5bGU9ImZpbGw6IzIzMUYyMDsiIGQ9Ik0wLjE5LDQ4LjA3YzAuMSwwLDAuMi0wLjA5LDAuMi0wLjIxICAgICBjMC0wLjA4LTAuMS0wLjE4LTAuMi0wLjE4QzAuMDcsNDcuNjgsMCw0Ny43OCwwLDQ3LjlDMCw0Ny45OCwwLjEsNDguMDcsMC4xOSw0OC4wN3oiLz4mI3hhOwkJPC9nPiYjeGE7CQk8ZyBpZD0ic2hhcGU3MDgyLTM0IiB0cmFuc2Zvcm09InRyYW5zbGF0ZSgxMS4wODQ4LC00My4zOTcyKSI+JiN4YTsJCQk8dGl0bGUgaWQ9InRpdGxlMzExNzEzIj5TaGVldC43MDgyPC90aXRsZT4mI3hhOwkJCTxwYXRoIGlkPSJwYXRoMzExNzE1IiBpbmtzY2FwZTpjb25uZWN0b3ItY3VydmF0dXJlPSIwIiBzdHlsZT0iZmlsbDojMjMxRjIwOyIgZD0iTTAuMTksNDguMDdjMC4xLDAsMC4yLTAuMTQsMC4yLTAuMzEgICAgIGMwLTAuMTMtMC4xLTAuMjgtMC4yLTAuMjhDMC4xLDQ3LjQ4LDAsNDcuNjMsMCw0Ny44QzAsNDcuOTMsMC4xLDQ4LjA3LDAuMTksNDguMDd6Ii8+JiN4YTsJCTwvZz4mI3hhOwkJPGcgaWQ9InNoYXBlNzA4My0zNiIgdHJhbnNmb3JtPSJ0cmFuc2xhdGUoOC4xNjgyNCwtMzkuNTA1MSkiPiYjeGE7CQkJPHRpdGxlIGlkPSJ0aXRsZTMxMTcxOCI+U2hlZXQuNzA4MzwvdGl0bGU+JiN4YTsJCQk8cGF0aCBpZD0icGF0aDMxMTcyMCIgaW5rc2NhcGU6Y29ubmVjdG9yLWN1cnZhdHVyZT0iMCIgc3R5bGU9ImZpbGw6I0NFOUM1RTsiIGQ9Ik0wLDQ2LjcxYzMuNSwwLDMuNSwwLDMuNSwwICAgICBjLTAuNDQsMC44My0xLjAzLDEuMzYtMS43NSwxLjM2QzEuMDUsNDguMDcsMC40NSw0Ny41NCwwLDQ2LjcxeiIvPiYjeGE7CQk8L2c+JiN4YTsJCTxnIGlkPSJzaGFwZTcwODQtMzgiIHRyYW5zZm9ybT0idHJhbnNsYXRlKDguMTY4MjQsLTM5LjMxMDUpIj4mI3hhOwkJCTx0aXRsZSBpZD0idGl0bGUzMTE3MjMiPlNoZWV0LjcwODQ8L3RpdGxlPiYjeGE7CQkJPHBhdGggaWQ9InBhdGgzMTE3MjUiIGlua3NjYXBlOmNvbm5lY3Rvci1jdXJ2YXR1cmU9IjAiIHN0eWxlPSJmaWxsOiNCQThENTc7IiBkPSJNMy42OSw0Ni45YzAsMC4yOSwwLDAuMjksMCwwLjI5ICAgICBjMCwwLjI4LTEuMTksMC44OC0xLjg0LDAuODhDMS4yNCw0OC4wNywwLDQ3LjYyLDAsNDcuMTljMC0wLjI5LDAtMC4yOSwwLTAuMjljMC4yNiwwLjI2LDAuNTUsMC40NiwwLjg3LDAuNjEgICAgIGMwLjMsMC4yNCwwLjYyLDAuMzUsMC45OCwwLjM1czAuNjktMC4xMSwwLjk4LTAuMzVDMy4xNiw0Ny4zNiwzLjQ1LDQ3LjE2LDMuNjksNDYuOXoiLz4mI3hhOwkJPC9nPiYjeGE7CQk8ZyBpZD0ic2hhcGU3MDg1LTQwIiB0cmFuc2Zvcm09InRyYW5zbGF0ZSg4Ljc1MTU1LC00MS4wNjE5KSI+JiN4YTsJCQk8dGl0bGUgaWQ9InRpdGxlMzExNzI4Ij5TaGVldC43MDg1PC90aXRsZT4mI3hhOwkJCTxwYXRoIGlkPSJwYXRoMzExNzMwIiBpbmtzY2FwZTpjb25uZWN0b3ItY3VydmF0dXJlPSIwIiBzdHlsZT0iZmlsbDojRkZGRkZGOyIgZD0iTTEuMTcsNDguMDdjMC41NCwwLDAuOC0wLjEyLDEuMTYtMC4yICAgICBjLTAuMTgsMC4wNC0wLjYyLDAuMDgtMS4xNiwwLjA4Yy0wLjU5LDAtMC45OS0wLjA0LTEuMTctMC4wOEMwLjM2LDQ3Ljk1LDAuNjIsNDguMDcsMS4xNyw0OC4wN3oiLz4mI3hhOwkJPC9nPiYjeGE7CQk8ZyBpZD0ic2hhcGU3MDg2LTQyIiB0cmFuc2Zvcm09InRyYW5zbGF0ZSg4Ljc1MTU1LC00MC44NjczKSI+JiN4YTsJCQk8dGl0bGUgaWQ9InRpdGxlMzExNzMzIj5TaGVldC43MDg2PC90aXRsZT4mI3hhOwkJCTxwYXRoIGlkPSJwYXRoMzExNzM1IiBpbmtzY2FwZTpjb25uZWN0b3ItY3VydmF0dXJlPSIwIiBzdHlsZT0iZmlsbDojQkIxNDFBOyIgZD0iTTEuMjksNDguMDdjLTAuMzgsMC0wLjYxLTAuMS0wLjg2LTAuMTUgICAgIGMtMC4wOS0wLjA1LTAuMi0wLjEtMC4zMS0wLjE0Yy0wLjAzLDAtMC4wMywwLTAuMDcsMEwwLDQ3LjczYzAuMDUtMC4wNSwwLjA1LTAuMDUsMC4wOS0wLjA1YzAsMCwwLjAzLDAsMC4wNywwICAgICBjMC4xOCwwLjA1LDAuNjEsMC4xLDEuMTMsMC4xYzAuNDgsMCwwLjkxLTAuMDUsMS4xMy0wLjFjMC4wMywwLDAuMDMsMCwwLjA3LDBzMC4wNCwwLDAuMDQsMC4wNWMwLDAsMCwwLjA1LTAuMDQsMC4wNSAgICAgYzAsMC0wLjA0LDAtMC4wNywwYy0wLjA3LDAuMDQtMC4xOCwwLjA5LTAuMzEsMC4xNEMxLjksNDcuOTcsMS42Myw0OC4wNywxLjI5LDQ4LjA3eiBNMC42MSw0Ny44N2MwLjE5LDAuMDUsMC40MSwwLjEsMC42OCwwLjEgICAgIHMwLjQ4LTAuMDUsMC42OC0wLjFjLTAuMjMsMC0wLjQ1LDAtMC42OCwwQzEuMDIsNDcuODcsMC44LDQ3Ljg3LDAuNjEsNDcuODd6Ii8+JiN4YTsJCTwvZz4mI3hhOwkJPGcgaWQ9InNoYXBlNzA4Ny00NCIgdHJhbnNmb3JtPSJ0cmFuc2xhdGUoOS4zMzQ4NywtNDEuODQwNCkiPiYjeGE7CQkJPHRpdGxlIGlkPSJ0aXRsZTMxMTczOCI+U2hlZXQuNzA4NzwvdGl0bGU+JiN4YTsJCQk8cGF0aCBpZD0icGF0aDMxMTc0MCIgaW5rc2NhcGU6Y29ubmVjdG9yLWN1cnZhdHVyZT0iMCIgc3R5bGU9ImZpbGw6I0JBOEQ1NzsiIGQ9Ik0xLjE3LDQ3LjQ4YzAsMC4xNS0wLjEsMC4zLTAuMjEsMC4yNSAgICAgYy0wLjA0LDAtMC4wNywwLjA5LTAuMTUsMC4xNGMtMC4wNiwwLjEtMC4xMywwLjItMC4yNCwwLjJjLTAuMDcsMC0wLjE4LTAuMS0wLjI0LTAuMmMtMC4wNy0wLjA1LTAuMTEtMC4xNC0wLjExLTAuMTQgICAgIEMwLjA3LDQ3Ljc4LDAsNDcuNjMsMCw0Ny40OGwwLDBDMS4xNyw0Ny40OCwxLjE3LDQ3LjQ4LDEuMTcsNDcuNDhMMS4xNyw0Ny40OHoiLz4mI3hhOwkJPC9nPiYjeGE7CQk8ZyBpZD0ic2hhcGU3MDg4LTQ2IiB0cmFuc2Zvcm09InRyYW5zbGF0ZSg3LjAwMTYxLC00Mi44MTM0KSI+JiN4YTsJCQk8dGl0bGUgaWQ9InRpdGxlMzExNzQzIj5TaGVldC43MDg4PC90aXRsZT4mI3hhOwkJCTxwYXRoIGlkPSJwYXRoMzExNzQ1IiBpbmtzY2FwZTpjb25uZWN0b3ItY3VydmF0dXJlPSIwIiBzdHlsZT0iZmlsbDojRkZCOTAwOyIgZD0iTTYuMDMsNDUuNTRjMCwyLjUzLDAsMi41MywwLDIuNTMgICAgIGMtMC4yNiwwLTAuMjYsMC0wLjI2LDBjLTAuMTQtMy4wNC0wLjE0LTMuMDQtMC4xNC0zLjA0QzQuOCw0NS4xNyw0LjgsNDUuMTcsNC44LDQ1LjE3Yy0xLjE5LDAuMTUtMi4zOCwwLjE1LTMuNTYsMCAgICAgYy0wLjgzLTAuMTQtMC44My0wLjE0LTAuODMtMC4xNGMtMC4xOCwzLTAuMTgsMy0wLjE4LDNjLTAuMjMsMC0wLjIzLDAtMC4yMywwYzAtMi40OSwwLTIuNDksMC0yLjQ5YzAtMS41MSwxLjA1LTIuNzMsMi4zMS0yLjczICAgICBjMS4zOCwwLDEuMzgsMCwxLjM4LDBDNC45OSw0Mi44MSw2LjAzLDQ0LjAzLDYuMDMsNDUuNTR6Ii8+JiN4YTsJCTwvZz4mI3hhOwkJPGcgaWQ9InNoYXBlNzA4OS00OCIgdHJhbnNmb3JtPSJ0cmFuc2xhdGUoMTAuODkwNCwtNDQuMTc1NikiPiYjeGE7CQkJPHRpdGxlIGlkPSJ0aXRsZTMxMTc0OCI+U2hlZXQuNzA4OTwvdGl0bGU+JiN4YTsJCQk8cGF0aCBpZD0icGF0aDMxMTc1MCIgaW5rc2NhcGU6Y29ubmVjdG9yLWN1cnZhdHVyZT0iMCIgc3R5bGU9ImZpbGw6I0ZGQjkwMDsiIGQ9Ik0wLjk3LDQ4LjA3YzAsMC0wLjA2LTAuMDMtMC4xNi0wLjEgICAgIGMtMC4wMywwLTAuMDYtMC4wMi0wLjEzLTAuMDZjLTAuMDItMC4wNC0wLjA2LTAuMDQtMC4wNi0wLjA0cy0wLjA0LTAuMDItMC4wNi0wLjAyYzAsMCwwLDAtMC4wNCwwYy0wLjEzLTAuMDQtMC4yNSwwLTAuMzUsMCAgICAgYy0wLjA0LDAtMC4wNywwLTAuMSwwcy0wLjA3LDAtMC4wNywwbDAsMGMwLTAuMDQsMC0wLjA0LDAtMC4wNHMwLjA3LTAuMDMsMC4xNy0wLjA2YzAuMS0wLjAzLDAuMjItMC4wNywwLjM5LTAuMDMgICAgIGMwLDAsMC4wMiwwLDAuMDYsMGMwLDAsMCwwLDAuMDQsMC4wM2MwLjAyLDAsMC4wNiwwLjAzLDAuMDksMC4wM2MwLjA2LDAuMDcsMC4xLDAuMDksMC4xMiwwLjEzYzAuMDQsMC4wNCwwLjA4LDAuMSwwLjEsMC4xICAgICBDMC45Nyw0OC4wNCwwLjk3LDQ4LjA3LDAuOTcsNDguMDdMMC45Nyw0OC4wN0MwLjk3LDQ4LjA3LDAuOTcsNDguMDcsMC45Nyw0OC4wN3oiLz4mI3hhOwkJPC9nPiYjeGE7CQk8ZyBpZD0ic2hhcGU3MDkwLTUwIiB0cmFuc2Zvcm09InRyYW5zbGF0ZSg4LjE2ODI0LC00NC4xODE3KSI+JiN4YTsJCQk8dGl0bGUgaWQ9InRpdGxlMzExNzUzIj5TaGVldC43MDkwPC90aXRsZT4mI3hhOwkJCTxwYXRoIGlkPSJwYXRoMzExNzU1IiBpbmtzY2FwZTpjb25uZWN0b3ItY3VydmF0dXJlPSIwIiBzdHlsZT0iZmlsbDojRkZCOTAwOyIgZD0iTTAuOTUsNDcuODVjMCwwLTAuMDYsMC0wLjE2LTAuMDMgICAgIGMtMC4wNCwwLTAuMSwwLTAuMTYsMGMtMC4wMiwwLTAuMDYsMC0wLjEsMEgwLjUxSDAuNDdjLTAuMTIsMC4wMy0wLjIxLDAuMS0wLjMxLDAuMTZjLTAuMDMsMC4wMy0wLjA2LDAuMDMtMC4wOSwwLjA3ICAgICBjLTAuMDMsMC0wLjAzLDAtMC4wMywwYzAsMC4wMi0wLjA0LDAuMDItMC4wNCwwbDAsMGMwLDAsMC4wNC0wLjA3LDAuMS0wLjEzYzAuMDktMC4xLDAuMTktMC4xNiwwLjM1LTAuMjRoMC4wMiAgICAgYzAuMDQsMCwwLjA0LDAsMC4wNiwwYzAuMDQsMCwwLjEsMCwwLjE0LDBjMC4wNiwwLDAuMDgsMC4wNCwwLjE2LDAuMDRjMC4wMiwwLjA0LDAuMDgsMC4wNiwwLjA4LDAuMDYgICAgIGMwLjA0LDAuMDQsMC4wNiwwLjA0LDAuMDYsMC4wNHMwLDAsMCwwLjAzQzAuOTcsNDcuODUsMC45NSw0Ny44NSwwLjk1LDQ3Ljg1eiIvPiYjeGE7CQk8L2c+JiN4YTsJCTxnIGlkPSJzaGFwZTcwOTEtNTIiIHRyYW5zZm9ybT0idHJhbnNsYXRlKDkuMzM0ODcsLTQyLjQyNDIpIj4mI3hhOwkJCTx0aXRsZSBpZD0idGl0bGUzMTE3NTgiPlNoZWV0LjcwOTE8L3RpdGxlPiYjeGE7CQkJPHBhdGggaWQ9InBhdGgzMTE3NjAiIGlua3NjYXBlOmNvbm5lY3Rvci1jdXJ2YXR1cmU9IjAiIHN0eWxlPSJmaWxsOiNEOUIwN0Y7IiBkPSJNMC43OCw0Ni4zMmMwLDEuNzUsMCwxLjc1LDAsMS43NSAgICAgYy0wLjc4LDAtMC43OCwwLTAuNzgsMGMwLTAuMDQsMC4wNS0wLjExLDAuMS0wLjE1YzAuMTMtMC4xMSwwLjIzLTAuMywwLjI4LTAuNTNjMC4wMy0wLjc2LDAuMDMtMC43NiwwLjAzLTAuNzYgICAgIEMwLjQxLDQ2LjQsMC42OSw0Ni4zMiwwLjc4LDQ2LjMyeiIvPiYjeGE7CQk8L2c+JiN4YTsJCTxnIGlkPSJzaGFwZTcwOTItNTQiIHRyYW5zZm9ybT0idHJhbnNsYXRlKDIuMzM1MSwtMjQuNTIwNCkiPiYjeGE7CQkJPHRpdGxlIGlkPSJ0aXRsZTMxMTc2MyI+U2hlZXQuNzA5MjwvdGl0bGU+JiN4YTsJCQk8cGF0aCBpZD0icGF0aDMxMTc2NSIgaW5rc2NhcGU6Y29ubmVjdG9yLWN1cnZhdHVyZT0iMCIgc3R5bGU9ImZpbGw6I0U2MUUyNzsiIGQ9Ik00LjA2LDQ4LjA3bDYuMDUtNS45bC00LjEyLTQuMjJMMCw0My44OCAgICAgTDQuMDYsNDguMDd6Ii8+JiN4YTsJCTwvZz4mI3hhOwkJPGcgaWQ9InNoYXBlNzA5My01NiIgdHJhbnNmb3JtPSJ0cmFuc2xhdGUoMi4zMzUxLC0yNC41MjA0KSI+JiN4YTsJCQk8dGl0bGUgaWQ9InRpdGxlMzExNzY4Ij5TaGVldC43MDkzPC90aXRsZT4mI3hhOwkJCTxwYXRoIGlkPSJwYXRoMzExNzcwIiBpbmtzY2FwZTpjb25uZWN0b3ItY3VydmF0dXJlPSIwIiBzdHlsZT0iZmlsbDojRUQ0RTVBOyIgZD0iTTQuMDYsNDguMDdsNi4wNS01Ljg0TDAsNDMuOTNMNC4wNiw0OC4wN3oiLz4mI3hhOwkJPC9nPiYjeGE7CQk8ZyBpZD0ic2hhcGU3MDk0LTU4IiB0cmFuc2Zvcm09InRyYW5zbGF0ZSgwLjM5MDcxNSwtMzAuOTQyNCkiPiYjeGE7CQkJPHRpdGxlIGlkPSJ0aXRsZTMxMTc3MyI+U2hlZXQuNzA5NDwvdGl0bGU+JiN4YTsJCQk8cGF0aCBpZD0icGF0aDMxMTc3NSIgaW5rc2NhcGU6Y29ubmVjdG9yLWN1cnZhdHVyZT0iMCIgc3R5bGU9ImZpbGw6I0NFOUM1RTsiIGQ9Ik0wLDQ2LjRsMi4zNiwxLjY3bDQuMDYtNC42NGwtMy4yNC0yLjM3TDAsNDYuNCAgICAgeiIvPiYjeGE7CQk8L2c+JiN4YTsJCTxnIGlkPSJzaGFwZTcwOTUtNjAiIHRyYW5zZm9ybT0idHJhbnNsYXRlKDMuMTgyNzQsLTM0LjcxNzQpIj4mI3hhOwkJCTx0aXRsZSBpZD0idGl0bGUzMTE3NzgiPlNoZWV0LjcwOTU8L3RpdGxlPiYjeGE7CQkJPHBhdGggaWQ9InBhdGgzMTE3ODAiIGlua3NjYXBlOmNvbm5lY3Rvci1jdXJ2YXR1cmU9IjAiIHN0eWxlPSJmaWxsOiNFNkU3RTg7IiBkPSJNMC4zOCw0NC45NWMwLjYzLTAuODYsMS44Ni0xLjA5LDIuNzYtMC40MiAgICAgYzAuODksMC42NCwxLjA3LDEuODUsMC40NCwyLjc0Yy0wLjY3LDAuODUtMS44NiwxLjA3LTIuNzYsMC40NUMtMC4wNyw0Ny4wOS0wLjI2LDQ1Ljg3LDAuMzgsNDQuOTV6Ii8+JiN4YTsJCTwvZz4mI3hhOwkJPGcgaWQ9InNoYXBlNzA5Ni02MiIgdHJhbnNmb3JtPSJ0cmFuc2xhdGUoNS40NDYxMSwtMjYuNTQzMikiPiYjeGE7CQkJPHRpdGxlIGlkPSJ0aXRsZTMxMTc4MyI+U2hlZXQuNzA5NjwvdGl0bGU+JiN4YTsJCQk8cGF0aCBpZD0icGF0aDMxMTc4NSIgaW5rc2NhcGU6Y29ubmVjdG9yLWN1cnZhdHVyZT0iMCIgc3R5bGU9ImZpbGw6I0NEOUI1RTsiIGQ9Ik0xLjUzLDQ2Ljk1YzAuOTIsMC44NywxLjM3LDAuOTQsMi40MiwxLjA5ICAgICBjMC42MywwLjEsMC44NS0wLjA4LDAuNjMtMC4zYzAuNTUsMC4yNiwxLjExLTAuMTIsMC43MS0wLjNjMC4xNCwwLDAuNTEtMC4xMSwwLjUxLTAuMzRjMC4wMy0wLjE4LTAuMzctMC4yMi0wLjUxLTAuMjIgICAgIGMwLjE0LTAuMiwwLjExLTAuNDUtMC4zOC0wLjQ5Yy0wLjM4LTAuMDMtMC42LTAuMjMtMC42LTAuMjNjMC40NS0wLjExLDAuNi0wLjQxLDAuNDktMC41OWMtMC40OSwwLjAzLTEuMjMtMC4xNi0xLjgyLTAuMTEgICAgIGMtMC4xMSwwLTAuMjIsMC4wMy0wLjMzLDAuMDdjLTIuMzgtMS40Ny0yLjM4LTEuNDctMi4zOC0xLjQ3QzAsNDYuMTMsMCw0Ni4xMywwLDQ2LjEzTDEuNTMsNDYuOTV6Ii8+JiN4YTsJCTwvZz4mI3hhOwkJPGcgaWQ9InNoYXBlNzA5Ny02NCIgdHJhbnNmb3JtPSJ0cmFuc2xhdGUoMCwtMzAuMzY3MSkiPiYjeGE7CQkJPHRpdGxlIGlkPSJ0aXRsZTMxMTc4OCI+U2hlZXQuNzA5NzwvdGl0bGU+JiN4YTsJCQk8cGF0aCBpZD0icGF0aDMxMTc5MCIgaW5rc2NhcGU6Y29ubmVjdG9yLWN1cnZhdHVyZT0iMCIgc3R5bGU9ImZpbGw6I0NFOUM1RTsiIGQ9Ik0yLjI1LDQ1LjQyYzAuNjgsMC40MiwwLjg2LDEuMjgsMC40OSwxLjk5ICAgICBjLTAuNDIsMC42NC0xLjMzLDAuODYtMi4wMSwwLjQ1QzAsNDcuNDktMC4xOSw0Ni41OCwwLjIsNDUuOTFDMC42NSw0NS4xOSwxLjUyLDQ0Ljk2LDIuMjUsNDUuNDJ6Ii8+JiN4YTsJCTwvZz4mI3hhOwkJPGcgaWQ9InNoYXBlNzA5OC02NiIgdHJhbnNmb3JtPSJ0cmFuc2xhdGUoMC43Nzk1OTEsLTI3LjYzNDEpIj4mI3hhOwkJCTx0aXRsZSBpZD0idGl0bGUzMTE3OTMiPlNoZWV0LjcwOTg8L3RpdGxlPiYjeGE7CQkJPHBhdGggaWQ9InBhdGgzMTE3OTUiIGlua3NjYXBlOmNvbm5lY3Rvci1jdXJ2YXR1cmU9IjAiIHN0eWxlPSJmaWxsOiNDRTlDNUU7IiBkPSJNNi4yMiw0OC4wN2wwLjM5LTEuODNsLTUuMTMtMy40M0wwLDQ1LjE2ICAgICBMNi4yMiw0OC4wN3oiLz4mI3hhOwkJPC9nPiYjeGE7CQk8ZyBpZD0ic2hhcGU3MDk5LTY4IiB0cmFuc2Zvcm09InRyYW5zbGF0ZSgxLjE2ODQ3LC0zMi4zMDQ2KSI+JiN4YTsJCQk8dGl0bGUgaWQ9InRpdGxlMzExNzk4Ij5TaGVldC43MDk5PC90aXRsZT4mI3hhOwkJCTxwYXRoIGlkPSJwYXRoMzExODAwIiBpbmtzY2FwZTpjb25uZWN0b3ItY3VydmF0dXJlPSIwIiBzdHlsZT0iZmlsbDojRTZFN0U4OyIgZD0iTTAsNDUuOTVsMy4yMSwyLjEybDMuNC0zLjk4bC0yLjczLTEuNjdIMi40MiAgICAgTDAsNDUuOTV6Ii8+JiN4YTsJCTwvZz4mI3hhOwkJPGcgaWQ9InNoYXBlNzEwMC03MCIgdHJhbnNmb3JtPSJ0cmFuc2xhdGUoMTIuODM0OCwtMzEuMTM3KSI+JiN4YTsJCQk8dGl0bGUgaWQ9InRpdGxlMzExODAzIj5TaGVldC43MTAwPC90aXRsZT4mI3hhOwkJCTxwYXRoIGlkPSJwYXRoMzExODA1IiBpbmtzY2FwZTpjb25uZWN0b3ItY3VydmF0dXJlPSIwIiBzdHlsZT0iZmlsbDojQ0U5QzVFOyIgZD0iTTYuMjIsNDYuNzVsLTIuMzQsMS4zMkwwLDQzLjU0bDMuMTEtMi4yOCAgICAgTDYuMjIsNDYuNzV6Ii8+JiN4YTsJCTwvZz4mI3hhOwkJPGcgaWQ9InNoYXBlNzEwMS03MiIgdHJhbnNmb3JtPSJ0cmFuc2xhdGUoMTIuMzI5MSwtMzQuOTA3NSkiPiYjeGE7CQkJPHRpdGxlIGlkPSJ0aXRsZTMxMTgwOCI+U2hlZXQuNzEwMTwvdGl0bGU+JiN4YTsJCQk8cGF0aCBpZD0icGF0aDMxMTgxMCIgaW5rc2NhcGU6Y29ubmVjdG9yLWN1cnZhdHVyZT0iMCIgc3R5bGU9ImZpbGw6I0U2RTdFODsiIGQ9Ik0zLjYsNDQuOTFjLTAuNjYtMC44Ni0xLjg1LTEuMDUtMi43OS0wLjQxICAgICBjLTAuODksMC42Ny0xLjA4LDEuODYtMC40LDIuNzdjMC42MywwLjg4LDEuODYsMS4wNywyLjc2LDAuNDNDNC4wMiw0Ny4wNyw0LjIsNDUuODQsMy42LDQ0LjkxeiIvPiYjeGE7CQk8L2c+JiN4YTsJCTxnIGlkPSJzaGFwZTcxMDItNzQiIHRyYW5zZm9ybT0idHJhbnNsYXRlKDEzLjIyMzYsLTIyLjcwMSkiPiYjeGE7CQkJPHRpdGxlIGlkPSJ0aXRsZTMxMTgxMyI+U2hlZXQuNzEwMjwvdGl0bGU+JiN4YTsJCQk8cGF0aCBpZD0icGF0aDMxMTgxNSIgaW5rc2NhcGU6Y29ubmVjdG9yLWN1cnZhdHVyZT0iMCIgc3R5bGU9ImZpbGw6I0NEOUI1RTsiIGQ9Ik0zLjI5LDQ1LjEzYy0wLjE4LDEuMi0wLjQ3LDEuNTMtMS4xNCwyLjMgICAgIGMtMC40LDAuNDctMC42OCwwLjQ3LTAuNjQsMC4xOGMtMC4yNiwwLjU1LTAuOSwwLjU4LTAuNzIsMC4yMmMtMC4xMSwwLjA3LTAuNDMsMC4yNS0wLjU3LDAuMDdjLTAuMTUtMC4xMSwwLjExLTAuNCwwLjIyLTAuNDcgICAgIGMtMC4yMi0wLjA3LTAuMzctMC4yOSwwLTAuNjJjMC4yNC0wLjI2LDAuMzEtMC41NSwwLjMxLTAuNTVDMC4zMyw0Ni40NCwwLjA0LDQ2LjMzLDAsNDYuMTFjMC40LTAuMjUsMC44My0wLjg3LDEuMjktMS4yICAgICBjMC4xMS0wLjA3LDAuMjItMC4xNSwwLjMzLTAuMThjMC44NS0yLjU3LDAuODUtMi41NywwLjg1LTIuNTdjMS40MiwxLjM2LDEuNDIsMS4zNiwxLjQyLDEuMzZMMy4yOSw0NS4xM3oiLz4mI3hhOwkJPC9nPiYjeGE7CQk8ZyBpZD0ic2hhcGU3MTAzLTc2IiB0cmFuc2Zvcm09InRyYW5zbGF0ZSgxNy4wODA3LC0zMC43MjEyKSI+JiN4YTsJCQk8dGl0bGUgaWQ9InRpdGxlMzExODE4Ij5TaGVldC43MTAzPC90aXRsZT4mI3hhOwkJCTxwYXRoIGlkPSJwYXRoMzExODIwIiBpbmtzY2FwZTpjb25uZWN0b3ItY3VydmF0dXJlPSIwIiBzdHlsZT0iZmlsbDojQ0U5QzVFOyIgZD0iTTAuNTIsNDUuODZjLTAuNSwwLjM0LTAuNjgsMS4xMS0wLjM1LDEuNjYgICAgIGMwLjMxLDAuNTMsMC45OSwwLjcyLDEuNTMsMC4zOGMwLjUzLTAuMzEsMC42Ni0xLjA0LDAuMzUtMS42MUMxLjczLDQ1LjcxLDEuMDUsNDUuNTEsMC41Miw0NS44NnoiLz4mI3hhOwkJPC9nPiYjeGE7CQk8ZyBpZD0ic2hhcGU3MTA0LTc4IiB0cmFuc2Zvcm09InRyYW5zbGF0ZSgxNC45NzM2LC0yNS40OTM0KSI+JiN4YTsJCQk8dGl0bGUgaWQ9InRpdGxlMzExODIzIj5TaGVldC43MTA0PC90aXRsZT4mI3hhOwkJCTxwYXRoIGlkPSJwYXRoMzExODI1IiBpbmtzY2FwZTpjb25uZWN0b3ItY3VydmF0dXJlPSIwIiBzdHlsZT0iZmlsbDojQ0U5QzVFOyIgZD0iTTEuNTEsNDguMDdMMCw0Ni44OWwxLjctNi4wMmwyLjU4LDEuMDYgICAgIEwxLjUxLDQ4LjA3eiIvPiYjeGE7CQk8L2c+JiN4YTsJCTxnIGlkPSJzaGFwZTcxMDUtODAiIHRyYW5zZm9ybT0idHJhbnNsYXRlKDExLjg2MjYsLTMyLjQ5OTMpIj4mI3hhOwkJCTx0aXRsZSBpZD0idGl0bGUzMTE4MjgiPlNoZWV0LjcxMDU8L3RpdGxlPiYjeGE7CQkJPHBhdGggaWQ9InBhdGgzMTE4MzAiIGlua3NjYXBlOmNvbm5lY3Rvci1jdXJ2YXR1cmU9IjAiIHN0eWxlPSJmaWxsOiNFNkU3RTg7IiBkPSJNNi40Miw0NmwtMy4wOCwyLjA3TDAsNDQuMjZsMi42NC0xLjY0aDEuNDcgICAgIEw2LjQyLDQ2eiIvPiYjeGE7CQk8L2c+JiN4YTsJPC9nPiYjeGE7PC9nPiYjeGE7PC9zdmc+;" parent="1" vertex="1">
          <mxGeometry x="127.75999999999999" y="40" width="27" height="68" as="geometry" />
        </mxCell>
        <mxCell id="qhazRgXepDI2F2iA60wV-1" value="" style="rounded=0;whiteSpace=wrap;html=1;fillColor=#EAEDED;fontSize=22;fontColor=#FFFFFF;strokeColor=none;labelBackgroundColor=none;" parent="1" vertex="1">
          <mxGeometry x="1000" y="162" width="539" height="843" as="geometry" />
        </mxCell>
        <mxCell id="qhazRgXepDI2F2iA60wV-11" value="Script python se conecta na binance através das credenciais de chave API, calcula dos indicadores de tendência como médias móveis simples e exponenciais, RSI, MACD, Bollinger Bands. Além de fazer a analise técnica baseada nesses indicadores, também utiliza a bilbioteca de IA Prophet para fazer previsões futuras de preço baseado-se série histórica de preço de determinado ativo. Tomando descição de compra ou venda." style="text;html=1;align=left;verticalAlign=top;spacingTop=-4;fontSize=14;labelBackgroundColor=none;whiteSpace=wrap;" parent="1" vertex="1">
          <mxGeometry x="1069.5" y="173.5" width="449" height="118" as="geometry" />
        </mxCell>
        <mxCell id="qhazRgXepDI2F2iA60wV-12" value="&lt;span&gt;Lorem ipsum dolor sit amet, consectetur adipiscing elit, sed do eiusmod tempor incididunt ut labore et dolore magna aliqua. Ut enim ad minim veniam, quis nostrud exercitation ullamco laboris nisi ut aliquip ex ea commodo consequat. Duis aute irure dolor in reprehenderit in voluptate velit esse cillum dolore eu fugiat nulla pariatur. Excepteur sint occaecat cupidatat non proident, sunt in culpa qui officia deserunt mollit anim id est laborum.&lt;/span&gt;&lt;br&gt;" style="text;html=1;align=left;verticalAlign=top;spacingTop=-4;fontSize=14;labelBackgroundColor=none;whiteSpace=wrap;" parent="1" vertex="1">
          <mxGeometry x="1068.5" y="296.5" width="450" height="115" as="geometry" />
        </mxCell>
        <mxCell id="qhazRgXepDI2F2iA60wV-13" value="&lt;span&gt;Lorem ipsum dolor sit amet, consectetur adipiscing elit, sed do eiusmod tempor incididunt ut labore et dolore magna aliqua. Ut enim ad minim veniam, quis nostrud exercitation ullamco laboris nisi ut aliquip ex ea commodo consequat. Duis aute irure dolor in reprehenderit in voluptate velit esse cillum dolore eu fugiat nulla pariatur. Excepteur sint occaecat cupidatat non proident, sunt in culpa qui officia deserunt mollit anim id est laborum.&lt;/span&gt;&lt;br&gt;" style="text;html=1;align=left;verticalAlign=top;spacingTop=-4;fontSize=14;labelBackgroundColor=none;whiteSpace=wrap;" parent="1" vertex="1">
          <mxGeometry x="1068.5" y="414.5" width="450" height="117" as="geometry" />
        </mxCell>
        <mxCell id="qhazRgXepDI2F2iA60wV-14" value="&lt;span&gt;Lorem ipsum dolor sit amet, consectetur adipiscing elit, sed do eiusmod tempor incididunt ut labore et dolore magna aliqua. Ut enim ad minim veniam, quis nostrud exercitation ullamco laboris nisi ut aliquip ex ea commodo consequat. Duis aute irure dolor in reprehenderit in voluptate velit esse cillum dolore eu fugiat nulla pariatur. Excepteur sint occaecat cupidatat non proident, sunt in culpa qui officia deserunt mollit anim id est laborum.&lt;/span&gt;&lt;br&gt;" style="text;html=1;align=left;verticalAlign=top;spacingTop=-4;fontSize=14;labelBackgroundColor=none;whiteSpace=wrap;" parent="1" vertex="1">
          <mxGeometry x="1068.5" y="530.5" width="450" height="121" as="geometry" />
        </mxCell>
        <mxCell id="qhazRgXepDI2F2iA60wV-15" value="&lt;span&gt;Lorem ipsum dolor sit amet, consectetur adipiscing elit, sed do eiusmod tempor incididunt ut labore et dolore magna aliqua. Ut enim ad minim veniam, quis nostrud exercitation ullamco laboris nisi ut aliquip ex ea commodo consequat. Duis aute irure dolor in reprehenderit in voluptate velit esse cillum dolore eu fugiat nulla pariatur. Excepteur sint occaecat cupidatat non proident, sunt in culpa qui officia deserunt mollit anim id est laborum.&lt;/span&gt;&lt;br&gt;" style="text;html=1;align=left;verticalAlign=top;spacingTop=-4;fontSize=14;labelBackgroundColor=none;whiteSpace=wrap;" parent="1" vertex="1">
          <mxGeometry x="1069.5" y="647.5" width="449" height="114" as="geometry" />
        </mxCell>
        <mxCell id="qhazRgXepDI2F2iA60wV-16" value="&lt;span&gt;Lorem ipsum dolor sit amet, consectetur adipiscing elit, sed do eiusmod tempor incididunt ut labore et dolore magna aliqua. Ut enim ad minim veniam, quis nostrud exercitation ullamco laboris nisi ut aliquip ex ea commodo consequat. Duis aute irure dolor in reprehenderit in voluptate velit esse cillum dolore eu fugiat nulla pariatur. Excepteur sint occaecat cupidatat non proident, sunt in culpa qui officia deserunt mollit anim id est laborum.&lt;/span&gt;&lt;br&gt;" style="text;html=1;align=left;verticalAlign=top;spacingTop=-4;fontSize=14;labelBackgroundColor=none;whiteSpace=wrap;" parent="1" vertex="1">
          <mxGeometry x="1069.5" y="763.5" width="450" height="118" as="geometry" />
        </mxCell>
        <mxCell id="qhazRgXepDI2F2iA60wV-17" value="&lt;span&gt;Lorem ipsum dolor sit amet, consectetur adipiscing elit, sed do eiusmod tempor incididunt ut labore et dolore magna aliqua. Ut enim ad minim veniam, quis nostrud exercitation ullamco laboris nisi ut aliquip ex ea commodo consequat. Duis aute irure dolor in reprehenderit in voluptate velit esse cillum dolore eu fugiat nulla pariatur. Excepteur sint occaecat cupidatat non proident, sunt in culpa qui officia deserunt mollit anim id est laborum.&lt;/span&gt;&lt;br&gt;" style="text;html=1;align=left;verticalAlign=top;spacingTop=-4;fontSize=14;labelBackgroundColor=none;whiteSpace=wrap;" parent="1" vertex="1">
          <mxGeometry x="1069.5" y="878.5" width="449" height="113" as="geometry" />
        </mxCell>
        <mxCell id="qhazRgXepDI2F2iA60wV-22" value="1" style="ellipse;whiteSpace=wrap;html=1;aspect=fixed;fillColor=#4D9900;strokeColor=none;labelBackgroundColor=none;" parent="1" vertex="1">
          <mxGeometry x="1020.0000000000001" y="180" width="23" height="23" as="geometry" />
        </mxCell>
        <mxCell id="qhazRgXepDI2F2iA60wV-23" value="2" style="ellipse;whiteSpace=wrap;html=1;aspect=fixed;fillColor=#4D9900;strokeColor=none;labelBackgroundColor=none;" parent="1" vertex="1">
          <mxGeometry x="1020.0000000000001" y="301" width="23" height="23" as="geometry" />
        </mxCell>
        <mxCell id="qhazRgXepDI2F2iA60wV-24" value="3" style="ellipse;whiteSpace=wrap;html=1;aspect=fixed;fillColor=#4D9900;strokeColor=none;labelBackgroundColor=none;" parent="1" vertex="1">
          <mxGeometry x="1020.0000000000001" y="422" width="23" height="23" as="geometry" />
        </mxCell>
        <mxCell id="qhazRgXepDI2F2iA60wV-25" value="4" style="ellipse;whiteSpace=wrap;html=1;aspect=fixed;fillColor=#4D9900;strokeColor=none;labelBackgroundColor=none;" parent="1" vertex="1">
          <mxGeometry x="1019.9999999999997" y="539" width="23" height="23" as="geometry" />
        </mxCell>
        <mxCell id="qhazRgXepDI2F2iA60wV-26" value="5" style="ellipse;whiteSpace=wrap;html=1;aspect=fixed;fillColor=#4D9900;strokeColor=none;labelBackgroundColor=none;" parent="1" vertex="1">
          <mxGeometry x="1019.9999999999997" y="651.5" width="23" height="23" as="geometry" />
        </mxCell>
        <mxCell id="qhazRgXepDI2F2iA60wV-27" value="6" style="ellipse;whiteSpace=wrap;html=1;aspect=fixed;fillColor=#4D9900;strokeColor=none;labelBackgroundColor=none;" parent="1" vertex="1">
          <mxGeometry x="1019.9999999999997" y="773" width="23" height="23" as="geometry" />
        </mxCell>
        <mxCell id="qhazRgXepDI2F2iA60wV-28" value="7" style="ellipse;whiteSpace=wrap;html=1;aspect=fixed;fillColor=#4D9900;strokeColor=none;labelBackgroundColor=none;" parent="1" vertex="1">
          <mxGeometry x="1020.0000000000001" y="881.5" width="23" height="23" as="geometry" />
        </mxCell>
        <mxCell id="g8Hrz8pBSeV4qm7vl3dj-1" value="" style="shape=image;verticalLabelPosition=bottom;labelBackgroundColor=default;verticalAlign=top;aspect=fixed;imageAspect=0;image=data:image/png,iVBORw0KGgoAAAANSUhEUgAAB3sAAAQzCAYAAABquEbuAAAAAXNSR0IArs4c6QAAAARnQU1BAACxjwv8YQUAAAAJcEhZcwAADsMAAA7DAcdvqGQAAEEtSURBVHhe7N07bhzHwobhtqhDCd6BoUCrIMAdMHIk5QQUeBkKtAwHBJhTkSPtgIBWoUBbMHQjeYJmi9SYl7lUddfX/TyAgeP5gd/smZqemn6nun67uvrjqgMAAAAAAAAgypPVBwAAAAAAAABon9gLAAAAAAAAEEjsBQAAAAAAAAgk9gIAAAAAAAAEEnsBAAAAAAAAAom9AAAAAAAAAIHEXgAAAAAAAIBAYi8AAAAAAABAILEXAAAAAAAAIJDYCwAAAAAAABBI7AUAAAAAAAAIJPYCAAAAAAAABBJ7AQAAAAAAAAKJvQAAAAAAAACBxF4AAAAAAACAQGIvAAAAAAAAQCCxFwAAAAAAACCQ2AsAAAAAAAAQSOwFAAAAAAAACCT2AgAAAAAAAAQSewEAAAAAAAACib0AAAAAAAAAgcReAAAAAAAAgEBiLwAAAAAAAEAgsRcAAAAAAAAgkNgLAAAAAAAAEEjsBQAAAAAAAAgk9gIAAAAAAAAEEnsBAAAAAAAAAom9AAAAAAAAAIHEXgAAAAAAAIBAYi8AAAAAAABAILEXAAAAAAAAIJDYCwAAAAAAABBI7AUAAAAAAAAIJPYCAAAAAAAABBJ7AQAAAAAAAAKJvQAAAAAAAACBxF4AAAAAAACAQGIvAAAAAAAAQCCxFwAAAAAAACCQ2AsAAAAAAAAQSOwFAAAAAAAACCT2AgAAAAAAAAQSewEAAAAAAAACib0AAAAAAAAAgcReAAAAAAAAgEBiLwAAAAAAAEAgsRcAAAAAAAAgkNgLAAAAAAAAEEjsBQAAAAAAAAgk9gIAAAAAAAAEEnsBAAAAAAAAAom9AAAAAAAAAIHEXgAAAAAAAIBAYi8AAAAAAABAILEXAAAAAAAAIJDYCwAAAAAAABBI7AUAAAAAAAAIJPYCAAAAAAAABBJ7AQAAAAAAAAKJvQAAAAAAAACBxF4AAAAAAACAQGIvAAAAAAAAQCCxFwAAAAAAACCQ2AsAAAAAAAAQSOwFAAAAAAAACCT2AgAAAAAAAAQSewEAAAAAAAACib0AAAAAAAAAgcReAAAAAAAAgEBiLwAAAAAAAEAgsRcAAAAAAAAgkNgLAAAAAAAAEEjsBQAAAAAAAAgk9gIAAAAAAAAEEnsBAAAAAAAAAom9AAAAAAAAAIHEXgAAAAAAAIBAYi8AAAAAAABAILEXAAAAAAAAIJDYCwAAAAAAABBI7AUAAAAAAAAIJPYCAAAAAAAABBJ7AQAAAAAAAAKJvQAAAAAAAACBxF4AAAAAAACAQGIvAAAAAAAAQCCxFwAAAAAAACCQ2AsAAAAAAAAQSOwFAAAAAAAACCT2AgAAAAAAAAQSewEAAAAAAAACib0AAAAAAAAAgcReAAAAAAAAgEBiLwAAAAAAAEAgsRcAAAAAAAAgkNgLAAAAAAAAEEjsBQAAAAAAAAgk9gIAAAAAAAAEEnsBAAAAAAAAAom9AAAAAAAAAIHEXgAAAAAAAIBAYi8AAAAAAABAILEXAAAAAAAAIJDYCwAAAAAAABBI7AUAAAAAAAAIJPYCAAAAAAAABBJ7AQAAAAAAAAKJvQAAAAAAAACBxF4AAAAAAACAQGIvAAAAAAAAQCCxFwAAAAAAACCQ2AsAAAAAAAAQSOwFAAAAAAAACCT2AgAAAAAAAAQSewEAAAAAAAACib0AAAAAAAAAgcReAAAAAAAAgEBiLwAAAAAAAEAgsRcAAAAAAAAgkNgLAAAAAAAAEEjsBQAAAAAAAAgk9gIAAAAAAAAEEnsBAAAAAAAAAom9AAAAAAAAAIHEXgAAAAAAAIBAYi8AAAAAAABAILEXAAAAAAAAIJDYCwAAAAAAABBI7AUAAAAAAAAIJPYCAAAAAAAABBJ7AQAAAAAAAAKJvQAAAAAAAACBxF4AAAAAAACAQGIvAAAAAAAAQCCxFwAAAAAAACCQ2AsAAAAAAAAQSOwFAAAAAAAACCT2AgAAAAAAAAQSewEAAAAAAAACib0AAAAAAAAAgcReAAAAAAAAgEBiLwAAAAAAAEAgsRcAAAAAAAAgkNgLAAAAAAAAEEjsBQAAAAAAAAgk9gIAAAAAAAAEEnsBAAAAAAAAAom9AAAAAAAAAIHEXgAAAAAAAIBAYi8AAAAAAABAILEXAAAAAAAAIJDYCwAAAAAAABBI7AUAAAAAAAAIJPYCAAAAAAAABBJ7AQAAAAAAAAKJvQAAAAAAAACBxF4AAAAAAACAQGIvAAAAAAAAQCCxFwAAAAAAACCQ2AsAAAAAAAAQSOwFAAAAAAAACCT2AgAAAAAAAAQSewEAAAAAAAACib0AAAAAAAAAgcReAAAAAAAAgEBiLwAAAAAAAEAgsRcAAAAAAAAgkNgLAAAAAAAAEEjsBQAAAAAAAAgk9gIAAAAAAAAEEnsBAAAAAAAAAom9AAAAAAAAAIHEXgAAAAAAAIBAYi8AAAAAAABAILEXAAAAAAAAIJDYCwAAAAAAABBI7AUAAAAAAAAIJPYCAAAAAAAABBJ7AQAAAAAAAAKJvQAAAAAAAACBxF4AAAAAAACAQGIvAAAAAAAAQCCxFwAAAAAAACCQ2AsAAAAAAAAQSOwFAAAAAAAACCT2AgAAAAAAAAQSewEAAAAAAAACib0AAAAAAAAAgcReAAAAAAAAgEBiLwAAAAAAAEAgsRcAAAAAAAAgkNgLAAAAAAAAEEjsBQAAAAAAAAgk9gIAAAAAAAAEEnsBAAAAAAAAAom9AAAAAAAAAIHEXgAAAAAAAIBAYi8AAAAAAABAILEXAAAAAAAAIJDYCwAAAAAAABBI7AUAAAAAAAAIJPYCAAAAAAAABBJ7AQAAAAAAAAKJvQAAAAAAAACBxF4AAAAAAACAQGIvAAAAAAAAQCCxFwAAAAAAACCQ2AsAAAAAAAAQSOwFAAAAAAAACCT2AgAAAAAAAAQSewEAAAAAAAACib0AAAAAAAAAgcReAAAAAAAAgEBiLwAAAAAAAEAgsRcAAAAAAAAgkNgLAAAAAAAAEEjsBQAAAAAAAAgk9gIAAAAAAAAEEnsBAAAAAAAAAom9AAAAAAAAAIHEXgAAAAAAAIBAYi8AAAAAAABAILEXAAAAAAAAIJDYCwAAAAAAABBI7AUAAAAAAAAIJPYCAAAAAAAABBJ7AQAAAAAAAAKJvQAAAAAAAACBxF4AAAAAAACAQGIvAAAAAAAAQCCxFwAAAAAAACCQ2AsAAAAAAAAQSOwFAAAAAAAACCT2AgAAAAAAAAQSewEAAAAAAAACib0AAAAAAAAAgcReAAAAAAAAgEBiLwAAAAAAAEAgsRcAAAAAAAAgkNgLAAAAAAAAEEjsBQAAAAAAAAgk9gIAAAAAAAAEEnsBAAAAAAAAAom9AAAAAAAAAIHEXgAAAAAAAIBAYi8AAAAAAABAILEXAAAAAAAAIJDYCwAAAAAAABBI7AUAAAAAAAAIJPYCAAAAAAAABBJ7AQAAAAAAAAKJvQAAAAAAAACBxF4AAAAAAACAQGIvAAAAAAAAQCCxFwAAAAAAACCQ2AsAAAAAAAAQSOwFAAAAAAAACCT2AgAAAAAAAAQSewEAAAAAAAACib0AAAAAAAAAgcReAAAAAAAAgEBiLwAAAAAAAEAgsRcAAAAAAAAgkNgLAAAAAAAAEEjsBQAAAAAAAAgk9gIAAAAAAAAEEnsBAAAAAAAAAom9AAAAAAAAAIHEXgAAAAAAAIBAYi8AAAAAAABAILEXAAAAAAAAIJDYCwAAAAAAABBI7AUAAAAAAAAIJPYCAAAAAAAABBJ7AQAAAAAAAAKJvQAAAAAAAACBxF4AAAAAAACAQGIvAAAAAAAAQCCxFwAAAAAAACCQ2AsAAAAAAAAQSOwFAAAAAAAACCT2AgAAAAAAAAQSewEAAAAAAAACib0AAAAAAAAAgcReAAAAAAAAgEBiLwAAAAAAAEAgsRcAAAAAAAAgkNgLAAAAAAAAEEjsBQAAAAAAAAgk9gIAAAAAAAAEEnsBAAAAAAAAAom9AAAAAAAAAIHEXgAAAAAAAIBAYi8AAAAAAABAILEXAAAAAAAAIJDYCwAAAAAAABBI7AUAAAAAAAAIJPYCAAAAAAAABBJ7AQAAAAAAAAKJvQAAAAAAAACBxF4AAAAAAACAQGIvAAAAAAAAQCCxFwAAAAAAACCQ2AsAAAAAAAAQSOwFAAAAAAAACCT2AgAAAAAAAAQSewEAAAAAAAACib0AAAAAAAAAgcReAAAAAAAAgEBiLwAAAAAAAEAgsRcAAAAAAAAgkNgLAAAAAAAAEEjsBQAAAAAAAAgk9gIAAAAAAAAEEnsBAAAAAAAAAom9AAAAAAAAAIHEXgAAAAAAAIBAYi8AAAAAAABAILEXAAAAAAAAIJDYCwAAAAAAABBI7AUAAAAAAAAIJPYCAAAAAAAABBJ7AQAAAAAAAAKJvQAAAAAAAACBxF4AAAAAAACAQGIvAAAAAAAAQCCxFwAAAAAAACCQ2AsAAAAAAAAQSOwFAAAAAAAACCT2AgAAAAAAAAQSewEAAAAAAAACib0AAAAAAAAAgcReAAAAAAAAgEBiLwAAAAAAAEAgsRcAAAAAAAAgkNgLAAAAAAAAEEjsBQAAAAAAAAgk9gIAAAAAAAAEEnsBAAAAAAAAAom9AAAAAAAAAIHEXgAAAAAAAIBAYi8AAAAAAABAILEXAAAAAAAAIJDYCwAAAAAAABBI7AUAAAAAAAAIJPYCAAAAAAAABBJ7AQAAAAAAAAKJvQAAAAAAAACBxF4AAAAAAACAQGIvAAAAAAAAQCCxFwAAAAAAACCQ2AsAAAAAAAAQSOwFAAAAAAAACCT2AgAAAAAAAAQSewEAAAAAAAACib0AAAAAAAAAgcReAAAAAAAAgEBiLwAAAAAAAEAgsRcAAAAAAAAgkNgLAAAAAAAAEEjsBQAAAAAAAAgk9gIAAAAAAAAEEnsBAAAAAAAAAom9AAAAAAAAAIHEXgAAAAAAAIBAYi8AAAAAAABAILEXAAAAAAAAIJDYCwAAAAAAABBI7AUAAAAAAAAIJPYCAAAAAAAABBJ7AQAAAAAAAAKJvQAAAAAAAACBxF4AAAAAAACAQGIvAAAAAAAAQCCxFwAAAAAAACCQ2AsAAAAAAAAQSOwFAAAAAAAACCT2AgAAAAAAAAQSewEAAAAAAAACib0AAAAAAAAAgcReAAAAAAAAgEBiLwAAAAAAAEAgsRcAAAAAAAAgkNgLAAAAAAAAEEjsBQAAAAAAAAgk9gIAAAAAAAAEEnsBAAAAAAAAAom9AAAAAAAAAIHEXgAAAAAAAIBAYi8AAAAAAABAILEXAAAAAAAAIJDYCwAAAAAAABBI7AUAAAAAAAAIJPYCAAAAAAAABBJ7AQAAAAAAAAKJvQAAAAAAAACBxF4AAAAAAACAQGIvAAAAAAAAQCCxFwAAAAAAACCQ2AsAAAAAAAAQSOwFAAAAAAAACCT2AgAAAAAAAAQSewEAAAAAAAACib0AAAAAAAAAgcReAAAAAAAAgEBiLwAAAAAAAEAgsRcAAAAAAAAgkNgLAAAAAAAAEEjsBQAAAAAAAAgk9gIAAAAAAAAEEnsBAAAAAAAAAom9AAAAAAAAAIHEXgAAAAAAAIBAYi8AAAAAAABAILEXAAAAAAAAIJDYCwAAAAAAABBI7AUAAAAAAAAIJPYCAAAAAAAABBJ7AQAAAAAAAAKJvQAAAAAAAACBxF4AAAAAAACAQGIvAAAAAAAAQCCxFwAAAAAAACCQ2AsAAAAAAAAQSOwFAAAAAAAACCT2AgAAAAAAAAQSewEAAAAAAAACib0AAAAAAAAAgcReAAAAAAAAgEBiLwAAAAAAAEAgsRcAAAAAAAAgkNgLAAAAAAAAEEjsBQAAAAAAAAgk9gIAAAAAAAAEEnsBAAAAAAAAAom9AAAAAAAAAIHEXgAAAAAAAIBAYi8AAAAAAABAILEXAAAAAAAAIJDYCwAAAAAAABBI7AUAAAAAAAAIJPYCAAAAAAAABBJ7AQAAAAAAAAKJvQAAAAAAAACBxF4AAAAAAACAQGIvAAAAAAAAQCCxFwAAAAAAACCQ2AsAAAAAAAAQSOwFAAAAAAAACCT2AgAAAAAAAAQSewEAAAAAAAACib0AAAAAAAAAgcReAAAAAAAAgEBiLwAAAAAAAEAgsRcAAAAAAAAgkNgLAAAAAAAAEEjsBQAAAAAAAAgk9gIAAAAAAAAEEnsBAAAAAAAAAom9AACs7fx0vzs/3V99GAAAAACYgNgLAMBazk/3u1dvn3av3j4VfAEAAACgAWIvAACPGkLvQPAFAAAAgOmJvQAAPGg19A4EXwAAAACYltgLAMC97gu9A8EXAAAAAKYj9gIAcKfHQu9A8AUAAACAaYi9AAD8x7qhdyD4AgAAAMD4xF4AAH6xaegdCL4AAAAAMC6xFwCAn7YNvQPBFwAAAADGI/YCANB1BULvQPAFAAAAgHGIvQAAFAu9A8EXAAAAAOoTewEAFq506B0IvgAAAABQl9gLALBgtULvQPAFAAAAgHrEXgCAhaodegeCLwAAAADUIfYCACzQWKF3IPgCAAAAQHliLwDAwowdegeCLwAAAACUJfYCACzIVKF3IPgCAAAAQDliLwDAQkwdegeCLwAAAACUIfYCACxAK6F3IPgCAAAAwO7EXgCAmWst9A4EXwAAAADYjdgLADBjrYbegeALAAAAANsTewEAZqr10DsQfAEAAABgO2IvAMAMpYTegeALAAAAAJsTewEAZiYt9A4EXwAAAADYjNgLADAjqaF3IPgCAAAAwPrEXgCAmUgPvQPBFwAAAADWI/YCAMzAXELvQPAFAAAAgMeJvQAA4eYWegeCLwAAAAA8TOwFAAg219A7EHwBAAAA4H5iLwBAqLmH3oHgCwAAAAB3E3sBAAItJfQOBF8AAAAA+C+xFwAgzNJC70DwBQAAAIBf/XZ19cfV6oMAALRpqaH3tvfvfnSHx99WHwYAWNPeL/92fnrz74fHF7/837pu9d8BAKAtYi8AQAih94bgC7CpX+PWdkQv0uz9DLl//9Pf3O7Dx+1ucnd0cNl1Xdf99efldRD2fgAAoA1iLwBAgFZC73Chc9sLpSUJvps5P93/eaG7VX/92Y+vQerF9FLPdR8U6o7xN6+frz60sZOz782+TiWOr2v8GNdR6jPk86ev0c9DV2hMtDweShxf13XdydmX1YeC9IG3xJh/zNHBZTPxt9RnT6KW35MAAGMQewEAGlfqIv2ujg4uf178ffP6ueAbppXXbFstXVB/TKnneozx/eLl76sPbez2uaE1JY6vm0HkTBqTtZUYE8sY8/+uPtS48QLvQ/r3yDSfU63MF6eQfo4GANjV7t/2AACoppULd6sXtk/Ovvxc5TulV2+fduen+6sPM0MfPj7pXr192r14+ax78/r59ete4ra07OrDxyfeh03bKxJ6u+tzLsZ8S85P97s3r593L14+a2J8/vdzCgAA6ivzjQ8AgOJaDb0DwZep3A6/om8bvA/bNexXWorXuWfMT+v8dL978fL37tXbp8V+zFDS8Dkl+gIAMIb2ZsQAADQfegeCL1MTfdvRn7O8Bm0pf1vbpe4Jehdjfny3I2+C29HXWAEAoBbf0gAAGpMSegeCLy3oL6b/zxiY2JvX/1t9iAmVXtXbXccr0eqGMT+Wve7N6+dNzI+28eHjk1s/TAIAgLLEXgCAhqSF3oHgSwuGFVTGwHTsZdqWWqtwBc4bxnx9/WreZ03ernlT/d0ofveDCQAAisqfKQMAzERq6B0IvrTCGJiW578N56f71eJYrf+/qYz5epJX8z7EKl8AAEryDQ0AoAHpoXcg+NIKY2Ba/fnMyrUp1VrVO/D++pUxX1p/2+Y5/7DA5xQAAKXMd9YMABBiLqF3IPjSCmNgWi9ePlt9iNHsVY9kLXxutcbtrUvZm81tmx/z6u3T7s3r56sPAwDARuY/cwYAaNjcQu/g5Ox7M8HXRdRls9puWt5/0zg/HWfM+zHFrz58fGLM7+j8en/eJfnw8Yl9fAEA2InYCwAwkbmG3t5FMyt8P3x8IkgsnNV20/H+m8LeaJ8ttW8VnciY314r86Kp+KwCAGBbvpkBAExivIvxD6kTem+0Enyt7lw28WVa3n/jGmtVb3f93vLa/pcxv4025kVTOjn7vvoQAACsRewFAJjERff+3Y/VB0dVO/QOWgi+/XN9sfowC2IF4rT6FWvi1xjGHutWI95tabci3s3e4seReQoAALsY91sgAAA/HR5/myz4jhV6B1MG3/fvfnSHx99WH2ZhrECcVr+X6bJjzhjOT/evx/p4xv7vJbF/7zr60LvkcWSeAgDArpY7mwYAaMAUwXfs0DuYIvi6gMptY97elv9yO+36xl7VO/C63s2Yf9z56d6koffo4PLOf8ZingIAQAm/XV39cbX6IAAA4zo/3R9lr7qpQu+N8VbwuID6qzevnxd53ocfJxweX/yMp7v878Hf/zwp8vc9ZKzxX/K5rj2GX7z8ffWh6j5/+jra7UpLHd+Yf/P29ia9dfDnT/+uPtSkUmNiE2OOn1LHN8brOdbc57bbn2HrvSZ73fnpXpXPqNKfSaWez6ODy+6vPy+7v/950v31Zx++W//f/X7H67yeAADzJPYCADSi1EW6+5S+qLiLUjHsPmNEsjSlnvP60aK/sF7rvTBGwCj1XI8xjkuFoU3VH0e9Usc31t+7i9qfIY8ZY7yWUGpMbKL//B0nRpU6vvrnyvF+nFDu+S8XfmvMyUqdA1LeywAA3NhtdgoAQDE1b+l8c6GzDTVv6ewiZbqL7vD4W/f509dKY8StnFtg/97S6v1AYl1/T3QL6QT2rP6vMZ6P9+9+dJ8/fb2OqruG3u7n59PJ2Zfu/bsfW39GtTYnW+W9DACQxwwOAKAhNYJvuRUtZdUIvkLvnFxUGSOrt49mGvYyLauFcd2vdJz+72iVMX/j/HR/55Wxj/n86ev1fKDO3GeX6NvinOy24fbIAADkqDu7BgBgYyWDb6uhd1Ay5gm989Ty6id2069EFQdLaGUl3hirNZMZ872a47VfzfvvaPOePvp+X3velnBLeAAA8tSbYQMAsLUSwbf10DsoEXyF3jm72Pm9QLv6PTvFr93sVV8lua5W/o6WLX3M11zVO91cYL3tB/rPsrbnZAAAZKozwwYAYGe7BN+U0Ds4Ofv+4AXSh0x3cZexeH3nzWrQ3ZR4/o4OLrf+vFnlVsWPK/Gapaq1qreNucDFvfOZNv6+9dR6jQAAqMcMDgCgYdsE37TQ29tuf9aki6fsZtOxQQ57me6izKrev/68LHYu7W9VzEOWOuZrreptay7Qz2duz93a+vseZ89eAIA85WfZAAAUtUnwzQy9NzYJvmkXT4H7vXr7dJHxa1fnp2VuB3x43H9mrHv+fYzX8nFL3L+3xorRVucCw9zt6KDcDykAAOA+5WfaAAALc3663715/bzqRdt1gu8Yoff8dL/6Rfx1gm/9i7t73ZvXz6sfK+MbohbtWWL82s1ekVW0/fm2f1/0nyG7qxH15mhZ+/eWWYV+W+sh9fD4W3dy9mX1YQAAKK7sTBsAYGHOT/e7V2+fdh8+Prneg6/eRduHgu9YoffV26ejrMB7KPiOE3r/1334+GSUY2Vs9d4j7G7Je5luqtSq3l9v2Xpx77l3E33UK/P3zd1Sxnyp8XpbqR8n8Cs/1gAAyGMGBwCwpSF+DqYKvmOG3sEYEfSu4Dtm6B2Mcaw8rsSKsNXxRHuWupfpNkoEmbtWRpbar3MpEXNXSxnzJVah39bPherNe5as1DkAAIDx7P7tEABggVbj52Ds4DtF6B28evv0+vbV9Zycff8Z6KYIvQPBd1qlnnsXsDN4v62jzC1x73pPlDrPlvj7lmL+Y77snOiuHykAAMCS+fYFALCh++LnYMzgO1XoHfTHWjP4XnQnZ18mDb2D+V+Mb1eJFYyd/Xqj9OedeufQdKVWzd73nli9g8S2nDPXN+cxX/oWznf9SAEAAJaszFUTAICFeCx+DsYKvlOG3kH94FtupdndHg+9A8F3fOen+2u9No/pV4jXe79QXqmgOT9lVvU+dBvc+yLwptb5DOHGXMd8yXFgVW99pX5gBQDAeMzgAADWtG78HIwRfGvZ7ljrBt861g+9A8F3PJuOw4dYCVZXqZWgt+WeV+oqtUry4aB7UWyP67meL2uN+fk9X2XG68C5vD7PMQBAnvWvagEALNi20ekm+ObY7VizwsymoXcg+NZ1frrfvXj5+1bj8C5WgtV3eHwhfo2kxPtinZXupYLPXFcJ1hrzPl8e9vCPFAAAYJl+u7r642r1QQAAbmwbP287OrjsTs6+rD7cnCUd65vXz7cKvbfV30u4nBLH23Vd9/nT10cj0fr6FV/DSsW//3lS5G9cVfZvflyp53qM8fXi5e+rD21leI5LHfuqbV/D0sc3tRLn6G6DsTW356+rcEzzHfP/rj60lVJjtguaX0yl1HN9dHBZ7MceNaxz7gIAWBqxFwDgAaUunHUBFymXdKwlL86vG02mVvKYk0zx+pR6rsf428uFoZswVer4b9v2nFLj+KZU6rld93hKfS6MMZbXVX5MbL4dwDqmH/NlYm+pMds1No5aVOr92rJt3xcAAHNXZsYNADBDpS+atXyb4yUda8kLz51bbjZNGJjGydn31Yd21vI5ZTx7Rc5d/a2HHw+9XcFb5pb8fGnPhTEPAABMavdvigAAM1Q6fg5avHi7pGMtHXoHgm97hN4p1dnL9MPC9+8ttf/7ZgH34np/393N+7Uz5u9T8jN3s7ELAADLUW7WDQAwE7Xi56ClCLqkY60VegeCbzuE3ukdHn8rFglv689X/R7Py1JmVW//mmwWzErt3Vnzs6YFxvwYNhu7AACwFLt/WwQAmJHa8XPQQgRd0rHWDr0DwXdaRweX3edPX4XeRpycfakSv168fLa4+HV+WuZ4twm3Zd9PZY6jVbXGfKlV3eMr93rXeF7JM8ZcDgAgkVkSAMC1seLnYMoIuqRjHSv0DgTfabx/96M7Ofti5Vdjauxl2kXHr+38/c/u57Cjg8utw22pWxQv4XWrMean/AyFloj+AAB32/0bIwDADIwdPwdTXMBd0rGOHXoHgu+4bi7+lltFRin2Mt3V+el+kfPYNqt6B6X2Su2PY+7vU2MeAAAY1+7fGAEAwk0VPwdjRtAlHetUoXcg+I7nw8cn3au3T7sXL59dP+dzj0lZDo+/VYlfS9nLtMSq3m7nYHtRbEVdqVtSt8z+vQAAwJjKfGsEAIA17bK6bH1tXAwvFWlYn+jbpm1vH/yY+e/fu1fkRyt9eNwl9pa7PfGUPzgaU639e+c/5uF+Jc6HAABzZJYEACxerVVn6zo6uLzea7S+qY/1/bsf1aLPry6qXWhf180eskzh1dun3ZvX/7O6uiGfP31dfaiIOe8DW2oVbJkf2ewWi29byvuyVCBfNecxDw+Zcl4HANAysRcAYMIIOmboHUx1rOOF3htTBd8pjpX/Gm7vbJVvK+xlupm9Iqtgjw4ui52PSr1+JY4rgzEPAADUJ/YCAFwbO4JOEXoHYx/rlPFz7OA75bFyt2GVr+A7vVrnnjnuZdrWqt5e2XNbmeNrnTEPAADUJvYCANxS66LsqilD72CsY20hfo4VfFs4Vu724eMTwbcRh8ffqrwf57aXaanVr4fH5W6/3BW8jeqSbkVc63Oh/TFfbuzZq5XOOAAAuJdZEgDAitoRtIXQO6h9rC3Fz9rBt6Vj5W43wZep2cv0YaVu0duf38sFt67ga9dHm5ZDZVn2rC5hOeOFu9WcxwEAJBN7AQDuUCuCthR6B7WOtcX4eXL2vcqFwhaPlbvZ67IVF1Xi11xe37//KflVfa/wP+WUulV1hmXu31vyM3dZ4wUAANb329XVH1erDwIA0Ds/3S92K80WQ+9tJY+19fj55vXzYrcCbP1YB6WOuT/esisFB7cv5P/9z5Mif+99+tBY5zjKPtd1x9aLl7+vPrSVbZ/Pkued24bnburj287e9e15l+Hzp39XH6pq6jFRa8wPf0+54yvzupQ83jHOiclKPtclI31pLc+lAQCmIvYCADyixMWz1kPvoMSxplyMLRHkUo61K3S83Q6BY3t73fnpXpX4WypmrCr1XI8xvsqFoe3HRanna9XnT1+LRdNdjm9TJc7DScYY57cZ8+spdX4sPZ5L/V1zVOq5Hvs9CQDA7sp/uwAAmJldb3OcEnq7AseadIFw1z18k44120V3ePytOzn7vtPYvEvLtz5dklJ7wK7K3Mt0r0isSbK04+0WNubL3wnCrZwBAGCV2AsAsIZtI2hS6B1se6yJ8XPbPXwTjzVfH323GZv3KbsvKturt39vmuXuSbq0417SmC8be5f7HhmPz0YAgDxmcAAAa9o0NCWG3sGmx5obPy82XuGbe6zzsOnYfEibYWSpLoq9rsmWGllaXJFa33LG/CafsY9Z4krwsf31Z7nXCwCAcSzzmyQAwJbWDU1jhN7+FrT1Vrise6z14+de9dvtrht86x8r6yj5GtQeW6zv8PjbWu/DuTo/3V/sDxD64673edaqpYz50vHQeRsAAH61zG+SAAA7eCyCjhV6X719er0aqt4F8seOtX783OvevP5f9+rt0+oXdx8LvvWPlU08NC7J9dj7cM6Wuqp3sNTb8267nUCS0vv2Wt0LAAC/Wva3SQCALd0XQccMvd31aqipgm/9+NmH3mGl25TBt/6xMpWlB7YWnZx9X31oAfYWu6p3sNyAd7GAMV829nZW91blcxEAII8ZHADAllYj6NihdzBF8K0fP38NvYMpgm/9Y2UbpVaKrY4xWrCcvUwHS13Vuqr2+b1d8x/zpY+vnwt539RQ+rbbAADU58oGAMAOhgg6VegdjBl868fPu0PvYJzg299Ws/6xAnc5XMhepr29e8/tS7Pk52HuY77UD3Ru6+c9rdurOjcDAIBO7AUA2N3h8bdJQ+9grOBbN34+HHoH9YPvRXdy9qXysdKOeu8Ztre6yn6urOpdtdznY95j/qL4sX34+KTyXGBXe92Ll8+qz80AAODhq2gAAExundA7GCP41rNe6B3UD77A1Oa/l6n9MVdlrNasZ85jvsaxtToXOD/d7168fNZ1gXMz5yQAgDxmcAAADdsk9A7SLir2Ngu9g1Yv8lLf0oPQcsx7L9Pz0/2Nz3tz1z8fSZ9fpc15zJdf3ds1OBe4a+6WNDezZy8AQB7fKgEAGnXXxcJ1JV1U3Db0Dl69fdq9ef189WFmbW/r8XK38ntJUs6wX/gcWUF3t6Xf2nrO+/fWWN3bNRN897o3r5/fO3fLmpsBAJDEN0sAgAbtEnoHGRcVdwu9g/b37aOkpYegJTo8rrMicFqlf7QwH7t+/s3BfPfvrfdenjL4Drdtfuw9nTE3AwAgzcOzUAAARlci9A7avqhYJvQOprzIy3hKvj+6rqsWHSjtotqKwKn40cLDnM/rrYKdWs3jevX2affi5e8jznseXs17l7bnZu44AACQyAwOAKAhpUNW1+xFxbKhdyD4ztnmF9SZmzntZbpXbCy/f/ej+/zp32b+KUVw6mY25m+rf1wvXj67ng/Umvvsrb2a9y5tzs169uwFAMiz+YwUAIAqaoTewc1FxTbUCL0De/jOTR95t72g/hgXtbPMZf/eUqt6jw4uu8Pjb6sPT6rU69O/38s8T8nmMuZXjTFu+1W+paPvzWfSrnO2loMvAABZfru6+uNq9UEAAMZVM/TednRw2Z2cfVl9eFRvXj+vEu1WvX/3Y5SLySlKPe9jRIdhRV+Jv/cxnz997bruYvXhnZR8rmuP4f52p7ur8Tw+pNRzvK7Sx1fq7x9jjGxur3vx8tnqg1up8ZllzK+n5Crt+5UbK+vq3zPD67bO67f388cZteZp/Tj/vubfc7+Sc8nbn/V///Pk5w+jWv7f7Z0LAQDGI/YCAEys5MW5ddS4eL6usS9WtxlCpjH2c5+g1nuh1HM9xvhNDV9jR6KSx1fynF/y7yqp1Hugq3CMxvx6xom9Zd8P27hv3/ZS43ddJYLv1M/l1MYaswAALRp39goAwC+muDDX3zZw/Nscl7z4vy57+PIQt3BOdnEd2/KU2ou2j1Tbh6GaSr63St3yOl/9fW6nMPVtqj98fHLnP2Pr52Zu6byt+6I9AMBSjD+DBQCg6yYKvYOxg+8UoXdgD1/u0u912mYoY12J8Wuv2LmwZFAtreSK9Kk+J1s0dRit5fD4QqybYDUxAADzYSYJADCJvckvYI8VfKcMvYP+v2+1DDf6UCb2pjs8/hYViUqtUu1/rFAuqNZQMkq6Q8ONtDG/novu5Oz7DI9rM/17xucSAACbm/aqGwDAYrWxIq128G0h9HYuoLIiIZSxvn6fywTlfuTT8qreQcmV86VufT0XOWN+E8sOvmPs0T5nLcw1AQCmZDYEADCRVm7HWCv4thR6XUDltnmGkiXL2L+31KrernBIrafcrXndnWFVxpjf3DKDr3nK7pY2ZgAAVk1/9Q0AYMHmGnyFXlpllfdctXG3hIeUWp3aR42MMVxyBfKb1/9bfWjh2h/z21lW8P386at5CgAAOyvzbRMAgK3NLfgKvbTKmJi3lvcyPT/dL3ZeLBlQayv5frO6979aHvO7uehOzr40MTeq5ejg8np1dsYPNwAAaFuZb5sAAOxkLsFX6KVVxsQynJx9aTJ+lVzVmzaOS362lbwV9lzMeRVsK3Oj0o4OLruTsy9Cb0EtzD0BAKZkNgQA0IhWLmpuG3yFXlrlNpnL0t6ezHvFzo1Jq3oHJfcXfvX26epDXN/2eK4Oj791nz99nU3Qfv/ux3XopaS5jA8AgG2V+cYJAEARqcFX6KVF/W0y/7V6anHa2su05GrUkuF0PBdFQ8z56f7qQzQ25svLv63zcNtmcxQAAGqY/oocAAC/SAu+Qi+tGS6qWz21XO3sZbpXbDVqfzyJsbfsiuRSt8Sem3bGfD3DKt8W5kibuFnNm/n+BQCgfb4lAQA0KCX4Cr205NfI66L60rWwf2/JVb0lg+nYSp6f+8+ccs/rnLQw5uu7iIm+79/96D5/+rfo+OduLcxFAQCmZDYEANCo1oOv0EsLjg4uf15QF3lZNfVepqVWoR4dXMaf50p+nr15/b/Vh7g29Zgfz6/Rt5XIffszKf09m6SV1x8AYCplvnkCAFBFq8FX6GUKRweXty6kf/0ZeI0B7jfdXqbnp/vFzpPJq3oHJfcbLvW8ztN0Y34affQd9vSdKvoNn0s+kwAAmMJvV1d/XK0+CABAW85P94vt+7iL4SJqCxfahd7NnJ/urz4U4SYQlQtFtZV6rvtjr3vc5f7Wtt+L56f7O62y3Wb/513/m7f1qzXrjoUxtPCcGPPr2WbMt6O/zff56V739z9PqsxZjg4uu7/+vBzlPL2+vaK3jk/T+nsSAKAmsRcAIEQrwbcFQi8AsL6bANxtcIv126vqE398BADAMoi9AABBBF+hFwAAAAAG6/2UEQCAJrSyh+9UhF4AAAAAuCH2AgCEWWrwFXoBAAAA4FdiLwBAoKUFX6EXAAAAAP5L7AUACLWU4Cv0AgAAAMDdxF4AgGBzD75CLwAAAADcT+wFAAg31+Ar9AIAAADAw8ReAIAZmFvwFXoBAAAA4HFiLwDATMwl+Aq9AAAAALAesRcAYEbSg6/QCwAAAADrE3sBAGYmNfgKvQAAAACwGbEXAGCG0oKv0AsAAAAAmxN7AQBmKiX4Cr0AAAAAsB2xFwBgxloPvkIvAAAAAGxP7AUAmLlWg6/QCwAAAAC7EXsBABagteAr9AIAAADA7sReAICFaCX4Cr0AAAAAUIbYCwCwIFMHX6EXAAAAAMoRewEAFmaq4Cv0AgAAAEBZYi8AwAKNHXyFXgAAAAAoT+wFAFiosYKv0AsAAAAAdYi9AAALVjv4Cr0AAAAAUI/YCwCwcLWCr9ALAAAAAHWJvQAAFA++Qi8AAAAA1Cf2AgDQdQWDr9ALAAAAAOMQewEA+GnX4Cv0AgAAAMB4xF4AAH6xbfAVegEAAABgXGIvAAD/sWnwFXoBAAAAYHxiLwAAd1o3+Aq9AAAAADANsRcAgHs9FnyFXgAAAACYjtgLAMCD7gu+Qi8AAAAATEvsBQDgUavBV+gFAAAAgOn9dnX1x9XqgwAAcJfz0/2uu46/AAAAAMC0xF4AAAAAAACAQG7jDAAAAAAAABBI7AUAAAAAAAAIJPYCAAAAAAAABBJ7AQAAAAAAAAKJvQAAAAAAAACBxF4AAAAAAACAQGIvAAAAAAAAQCCxFwAAAAAAACCQ2AsAAAAAAAAQSOwFAAAAAAAACCT2AgAAAAAAAAQSewEAAAAAAAACib0AAAAAAAAAgcReAAAAAAAAgEBiLwAAAAAAAEAgsRcAAAAAAAAgkNgLAAAAAAAAEEjsBQAAAAAAAAgk9gIAAAAAAAAEEnsBAAAAAAAAAom9AAAAAAAAAIHEXgAAAAAAAIBAYi8AAAAAAABAILEXAAAAAAAAIJDYCwAAAAAAABBI7AUAAAAAAAAIJPYCAAAAAAAABBJ7AQAAAAAAAAKJvQAAAAAAAACBxF4AAAAAAACAQGIvAAAAAAAAQCCxFwAAAAAAACCQ2AsAAAAAAAAQSOwFAAAAAAAACCT2AgAAAAAAAAQSewEAAAAAAAACib0AAAAAAAAAgcReAAAAAAAAgEBiLwAAAAAAAEAgsRcAAAAAAAAgkNgLAAAAAAAAEEjsBQAAAAAAAAgk9gIAAAAAAAAEEnsBAAAAAAAAAom9AAAAAAAAAIHEXgAAAAAAAIBAYi8AAAAAAABAILEXAAAAAAAAIJDYCwAAAAAAABBI7AUAAAAAAAAIJPYCAAAAAAAABBJ7AQAAAAAAAAKJvQAAAAAAAACBxF4AAAAAAACAQGIvAAAAAAAAQCCxFwAAAAAAACCQ2AsAAAAAAAAQSOwFAAAAAAAACCT2AgAAAAAAAAQSewEAAAAAAAACib0AAAAAAAAAgcReAAAAAAAAgEBiLwAAAAAAAEAgsRcAAAAAAAAgkNgLAAAAAAAAEEjsBQAAAAAAAAgk9gIAAAAAAAAEEnsBAAAAAAAAAom9AAAAAAAAAIHEXgAAAAAAAIBAYi8AAAAAAABAILEXAAAAAAAAIJDYCwAAAAAAABBI7AUAAAAAAAAIJPYCAAAAAAAABBJ7AQAAAAAAAAKJvQAAAAAAAACBxF4AAAAAAACAQGIvAAAAAAAAQCCxFwAAAAAAACCQ2AsAAAAAAAAQSOwFAAAAAAAACCT2AgAAAAAAAAQSewEAAAAAAAACib0AAAAAAAAAgcReAAAAAAAAgEBiLwAAAAAAAEAgsRcAAAAAAAAgkNgLAAAAAAAAEEjsBQAAAAAAAAgk9gIAAAAAAAAEEnsBAAAAAAAAAom9AAAAAAAAAIHEXgAAAAAAAIBAYi8AAAAAAABAILEXAAAAAAAAIJDYCwAAAAAAABBI7AUAAAAAAAAIJPYCAAAAAAAABBJ7AQAAAAAAAAKJvQAAAAAAAACBxF4AAAAAAACAQGIvAAAAAAAAQCCxFwAAAAAAACCQ2AsAAAAAAAAQSOwFAAAAAAAACCT2AgAAAAAAAAQSewEAAAAAAAACib0AAAAAAAAAgcReAAAAAAAAgEBiLwAAAAAAAEAgsRcAAAAAAAAgkNgLAAAAAAAAEEjsBQAAAAAAAAgk9gIAAAAAAAAEEnsBAAAAAAAAAom9AAAAAAAAAIHEXgAAAAAAAIBAYi8AAAAAAABAILEXAAAAAAAAIJDYCwAAAAAAABBI7AUAAAAAAAAIJPYCAAAAAAAABBJ7AQAAAAAAAAKJvQAAAAAAAACBxF4AAAAAAACAQGIvAAAAAAAAQCCxFwAAAAAAACCQ2AsAAAAAAAAQSOwFAAAAAAAACCT2AgAAAAAAAAQSewEAAAAAAAACib0AAAAAAAAAgcReAAAAAAAAgEBiLwAAAAAAAEAgsRcAAAAAAAAgkNgLAAAAAAAAEEjsBQAAAAAAAAgk9gIAAAAAAAAEEnsBAAAAAAAAAom9AAAAAAAAAIHEXgAAAAAAAIBAYi8AAAAAAABAILEXAAAAAAAAIJDYCwAAAAAAABBI7AUAAAAAAAAIJPYCAAAAAAAABBJ7AQAAAAAAAAKJvQAAAAAAAACBxF4AAAAAAACAQGIvAAAAAAAAQCCxFwAAAAAAACCQ2AsAAAAAAAAQSOwFAAAAAAAACCT2AgAAAAAAAAQSewEAAAAAAAACib0AAAAAAAAAgcReAAAAAAAAgEBiLwAAAAAAAEAgsRcAAAAAAAAgkNgLAAAAAAAAEEjsBQAAAAAAAAgk9gIAAAAAAAAEEnsBAAAAAAAAAom9AAAAAAAAAIHEXgAAAAAAAIBAYi8AAAAAAABAILEXAAAAAAAAIJDYCwAAAAAAABBI7AUAAAAAAAAIJPYCAAAAAAAABBJ7AQAAAAAAAAKJvQAAAAAAAACBxF4AAAAAAACAQGIvAAAAAAAAQCCxFwAAAAAAACCQ2AsAAAAAAAAQSOwFAAAAAAAACCT2AgAAAAAAAAQSewEAAAAAAAACib0AAAAAAAAAgcReAAAAAAAAgEBiLwAAAAAAAEAgsRcAAAAAAAAgkNgLAAAAAAAAEEjsBQAAAAAAAAgk9gIAAAAAAAAEEnsBAAAAAAAAAom9AAAAAAAAAIHEXgAAAAAAAIBAYi8AAAAAAABAILEXAAAAAAAAIJDYCwAAAAAAABBI7AUAAAAAAAAIJPYCAAAAAAAABBJ7AQAAAAAAAAKJvQAAAAAAAACBxF4AAAAAAACAQGIvAAAAAAAAQCCxFwAAAAAAACCQ2AsAAAAAAAAQSOwFAAAAAAAACCT2AgAAAAAAAAQSewEAAAAAAAACib0AAAAAAAAAgcReAAAAAAAAgEBiLwAAAAAAAEAgsRcAAAAAAAAgkNgLAAAAAAAAEEjsBQAAAAAAAAgk9gIAAAAAAAAEEnsBAAAAAAAAAom9AAAAAAAAAIHEXgAAAAAAAIBAYi8AAAAAAABAILEXAAAAAAAAIJDYCwAAAAAAABBI7AUAAAAAAAAIJPYCAAAAAAAABBJ7AQAAAAAAAAKJvQAAAAAAAACBxF4AAAAAAACAQGIvAAAAAAAAQCCxFwAAAAAAACCQ2AsAAAAAAAAQSOwFAAAAAAAACCT2AgAAAAAAAAQSewEAAAAAAAACib0AAAAAAAAAgcReAAAAAAAAgEBiLwAAAAAAAEAgsRcAAAAAAAAgkNgLAAAAAAAAEEjsBQAAAAAAAAgk9gIAAAAAAAAEEnsBAAAAAAAAAom9AAAAAAAAAIHEXgAAAAAAAIBAYi8AAAAAAABAILEXAAAAAAAAIJDYCwAAAAAAABBI7AUAAAAAAAAIJPYCAAAAAAAABBJ7AQAAAAAAAAKJvQAAAAAAAACBxF4AAAAAAACAQGIvAAAAAAAAQCCxFwAAAAAAACCQ2AsAAAAAAAAQSOwFAAAAAAAACCT2AgAAAAAAAAQSewEAAAAAAAACib0AAAAAAAAAgcReAAAAAAAAgEBiLwAAAAAAAEAgsRcAAAAAAAAgkNgLAAAAAAAAEEjsBQAAAAAAAAgk9gIAAAAAAAAEEnsBAAAAAAAAAom9AAAAAAAAAIHEXgAAAAAAAIBAYi8AAAAAAABAILEXAAAAAAAAIJDYCwAAAAAAABBI7AUAAAAAAAAIJPYCAAAAAAAABBJ7AQAAAAAAAAKJvQAAAAAAAACBxF4AAAAAAACAQGIvAAAAAAAAQCCxFwAAAAAAACCQ2AsAAAAAAAAQSOwFAAAAAAAACCT2AgAAAAAAAAQSewEAAAAAAAACib0AAAAAAAAAgcReAAAAAAAAgEBiLwAAAAAAAEAgsRcAAAAAAAAgkNgLAAAAAAAAEEjsBQAAAAAAAAgk9gIAAAAAAAAEEnsBAAAAAAAAAom9AAAAAAAAAIHEXgAAAAAAAIBAYi8AAAAAAABAILEXAAAAAAAAIJDYCwAAAAAAABBI7AUAAAAAAAAIJPYCAAAAAAAABBJ7AQAAAAAAAAKJvQAAAAAAAACBxF4AAAAAAACAQGIvAAAAAAAAQCCxFwAAAAAAACCQ2AsAAAAAAAAQSOwFAAAAAAAACCT2AgAAAAAAAAQSewEAAAAAAAACib0AAAAAAAAAgcReAAAAAAAAgEBiLwAAAAAAAEAgsRcAAAAAAAAgkNgLAAAAAAAAEEjsBQAAAAAAAAgk9gIAAAAAAAAEEnsBAAAAAAAAAom9AAAAAAAAAIHEXgAAAAAAAIBAYi8AAAAAAABAILEXAAAAAAAAIJDYCwAAAAAAABBI7AUAAAAAAAAIJPYCAAAAAAAABBJ7AQAAAAAAAAKJvQAAAAAAAACBxF4AAAAAAACAQGIvAAAAAAAAQCCxFwAAAAAAACCQ2AsAAAAAAAAQSOwFAAAAAAAACCT2AgAAAAAAAAQSewEAAAAAAAACib0AAAAAAAAAgcReAAAAAAAAgEBiLwAAAAAAAEAgsRcAAAAAAAAgkNgLAAAAAAAAEEjsBQAAAAAAAAgk9gIAAAAAAAAEEnsBAAAAAAAAAom9AAAAAAAAAIHEXgAAAAAAAIBAYi8AAAAAAABAILEXAAAAAAAAIJDYCwAAAAAAABBI7AUAAAAAAAAIJPYCAAAAAAAABBJ7AQAAAAAAAAKJvQAAAAAAAACBxF4AAAAAAACAQGIvAAAAAAAAQCCxFwAAAAAAACCQ2AsAAAAAAAAQSOwFAAAAAAAACCT2AgAAAAAAAAQSewEAAAAAAAACib0AAAAAAAAAgcReAAAAAAAAgEBiLwAAAAAAAEAgsRcAAAAAAAAgkNgLAAAAAAAAEEjsBQAAAAAAAAgk9gIAAAAAAAAEEnsBAAAAAAAAAom9AAAAAAAAAIHEXgAAAAAAAIBAYi8AAAAAAABAILEXAAAAAAAAIJDYCwAAAAAAABBI7AUAAAAAAAAIJPYCAAAAAAAABBJ7AQAAAAAAAAKJvQAAAAAAAACBxF4AAAAAAACAQGIvAAAAAAAAQCCxFwAAAAAAACCQ2AsAAAAAAAAQSOwFAAAAAAAACCT2AgAAAAAAAAQSewEAAAAAAAACib0AAAAAAAAAgcReAAAAAAAAgEBiLwAAAAAAAEAgsRcAAAAAAAAgkNgLAAAAAAAAEEjsBQAAAAAAAAgk9gIAAAAAAAAEEnsBAAAAAAAAAom9AAAAAAAAAIHEXgAAAAAAAIBAYi8AAAAAAABAILEXAAAAAAAAIJDYCwAAAAAAABBI7AUAAAAAAAAIJPYCAAAAAAAABBJ7AQAAAAAAAAKJvQAAAAAAAACBxF4AAAAAAACAQGIvAAAAAAAAQCCxFwAAAAAAACCQ2AsAAAAAAAAQSOwFAAAAAAAACCT2AgAAAAAAAAQSewEAAAAAAAACib0AAAAAAAAAgcReAAAAAAAAgEBiLwAAAAAAAEAgsRcAAAAAAAAgkNgLAAAAAAAAEEjsBQAAAAAAAAgk9gIAAMD/27MDEgAAAABB/1+3I9AbAgAAwJDsBQAAAAAAABiSvQAAAAAAAABDshcAAAAAAABgSPYCAAAAAAAADMleAAAAAAAAgCHZCwAAAAAAADAkewEAAAAAAACGZC8AAAAAAADAkOwFAAAAAAAAGJK9AAAAAAAAAEOyFwAAAAAAAGBI9gIAAAAAAAAMyV4AAAAAAACAIdkLAAAAAAAAMCR7AQAAAAAAAIZkLwAAAAAAAMCQ7AUAAAAAAAAYkr0AAAAAAAAAQ7IXAAAAAAAAYEj2AgAAAAAAAAzJXgAAAAAAAIAh2QsAAAAAAAAwJHsBAAAAAAAAhmQvAAAAAAAAwJDsBQAAAAAAABiSvQAAAAAAAABDshcAAAAAAABgSPYCAAAAAAAADMleAAAAAAAAgCHZCwAAAAAAADAkewEAAAAAAACGZC8AAAAAAADAkOwFAAAAAAAAGJK9AAAAAAAAAEOyFwAAAAAAAGBI9gIAAAAAAAAMyV4AAAAAAACAIdkLAAAAAAAAMCR7AQAAAAAAAIZkLwAAAAAAAMCQ7AUAAAAAAAAYkr0AAAAAAAAAQ7IXAAAAAAAAYEj2AgAAAAAAAAzJXgAAAAAAAIAh2QsAAAAAAAAwJHsBAAAAAAAAhmQvAAAAAAAAwJDsBQAAAAAAABiSvQAAAAAAAABDshcAAAAAAABgSPYCAAAAAAAADMleAAAAAAAAgCHZCwAAAAAAADAkewEAAAAAAACGZC8AAAAAAADAkOwFAAAAAAAAGAqaykXgZCPvKwAAAABJRU5ErkJggg==;" parent="1" vertex="1">
          <mxGeometry x="70" y="203" width="142.52" height="80" as="geometry" />
        </mxCell>
        <mxCell id="g8Hrz8pBSeV4qm7vl3dj-59" style="edgeStyle=orthogonalEdgeStyle;rounded=0;orthogonalLoop=1;jettySize=auto;html=1;entryX=0.5;entryY=1;entryDx=0;entryDy=0;" parent="1" target="g8Hrz8pBSeV4qm7vl3dj-53" edge="1">
          <mxGeometry relative="1" as="geometry">
            <mxPoint x="486" y="270" as="sourcePoint" />
          </mxGeometry>
        </mxCell>
        <mxCell id="g8Hrz8pBSeV4qm7vl3dj-3" value="" style="shape=image;verticalLabelPosition=bottom;labelBackgroundColor=default;verticalAlign=top;aspect=fixed;imageAspect=0;image=https://lginfo.com.br/site/wp-content/uploads/2023/10/Python-Symbol.png;" parent="1" vertex="1">
          <mxGeometry x="382.99999999999994" y="283" width="206.22" height="116" as="geometry" />
        </mxCell>
        <mxCell id="g8Hrz8pBSeV4qm7vl3dj-7" value="" style="shape=image;verticalLabelPosition=bottom;labelBackgroundColor=default;verticalAlign=top;aspect=fixed;imageAspect=0;image=https://fiverr-res.cloudinary.com/videos/t_main1,q_auto,f_auto/yqcpaxrnk7spzdjxydb5/setup-grafana-in-dockerize-form-with-multiple-exporters.png;" parent="1" vertex="1">
          <mxGeometry x="631.67" y="740" width="333.33" height="200" as="geometry" />
        </mxCell>
        <mxCell id="RLjyjs_sm2IHfBNOWAbh-4" value="1" style="ellipse;whiteSpace=wrap;html=1;aspect=fixed;fillColor=#4D9900;strokeColor=none;labelBackgroundColor=none;" parent="1" vertex="1">
          <mxGeometry x="360" y="320" width="23" height="23" as="geometry" />
        </mxCell>
        <mxCell id="g8Hrz8pBSeV4qm7vl3dj-20" value="" style="shape=image;verticalLabelPosition=bottom;labelBackgroundColor=default;verticalAlign=top;aspect=fixed;imageAspect=0;image=data:image/png,iVBORw0KGgoAAAANSUhEUgAAAfoAAAC2CAYAAAAx+E/qAAAAAXNSR0IArs4c6QAAAARnQU1BAACxjwv8YQUAAAAJcEhZcwAADsMAAA7DAcdvqGQAADz1SURBVHhe7d13fFPV/8fx100nhdaWUQp0CLJHqRQrFGSoIKBl/ERliuBEARcqQwRkCzIEwcEGZTiQL4gKKEPZQyhDAQXaQi1DphS6cn9/3CRNbgdpm3SEz/PxiNd7z829SUnyvufcc89VgiqHqQghhBDCJRn0C4QQQgjhOiTohRBCCBcmQS+EEEK4MAl6IYQQwoVJ0AshhBAuTIJeCCGEcGES9EIIIYQLk6AXQgghXJgEvRBCCOHCJOiFEEIIFyZBL4QQQrgwCXohhBDChUnQCyGEEC5Mgl4IIYRwYRL0QgghhAuToBdCCCFcmAS9EEII4cIk6IUQQggXJkEvhBBCuDAJeiGEEMKFSdALIYQQLkyCXgghhHBhEvRCCCGEC5OgF0IIIVyYBL0QQgjhwiTohRBCCBcmQS+EEEK4MAl6IYQQwoVJ0AshhBAuTIJeCCGEcGES9EIIIYQLk6AXQgghXJgEvRBCCGEy/jk3Xunkrl9cormV8fUfpV8ohBBC3GnGP+dGl2bniKr9H+DHnmNG/SolkgS9EEKIO5455M1cKewl6IUQQtzR9CFv5iphXyyC3tvbm/T0dP1iIYQQwqlyCnkzVwj7Iu+MFxYaypfLvyAsNFRfJESu6gz+hK+27iE29gCxsQfYt20ti998iLAS9X2MZugPhzi8cz5Dz6UCkDRurek9rWfhY3H6J+A/1lz+NVMTb+qLSzjt7xEbe4DY/UsZX/4/XfmzTNsRa/k3t37sXDedl4JuAZDUZyFbDh20Kf/zu6G6bWnMf++9nz9hu7zfArYcOsiRzbMt2xWu5XYhbzagc1KJ7qBXpEEfFhrKtI+mcbdpKmEv7BU6di2Lnm5CLX8PyzIP32Ai+ozn0/cjbNZ1nhAtpLd9zMtX0vSFdkmKfpz7g414xO1lQkVPXWkgTZ77hBZpqtWyl5nUpnh9T66EPsv0X7XwzSlM7WX+e5CugHt9GvQtrV8lRz7BrXh17iTapBb8SC+p9Vg2v9KIsikn+H54Rz5J8tavIko4e0PerCSHfZEFvXXIAxL2wm5XQkfy/qMheHONxNWT6N+hHuHhPRm87CiXFW+qPDbIVDsez7JDBzm87WNeH/I1W/cftATRldAYXl20iT37tVrf4Z0bWDmstU1rgEeHEczdmNlisH/LN0x7/C6w1BjX0r1KBkbfZrwUf8Qm5Lz6z+CrrZk1z13fTWJQLX3tFHi0FtVUleO73tGXQLpCarXOvDrQy7Ko/NTONC11k5RUxWZVqEe3GWvYano/sfu3snHuQKvQM9eEv+aDZiNYsl17bUc2f8mY5ol52A5AK6u/3S72jG7Lvf7WByNZ/3a/r1/I+23L2qyTndAuDaim3uLY8h84qSjUaDYshxaav9hYvhbh4RGEh0cQ2ONTdvxnIC20NX17JRC06BlaNmjIgjh34BqHJgZQu/ME/UaydSX0WZa/35G6HleJnfE0b28LtpTl9r6Shn1DbOwBts94wGpr0GTOZmJjd/HNc1lbZ0TRyGvIm5XUsC+yoBciv269eB+N3FQMez+l3YhlbDvjARxh/YQevDnxY8b17qarHdek/VM18Hc3h1E0788YxbP3BuBlWmb0qUDtbhP5bGRtAK6Evs6skU8QFZjZYuAecA8PD/2YkRVuWJZlJ6nPQta/3Ipa/pkJVaraI7z46WJdzT+ESeF3Q/ph9g0OslquSTmyk6MZ3tTt+D5tUo1cCR3Chy0r4nFmE+sT3WzWLT91GsNah2S+R3c/AqOeZfSc9jbrgScNhj1JwzLaa8soW5fH31tM15sZYOd2Hv18otXfzouKkbUITPiBaY/UoXbnCSRFj2XJmK42fzu3oAi6jP+MyY2TLMuyimZEeCVIP8GR11ax64yB1GpNGRxlfSCSvaDDc/jzXwPgR9m6+tK8aMXoj/vz4F03Sfx2ED2XJFtKbve+gsbvYX+Ggn/9/6PXDe3vCc/yVERZDMlH+G1SZcvzRNHJb8iblcSwL7Kgj4uP5/VBr3M6Ph6A06b5ONO8EDl5s2olAM7Ej9cXsfeLz1j+h4/NMqOvFylfDqNXvYZaEPV5gU7V3Uk5vITxT9UkPDyCR0Zu5FSGNyGtXjSF3k42fbeKhaP6EVM/gtDH+vPZHxmonjUIf/yiqcb4PUcUBcP1bXwSWs9UYwxhUtfGBKTFs21KH8tzJx+4SUbZaNq/nxlaV0JfIuruDLxO7GdBUGat3Uy5tZFFB5JJC27NoCFutH+nPfd63OLo/97joq5C7/Hr96z68iMGdattej+7+UdRCKjRWtf0H4rXn2Pp36EekUM2cipDIT2oLq2raK0Nt9/OG3QM94H0BDa92Zrw8J4M+Ok8acHteH5YDAB9n3+Iuh5XiVsynF71GlrWUT2r06y37Xlwa0nR3WlQ2YjXie2MqryLV389DoRS//FW+lWzSKrfn9rljMA1Lh3Vl9qv/YIJ9A1zJ3XvTF5874BN2e3f10S2nHQjvUI9Hn7qDABJfR6gURkVjv7MtHKZBwiiaBQ05M1KWtgXWdCjC3tHhXwZHzc6tvJjzIDyfDM1iF3Lgjj1U2VO/1SZUz9VZueyIL6ZGsj7A8oT08qPMj62NSNR/AX6Zg3F3BiuH+KH4d8R66alY5uoqgSoKl71ezNsxXFiYw/w0+iHqeqmkl4hhOjLqfjH7+BgWgitBy9kzeEDxK+dwwt13AAvSmetfFvpScPgDHAPodngRZbnvhVRCoBKdQZb1rzVqzb1VJXjez8kLodv4rKRq/k9zZuqj69ndLQ/nie/Y8bMFP1q/LHvImlRzzF56THT+4mikqqScZcv9W9YX9HyFwe6L2TbGQ/S1g1m8xk3wB//dlfs3E55/HxUPOO38+qGy8ARtr61lyOKQtmQSCCGVlXLAH6E9R7H0iMHiY39glmPBAJQNqy51WuxVamr6TTG3o8B8F4ay/4MhaCG/XQHKwDVefii9hpjYw9w/ssXaVrGiEf8JhYsDdGtax9DzUGMjtT+nbzrPkj3oMzavL3va8LmQ9wikJqPPA9A31a1CFBvcWx71oNSUbgcFfJmJSnsc/h5KTxx8fH06NazwCEfUbsUU98qz+FvK/LRkDL0jvEksq6BimUNKKbfCEWFoLIGIuu683SMJzOHlOHQtxWZOrg8EbW0L7go/s5fzxp0eRHso+/0llVSn4V80ieSMFMTt/388LLrux/CmMhawF8cn5/NuXsT//iJvLnlHEbfCgS5nWPn3JfY6qE/Px/N+zPe4MnqPpZTEfljz3Yuci1ZITU0mukxVYF6tJjcmHqqStq1C0Agnl45PTc3MUxspLXUhPXW+gfEr+1CIzeVtOBG9Ot4+9+H5DObmfHcO2zwzN/PmnuAL4ZdUxi17yZGn0b0nDLIqn+Afe8raOav/H7TgF+jTrx8pT+d65bGcH0vP0+RZvui5OiQNyspYZ+/b4SD3bqV/0tXygW488Hr5Vg1zZ8uD3qgqqr2MNo3RVXp8pAHq6b788Hr5SjnX/z/0e50H576B4Dg0GH6IuoMHs2wR8rpF9tYcO46AJdW17B05sp8dOWNyqXo1rw2AarKxQ1DTM20Ebyzz55L2f4m6b/M5nz99hs//5VpvZ7cVy0Dz5P7+OiCr24bti6+sYKfbxhQDqxk5P/C9MXAY9xX3R1D8hG+6tPWtK91HFH0BwS3Y892pvK/2GRwD+HBcausarXXiP1xBLCe81cUIJ5fW1XN8v5z6hCX1CmGiHI5HVQFUrODVkPOZNsZLzw8giYdXitQ73iP+NUM7bOY+SPn8vMNA2rE88wabH7v9r6v2fx4LB2jbw3uHduY2j4qt45uZrbV1SGicDkr5M1KQtgXi6DPr0ealWH97PI80db8Rzb/UORv+kRbd36aU5620WVMy0Vx5P2p1unJ2PhFfhzTnWbBaUA92g79kk/6dKb7uBmMSsyl1r/jT/5RFCo8sJLRHasBUKnLCGb+uI1NE9oBUMpSo03mqqJQNqof0ZXt+VzM41B8GkbfxnSd14tmwWlcCW3K4+PXsP2X2bwV9S8ASUO0DoWnD4zKsdk+0zy6r1jBilkTbr/ujROmv0UtClSHzHE79VAPb2VvYhop6VoIGpITODD/dXp+GQYksO74JSCUqBlj6FYn2bSd+azd+j3TY7Lved6mbS0qqSqJ39axCdDAEVofAf+67a06uDnHjX8Os8HTgH/8PLp/vo/Lijd391hi6nxp//uas+M4twikbpeaBKhXObZpis1+ROFxdsibFfewv93PRrHVr9NdzBleirJ+KqpqBKPRIdNyfiqfvFuKvp21y6hE8eMfP5r3vk/gFn5U7vQOc9YdITb2C6Z0r0uAeouza6cwqnLO5/GDVk9m+t5kMsreS5ex35rORT9Oy8rupKRovcIXnNA6zZVv8xFrDh9g89xBNE/Xmo8r/18cX/SIs9TezZfXmQdcGf/JDxxN86Z8m6HMWXeE+LVzGPlYCHcZ4Hq8dl340PtqAfGcWKsF/+0ETR/H2N0V9ItNDhD/rwGjTz2e+PoUsbFf8OHjnvx3QXttgza/p39CDuzZTks69WhH48oeVlcshBDx9Gx2fz2GvpVS2PLhYn65asCrYS9TH4gvmNK9EWE+N0m9lF2fmBh61Sub7d8jaPVCdicaSK8QSfvntQ5u9jAPmNM3LB3wo8GQy3m6xj9o/ntM3JuM6lmfxz9+izAjdr+voDkb2HbDgK+vL4brh9g2u0CHXCKfCivkzYpz2JfIoH+pqz8jXvA0nXs3Zplqsi7PS/l7z3vyUld/07qiuIl/9zH6LN7JMavL1dIv/82u+a/QbpRtb+msEvih71Bm7UviinWtdNEwS0/roPEzmbUvyVJrTTm8hPFtvuUHm6Cax+bd/6A/8RS06V1iJm+weW23jq/hg5f6mJqW36BJsBGP+N/5aod2XrpgVjLgk584dkX7OhuSE9gzoxtP/xqf5bXlzp7tzGbcVye4rD8t4O6Fd80Ynh/yMP7x8+j23hdsScy8DNF4ZgfLhr9oc026WdL/ac32HmeOZvP32M57R/4B/Gj4cNZTNc6TwLKRK9lx0wC1+/DZyNp5eF/zWP+nto402xeNwg55s+Ia9kpQ5bDb9zApRp5s48ukQV6oBlCMOH06ZGYKK9Zr53SFuNN5Tl7P3kfg8Njn6LEys4Ncjf7LmPtyXUrvHGvVD+FOFcOkzeNpX/YyhyaGmU5piMJS0JDf/afWxyeqtn2tbdmZ9V0QH68uPvdvKVFBX7+GN2um2nOe1LE6v/kfB4/nrW4khCtKeusb4nvfQ/Zd3lKIW9iEmKkl5ifF4ZLGreV8jFa7d7+wifFNBrG0dHanK4QzOCLk+0xSqFLejfHPprtM2Jeopvt3+/lk9qovxMeI520HYBHiThU0+TVGfp/AVd0QvGnXL3Jq9UQGTLlzQ95G+jWOrJsrIV+IHBXyAGcvZjBsnruldp8fxakZv8TU6J9q68uEAe4oGFAxFvr0/c8yWLj2mv5lCSGEKGKODHlrrlKzLxb3o7fHtDdKU9bPCBgx9fUF1EKbrxHmxoL/2XMdtRBCiMLirJAHuJ6ssueYO7VDvalSPn+//8XhfvYlIugfuq80zzymgKqAAoppWpjzfqWNnEp051hc/m5HKoQQwrGcGfJmrhD2JeIc/SNN3Uzny41FOm3ftHicbxFCiDtdlfJunL2Qe0jnxp6QN3PEOfuo2kVXSSwRQd88QtVa0U3j1YOpVb2Q5x+IKJqjMSGEELbOXszgu20qs77L9S5T2cpLyJsVJOzzsz9HKvZBHxbkQaC/EVQVVc0w1bAzimTe28tInaq3vyFKcREV3VK/SAghHKaof2PyE/YFCd38hH1B9ucoxT7o7wk2jyqVgYIKZJhq21bzhVherXLJuFwmKrolUdEt9IuFEMJhoqJblKiwd0To5iXsHbE/Ryj2QV+pHKZx6K3vOKebL8TywIBi/yeTkBdCFJqSEvaODF17wt6R+yuoYp9afmVML9F8rtysiOZ9vIvHP1xOJOSFEIWtuIe9M0I3t7DPy/7c3OxbryCKfdBr58qtHub7yRfRfHEmIS+EKCrOCvtXOrkza6B+afayC/u8hC7AqD4GRvWxLxqzC/u87m/Gy6rTR9Ar9iPj9Wzrw6jn01BwQ8V0eTsZRTY/fqGBBd8n619mkZOQF0IUB7u3b2X39i36xfnySid3BnTWbh398/7yDJipXyN7Vcq70bmZQlTttDyF7qg+Bp5qdR6AFZsDGbXIviutzCPoAXna36yB8FCji9r/O3EEvWI/YE4Ff3dimqWbItc8NRbZ/DebDZxIcM4/RkFUCbmbKiFylywhRNE6mxDH2YQ4/eI8sw55gGqVkqkT6sO63TarZet6skrivwqLN9hfj7UOeYD6d9+ggn8ZNh+8/TbMg+rkZX/WIY+TB9Up9kFvNEKf9op2z1gADNq17UU0P3sVXLzi+H+IgtK+WIqEvRCiyDiqNq8PebO8hr299CFvltewt5c+5M2cFfbFvuke4Lc57lQMcOwbz48btwxEPFP8avPW9E34s6aMsSkXQghHGTB4hOX/nR3y1vLSjH87OYW8tbw0499OTiFvzdHN+Pb1OChi2w6Zr6UvWtsOObfDhCPs3r6F3du36hcLIYTTFGbIgxaU9nbQy409IQ/wVKvzdnfQy409IY8TbnFb8Feu4+3trV9UYD/t0q5tNz9U07XuhT3/0079KyueJOyFEIWlsEPerKBhb2/ImxU07O0NeTNHhr1Dz9GHhYby+bzP2Ll9J1evXtUX59upf9Lp0NSDsn5a5zjF0jlOmxbGfOJFD4Z+mqp/acWW+Zy9IzrFCCFE9pQiCXmzvJyzt5bXkDfLyzl7a3kNeTNHnbPP/+GJTlhoKNM+msbdpmlYaKh+lQJZsM6AajSiqmlFMp231jFHVoXJEV9AIYTIifzGlAwOC3pnW/lLCnuPeWv3iIdCnf7+tzeLf7qlzQshhHCoj1enZzui3e3kt1PeqEVGVmwO1C++rfx2yhswU3uteeWoTnkOa7q/evUqO7fvpEl0U14f9Dpx8fH6VQrsWIIbT7VORUVFQS206aDpnpy7nPd/XCGEEPbRmqf9TM3Vt5ffkDfbfFClgn8Z6t99Q1+UrfyGvNm63VAn1IdqlewbcM1RIY8jgx5T2K/+7n/8+++/+iKHOH/ZSNKlUjzUSDtXbqpzO3X67twy/PJ7mmmJEEIIZ7E37Asa8mb2hn1BQ97M3rB3ZMjj6KAHSE933IvLztHTGaSketO0XgqQZopj50w/XOHH4vUlpwOeEEKUdLcLe0eFvNntwt5RIW92u7B3dMjjjKAvDPuOG/kv2YcHGtzSRqxTTSPnOXA6/su7mL/OsSHv7e3t9AMhIYQo6XIKe0eHvFlOYe/okDfLKeydEfKU1KAHOPB3Bn/ElaZxbZXSXqnapXCqmjlVVbR7y+qW36b8/OVSvPOJL6t+c2xzvbMuPRRCCFekD/u8hvyid1QGdE5l8Qb7rpjSh31eQ37ROypRddz5eb99l97pw95ZIU9JDnqAU/8Y+WarJ34+pWlw900AFNMZ9szz7OZ5/TRr+fJN5Rg408Af8RmmUsewvvSwSXRTCXshhLCDOeyvJ3vnOeSjav+Ln08qXZq75Tnsj5wunfeQr/0vdUJvUKWCb57Dft0uP6eFPJSQse7tUTPYg24PGolpeo0ypdJMveYVm6mZ9fL/bnqwZrsfyzbDiQTHBjy6kDc7HR/vtCsThBDiTmYOXWtnL/ry8FteNsscJbv9rdpWkWFz7csTNzeFjAznxrDLBL21Bxp60LgG1A1LIzQwjcrlkvFwN5KWbiDxXx/iz3twNM6DvSfg14OObaK3ll3Im0nYCyGEY2UXumbOCPvc9peXsHc2lwz64kKCXgghCkduoWvmyLC3Z3/FJexLzMh4JVGcKcxP68JcQl4IIRzHntAFqFL+Ohsnp+gX55m9++vS7Bzjn3PTLy50EvROpg97CXkhhHAce0PXrKBhn9f9FYewl6b7QmJuxpeQF0IIx8hr6FrLTzN+QfZXlM34UqMvJHHx8fTo1lNCXgghHGT3nx76RXbLa82+ICEPsOcP80XdhU+CvhDduiV3wBNCCEfJ713vzOwN+4KG/LC5Qaza5rzr5G9Hgl4IIUSJ5eywL+khT0kOeg8P+5ps/MsG6BfZxdvbW79IiDuOt1eJ/YkQdxBnhb0rhDzFpTNeUOVgqt1TnUqVgylfoQL+/gG4ueXUS1EBVGqGeBLeqJW+0IaScpa9mxfw66mqlmUPVD1F41Z9Ub2q2KyrF7t/M8cTsrupjbZ/gIyMDK5cuczFCxf4J/EMJ//+i6TEM/onCFEsVCznwcNNSnN/Aw9qV3Xj7ipueHqoqFafav10xpIUpi+1/4euYWRTGkbeb5k/uG8XB/ftsFlHCGd5pZM7Azon6RfbzbqDnquEPEU91n1EZBSPduxC8xatCat2D+XLVcDbxweDYkA1/dLkNK3gZ6Bi5cwA11NSEvE+/QYJl3yIvxaEoigoikKYXzzVlBVk+DYDd1/90yzOJ57i4lVjlv1aTw2KAW8fH8qXq0BYtXu4t9F91KpdFxVI+uesfpNCFIk6Vb159/kApgz25aH7Pah5t0J5fwMGg9F0rwfz1HwPiMzlu2Iz2Bmr3UfCHkGVQwiqHGyZP/fPWc79Iwe/onDob4STV+ax8R9q5OYyIU9RNd1XrV6Tfi8OoF2HjlQIDEJVVTCqqGrmwzyvn1rKc6GkJOId9yZK6gHLbWsURXuAgpJ6QCtPSdQ/1Uau+8/h9ZWvGES7Dh3p9+IAqlavqd+kEIXq1Z5lWTf7Ljo9aAA1A1XNAFXNYZpduX6LQhRvjmjGd6WQpyiCvlmLB3mie28CA4MwmprAraeKajuvn5rLc7qvkJKaSKm4wRhSD6IobrgZQDEoKIoBRVG0ecUNQ+pBSsUNRknNPuyNt9m/frm+PDAwiCe696ZZiwct2xSiMM0eXo7XenloH2ZMH+o8TrUavhAlS0HDPr+KY8hT2EHfpl0M0S1agVElQzUWaJodLeTf0mryihso2tlGxdQkad04ieKGkva7af3swz67/eZ1Gt2iFW3axei3LIRTzRtdjnbRCqpRRSUj/1Op0osSqrDDvriGPIUZ9A+2ac+9kfeZarymDDZN8zOvp6QmUir+HQxph8HggaIYQPFEwVSbNygoBoMW+1blhrTDlIp/J8ewz2n/eZlvGHkfD7Zpb9qiEM41YUAArRsrKEYAYwGnQpRchRX2xTnkKazOeBGRUUS3eBDV0l9dmxZkPjDAgyBTZzwlNRGfhLdRUg+hKCrmWjxAwn81SbgWZKnRh/ifI8TvhKVcUVTIOI/HjVjSyzQBN62D3rl/TnPuclqO+8/rfKUqwdxMTpZOesKpOrUuw5u9PGw/iAWYxv0bTJUG3WkY2STbByg2ne2kM54obgraQe92invIUxg1+oByFXiwbQfQ1XIdMcUc8meGYEj7w3Qu3sNUe3dHMSi4oZ2bVwymc/SYa/dauXl9Q9of+JwZYlOz1++voNMH23YgoFwFbUYIJ3itu6dWGweHTIVwBc6q2ZeEkKcwgj66eStUVcVoNJKhGh02VVRzyA9FST1iqoC4ZT+1VN/NFZXs11NSj5i2l4iiku1+CzJVVZXo5rlf+y9Efj3xcBnCKprOrxtNUzW9gPOmo1QhSjhHh31JCXmcHfSBQVWoWaeuTQ0cXY08v/NGBUqfHYoh7aipR332DwwKBsWAQdGmWHrgZ/8wpB2l9NmhGM0HBznsP7/zNevUJTAo98F6hMiPji3dTAM9mGviRpt5RTdvV7kQLsRRYV+SQh5nn6O/7/5mBFWuglE1hZ2q1ajN8+bO8/kpP3/qN6JCd4Bi0ApzmJ69VoP4axUttfqwu84TfNdfWdaznirG86zd7mYZPS+7/d/u9eVWnpGezulTf2mFQjhAGR8D4/u7m8JZddj05x3X+GzxFg7u25ntQ3/+Xc7Ri+KuoOfsS1rI4+wa/T01apkG3NCuezeCzTy6+byUq6qKoribauI5T1WDgsFcqzcoqAYl2/X0U3OTZU77v93ry638nhq1TKVCOEaDe7y02rijH0K4oPzW7EtiyOPMoPcvW54yZXxRVSNGo4qqGsFodOB8ZpjmNtX/VGXXMJndVBvtLrf953/ep4wv/mXLmvYmRN41jGzK0y+8Znl0e/IR7fy6anToVFHN3wohXEtew76khjzODPpy5StY1XC1qSPnQRvxDlPvef1UNSiZ186bavOKwWB6ZJbrn2eZ2tTQs+6/oPPlylfU/kcIByjtkaq1uGPUpqppWuB5IVyXvWFfkkMeZwZ9GV9fm7HhHf4AwHyHu8ze8+Z580PBPMa99eh4meU5PV+FrPt04KOMb8431BEir8yfK0ytXY6aNw/vLISrul3Yl/SQx5lB7+nhZVObhcwKQpbl+SjXAlwx9aI31d5zmTeYrqPPqTzL/G32n+00D+WeHtqtEIVwhBtpXkCGaS7DdEBb8HnF/KEVwoXlFPauEPI4M+hRFNP5afN5aiOqUTevn+alHKsT8DZTQ5bllhq9YlqY7fNsn681s+ey/+ymeSi3vCjh0qKiW+oXOcTBfTtY/Nl0y2PFyh9QjSoYtevgHTaVGr3IhbM+30VBH/auEvI4NehNl5KZ/tfhU0XF1Ete/zD3njc/Mu9cp01zep7u+U5+/ZYZ4dKiolsUyo/hoZNpOXQrLeBUPqciF4X1+S4s5rB3pZDHmdfRVw4OpXKVEEuoOXpqSEukaY0zpgvUlRynZ69XI/Gqdh29Aajif55gv1NZ1tNPd5wIxuhRKct+HTVNPBtP4pl4hGuLim5JlZAw7bOYEKcvdpjUNJXGtT0JCUxDUVXA6JDp6avVCW7YK8sY9zLWvaAQP9+Fac8xI38mmA92XYPzavRmanZTc+Lpl+eh3HJe3T1ztLts5g1W5921UfLM89mvb563NK3ntP9sl+ehXNxRCqPms3abksPnLf9TxVK7FyJnhfH5FvmnBFUOc0rqRN7fnMioaO28t2p1Hhyref00D+UeN3/njcf2mIqNlmMW/fyeM63YmRCOAQUjKk1CYrkv+Jcc1zfPT117P2ml7s1x/7d7fbcr37d7O/t2/Wa1sGAGDB6hXySKod3bt7J7+xb9YofZOM2N0MAUrWVKVbQRH1VjvudX7qzP8ZR2+t1YHNy3i4P7dljmG0Y2pWHk/TmW55d8vksGZ3++Rf4Ubo3e/NAvz0851r3u3XS95t1M5+S1mrqbaYx7N8U8pn1meU7Pt8hp/9lN81Iu7kjOrvl89LW79j/mUe3MA97kd16IPHD251vkj9OCXlXBaL4WV3cNuX55/srNtWR9L3vTvNXD8humW57b8wvl9QvhYP/blsLKX0qhqtrVHfoH2SzLrfzc2dM2vfv1D0fU1oUQzuW0pvtGUc1oFBWtzVhC2cQB854pv/NWpwNWC7O350wr9iQ0sMzfF3KI+4I326yTncmrI0j1vlebyWb/BZ3fv2c7+3dvs1ooXJG+ybmwmjY/f8uNFuE3UBQDqmpEUYyoqtailZf5Wav8mfntLf3mc+SspntRPBXV51vkjXNr9OZrx1Vtan6Y5wtUnsPhiZrDO1IVxa7WSPPzi+r1C9dVmD+Cz0/O4Mc9ZVCNaaiq+d7yGXmflw+qsFNhfr5F3uQQi45j/plQrR765fkpBwXVTTunbj1VdMsNBsBgwM10vt5gINvnZXm+qQqe0/6zm+alXNxZiuJH8NWP0pm5qiyophHv8jsV4jaK4vMt7Oe0oFdV1VQrcN5Ue/nZPbCZN6Cdn9dKspZnfRTW6xd3gqL8EZy1KoVO7wbwv21lQM1ANabmaWrpnCdEDory8y3sY049p1BN/3HGVAGtB72bVlPHNNXm3TPnDZh63Jt61Bu0kfFs18/6fMXJr1/cGYrDj+CxhAze+lSl5WvlGbUokLU7y/PXGV/S0p369Rd3gOLw+c4Uw/s/HyJ2/xpmNk7UF97RnNYZLyKyKQ0b369Fsmq6Cw04bN4n7RBvP3XEvDBH+xNasDch3HRooNI4JJZGIVv1q2XxwYp6JHs2yHH/BZ0/uG8XB6STkijmvD0VbqU65SdCCLsk9VnIscH3EpBNK+it42uYM/BtFvzjZQr68XQOOM2WFyIZuLeyfvU7ltMO6VW0fEM13VJWdey8ahm73np8++ym2sMy+p3loV/PdqoqSq77L+i8avlLCVF8SciL4sy7ZgxvjutnmlvDew81ILxRjIS8jtNq9M7m7u5OenrJvelASX/9QghRGMw1+op/L6d25wmW5V79l7H+5bqUu/Ybs+u9wGz/l5i241UeKn2cjeUf5Y3KpWi/YAeTIkuR+O0zrK0zhxfqlIL0a8Qte42YyftNWwoh+r1JjO5Qj4o+KqSncOvkequWAuzcDiS1foev3nmClpW1gatunvyJBS+9yidJ3gBcCY1h5Jg36NWgLF7uKobkCxz933jeGruJOKdVu51Yo3e2kh6SJf31CyFEceB2+SKHS5tGhMyBet84LZwB3P0I6z2Rz9prN+FJGvgB07vW1UIewN0L75oxvD7jdcJ0fVFz286V0NdZPbGnJeQBSlV7hFfnTqJNqhGI5v0Zo3j23gC83LV9GX0qULvbRD4bWdvyHGcosUEvhBDizpFa7SliYw9YHnv6V0M59BOzJr3MVo/cB0m5WznErL6PEPrYCJaddQMCqRldHoC6uzbw7TefM67fI4SHR9DquW85cNOAIbQxPS6k2r2dB97pTNNSRlIOzmVUu7oE9hjLirh0jGVq0KJtIkl9XqBTdXdSDi9h/FM1CQ+P4JGRGzmV4U1IqxfpetN5l7NK0AshhCiBvPCv35LHuw7IUvPWi9vdnc/2ncM/fg2v7tdq4GWCngHg0u6TXLo7hlc+W09s7AE2z/0/IkoZMfr4USHDNnxz3k40T1YvC8RzcPo7fJvoSdDhrxkX05h6rXowYnMwbaKqEqCqeNXvzbAVx4mNPcBPox+mqptKeoUQoi/bHlQ4kgS9EEKIYs/z5ArCwyMsj8ghGzma5k351j0ZHJX/y+ke/XwiAyKD8Dc1p+dPHcr4qUAq19ZoNXy9YB9P/aJCI0EvstV89EoWLFlmeSycP5fpgx4nJPdTYXlSdsAivnzvSf1ih7nY72MWLFnG1Cf99EVZ3t+CJcuYN3UUHcqngem1WZeNfUw7ehd3FkPL4bw/Z7n2HVi4mKlDe1PHrSCBIBwlbd1gdiW6Af6Ural9b/OuF21q+wDx7BjW2XQQMZOfb+Q1Gv/gv2sK4IlfzEXL0iuhdakbovXHWnDuOgCXVtewOWDRHl15o7Lp3L8T5PXdiDtIyrYp9O3dnb69u/PMuF/YF9yFMcOeIqhE/M6F06/+XSScvEDFho8TkM1rtn5/ffpNYPn1GvR8tS8BKlya1Yf235wB/uKHx5/k3bVh+qcLF5f0wCimP1+Zm9+MY2Dv7vR9bTk7Ax5hyJBu2X6eROHy6DCF+ytnALdIu6wvtZcXqqnyoqRcBUKo3Tecat55/Qfezsq/LgGhNHxtEv9XOZWk+l0ZM20uy1f/wEct42DHn/yjKFR4YCWjO1YDoFKXEcz8cRubJrTTb9ChJOiFff7+krmTtnCsZhuebnxJX1rsnK/ejiYBJ9g5M5bDYeE8EZz7HdgMabEs+T2R9MBgGqbf5oSfuAOE80KXOrBxJhM2HuI/QL2yjoVTt/Nn6UrULlO8PyNJnSezeOabNE7Pa2AVX/rOePsmPkxdDxWPM/v5YnWIfnU7reevRAMQSpMPNxEbu4aVr9fBM8kAVKftqfm8fMW+1oJfJy3m5xsGvBo+x6gfj3L+y3fpU8MHj6QjrNkQQtDqyUzfm0xG2XvpMvZb0zn6x2lZ2Z2UlCT95hxKgl7YzevfHzlwxo+Qeo1NS2oTPmAaMxeamr5njKPHPR6mshZ0/3gFo/s+w+DPtKbPRZ9+QP/G2vWk2UkO6sTTExZYmstnvdePxgYVCKfj1BV88PhdVmuH8OD4ldk2ywNUbFWDKsdi2XjxJ3bFV6HBQ3X1qwiRI6PH/dQLvM7JvbttlvskzWbCsOnsMDXtXq/1HIM+WmFq2tdOb5lbvMxh2/GFz/jUVP7h080xn6m9XTmUxv+JyXy4QPs+LPr0AwY1r2opTQ7qwXMfzrd8Xz42nVYoO2ARPzweTIZ/Y15ZttylTzsZz+xg6fhn2OCZ3yhLYMSsJWxJNF3unH6NuCVDuHf5dpIycu/Jr+cfP4/uw77I3JbpOvo5rw8wvb4Efug7lFn7kriSrm3bkJzAgUXDePG9299yvSDy+9cRd6QErqeAh08AAO79BvJW9fN8N/wZ+vZ+mSF7S9NqyDAetbrrWViYgU2D+9K398sM/s2Te19+lyf8sjtCjqTb2z2IjlvMG/260/vFKaw0tmDAu90IUGP5bNc/VImIsTSZppSLoXnoafb/8K9+Q0Akj9cvxd97VpBKAl8eTCSgQRuq5VIJM3qE0/veyrifP8NBd/la3OnO1wukHEkk7i6tL7IwejzBkLdaUmHL+6am/W/ZdncXRvWPzFzH9x6qHniXgb27EzPnFGrbZ3gtMrNFLLfypDbD+aCtSuwHz9K393O8tCKZsOcH8ULYTaAFvYd3ovGJJabvy2y+932Q57rVtZx2cruyl4+7dyvxp52CFj1DywYNszmvHUFEh/6M+y3ItOY8Xm8abnO++4e+TQkPj6DdqMy/QdDwxwgPj6Dx819p85smMbBdY22bjVoQM3k/QYtepO29Danf7BVm+3vYtZ0s2wqP4P7O7/DRsTKWctjMZ33b0aKR9n7qN4nh6Q9/dupgOUjQi/xrwRORfvy54nV+PpsCXObCkrVsSq1L0/ZnLGud2TuSfddumsq/ZdPNGtz3UNZm9KRG7WgZcJQ1M37mchq4J+9jw5zdnKzZhCeCbxGw8QiHq0bS2Ve7BOV6p3rUPr6XldfNLQiZzld/iEZ3nWDfRjcAAjYe4UilhrSvmmyznlezwZba0KL5Q+nme4IvZizgct4O5MUd6nznZjS9/BsLvjpiadqf+d1fpEc9xqMp2lGl4frfbNt+jlSg3K5f2XfVF79KWqes3MtL07V5df7bMJZFfyQDN7j5y2R+iK9C5MNRJLV4kNalrb8vv7JuWF/e/OIPq1cohEaCXuRBCL5ekJZ8GahGRX93qr/8s1Xv9Gdp62eE2/TM96vYSr8IQv2p8N9/nHPLTFmvf5O5pvjhE5CK179f8uvfVWj0f7WBSF4Kv4s/ty0luytPK7aqQSX32nRdqvWs/3L6g9RUA6jVupHNetad8fr27s6zb4xi3cWsBw7izuN55Qa3CKJy1A19kUXdigEYrl/mpPWv6LU0bnl6UDqjoOfGIwkprxIQ86nV92suPe/OQPXwhLKl8bth+30RIicS9MJuKeXaERF8jYQje4HLJN9I5sDkDjZh2bd399s2FV47t1m/COKvcKFMGSpa/UCmlPPBT71G8mVP4AZf7/gLn4jHqH6PbY3dVgu63evH2RWdbF5T+x8uEdCgLXVyab4Xwqzs6eP8fd2X0Lr6vh0taN+rMyHucPTcZYy+AbanhPw88E5N40aBA/gUV64rXPj2sSzfr5c+2QeXbnCttO33xehR2ur8vhCZJOiFfe7pwXPvtKTW8Q0s3lsWWM13+4w07PEeLX1LAaVRIvozctooOpTJ7IwS3Hg0Db2NQAAVev8frUudYM/PWTvkBe3/kS2X6xLz6kMEeEC6TyRt+kdR7fhOvjqjrR/48xH2la1Gx073UPHgDr5XsgZ9UsQDRN51gtjV2s0ozAJ+OsKJirV5UNd8L0T21vHBT/GU7jCMwQ83oAyg+D9M2xH96NE4lIq3VAK/28aOgOb0faKeqbwDAztXx333Wr73KuhPawILtsVRts0UuoaZzvHe04NXPpzBC2E3Cdr6C5tu2H5fWr3zMXMGZtNaJu54Bf00ChdmfQ574fAHiTyzihHjV5Bkqqyc//RDpp+5m64z57NgyVw+f6Eql79ZxLr/Mtvu449dp+mUr1iwZDZTmqfy++yxfHVNax4/euws12t0MQ2as4/lH3zJ9rCnmTp/GUs+HcyThq3MGrvccs7ckPYFPx4OpMG9bhz7dbllH9bqNq9J5eOxfOdmexDg9e8a9pwpT4P2D9gsz4m55zJUp/03K12657LIXoXvRvHO95cp9+RwZi5ZxoLpT9Mu/WemDJnOXncFQ9pXTJy8hQst3zOV/x/NTq9i1Jx9+k3lS9CaUQzeVIamoz7X+pEMaU7AbwtZGFcK2MqScavZW6O35fvyVMbPTJm9SXvy6Qsk+DXmlWXzeK3+Nf2mxR2mxN6mVhR3Lej+8SvU+6HJbZvy8yKp3XjWd7zGJy9MYLt7QZtHhRDC9UmNXpQo7e4N48ru7yTkhRDCThL0ooTQBuB5vdopfl1zSF8ohChhkvosZMuhgzaj3WU+vmZq4k39U0Q+SdO9EEKIQpfUZyHHBt9LgJpdBP3FxvKPOvVGL47UfsEOJkWeLbavWWr0Qgghioz+9rPaw/pubiG0n7CGrfu12v/hnRv46m3rMTG08l/3auWH9v7Kj2M629yj3qPDCJZu3WNpMdj99Rj6VkoBnmTS5kPE7l/KqMQUy/pXQkey8PeD/LF2NC3SVLz6f8qa7bHa8/fvYuPcgbRJNQLjWXboIJMiSwHVefjiMQ5v+9gyPr5HhxHM3Zi539/XL+T9tmUt+2m/YAexsQf4cVQEb6zaZ3p/a5jfuzRXQp9l8o97Tfvcypq3bMcByQsJeiGEEMVW+anzmPRoiOV+8UafCtTqNZ0vevsAEDp2DqMfDeEuT61c9fSlcqehfPp+hGkLLzNr5BOE+2cOhuVdM4a3502jTepylh65BO71iZyWOQrBrRfvo5GbStKhL1jZciorXm5CmPlGRu5eBEY9y9TlL9gcTOglRY9lyZiuRAVm7tctKIIu4z9jcmPbm9io943jmXu0K4WMPiFEvTKTZVP780hl0xVM7n6EdX+D8eX/s3mevSTohRBCFBn9XeliYw+w9/MnTKVDmNK6IkpqAtvHdSI8PIbOn//OlXQvqjZ+HHiZ4W1CKZWawLYpfYipH0GrD7ZyKs2byh0HM778fyT1iaK2j4pH/GpGtatLYI+xzN8bz+HNK9ngaWDD+mP8oyjUbPymKbhDmBR+NxDP4W82w6O1qKaqpO6dQq96DWn13Ed8fTSOPRuWEWcYRvcGH5nuX/8XG8vXsoyP3/f5h6jrcZW4JcPpVa8h4eE9GfDTeVTP6jTrbX5/mruVQ3z4ZA0Ce3zKL1cNGH0aEe2+jvFP1bQsw70+DZ7O7t4etydBL4SLMjc/aj+eu/jmuZzGAtCaH/U/tubH4W0bWDmstVXtJaf1pQOVcKykgQ2p66bC0dW8tCIOSODkzL60aHQ/0a8uIWngA9xbyghHV9N/8UHiDHBp6SA+iU0G9xrU6vovZN5jC8+70gk6/DXT+3XkiQ/2AxC0eiG7Ew2k1GjEi4H/cSX0JaLuzsAj/ne+2lHJ6vml8A1L59Lu+bzfrRP9luQ8PDLE0KpqGcCPsN7jWHrkILGxXzDrkUAAyoY1t1k7bnd3Fv1ZmqDDc/jpL227/xzow/I/fGyWeWR/s87bkqAXwkXd6hVOIzdzRycvakUP061hH6NvBWp3m2jVFCqE42R3jt5yR7ggX7yBlJSr+qdpci33onQQBC1dyHen00gL7cSwFceJ3b+L/Vu+4fPBD5kOXrczJvYfcK9PowEeBA68j3qqStzeIWz1UPCeu4pfrhrwbPwKc9YdIXb/LnZs+JJp3XIbHyQQT6/sOhkWDQl6IVxSCGMiawFw+fgpbgHUfYih57K7DVCmxG8DbH5wA3uMZUVcOuBFcLtBvP5vGjCM7g0aEvjhAS4rCnCNQxMDdB2ohHCApOvcAry87rJZXKte7VzLzdKuAWxmWkwfhsxbzebf4/g74QYZvtW5/+l3GP2o1soVv+oQJxWFqnWG8krtysBfHJmpfVf84+fxTM8XGb9sM9uPnuavc+mUrliXh94eZ9OBz9Z6zl9RgHh+bVU1y4FM7c4T9E9wKgl6IVzQldCXaF4zAzjPqXmb+P2mAaNPPRqP/Ee/aq6CDn/NwFWHuKwoGH2qc1//RP0qQjhN0MyDHM1QoG4nPnkqDAih2sBPmLl4BXvnP0/QzF/5/aYB6nZiztMNCTNC2V4f8VK4D6Qf5tDictzoNoWvts7gJb9jrBjegdYDh7PoRDrgjaevaT/bv2HXGQNpYV3oUiUDz5P7+OiCVlhn8Hx+W/ouD1//mdlPdCL6rWn8eN4N3L3xI6feeAmsO34JCCVqxhi61UkG6tF26HzWbv2e6TE5nUZzjmIb9ObLDv78bqi+CICkcWvlvKAQObj1YkPqqSruF46w9ttpbP07DfCifutJ+lWFKFLZdcbL/F2fyPAfz6F6hhA9fDWxsWv47vkmBHncIm73ImA24zbEc9MzhGaDF7Hm8AE2v92Cqh63SPzfFIZdLMP1c7fIKF2Bu594mznrjhC/dg4v1HHD/cI+1i0INr2K7by6Pw6jjy/+7iqnD4wizpSOmy4p+AYEE/XCGJYeOcj5L9+lXWAG/PkLM4JKWdXetcvrzJm15cPF/HLVgFfDXtopg9gvmNK9EWE+N0m9lPWGXM5UbINeCJFf5l7DcOXwt3xdyo0Pfz3BLSClRnQuzY1ZJdXvyswuDQhQVQzJf7FnTmX9KkI41dmhz/LO9wlcSdeGvTYkX+DP5UN4Y7bWtB7/bn9Gfp/A1VStXEm9TuLqCbz43gEAgja9S8zkDRwzXdsOkHxmB1+M7M7S0pmB6/3pcU4qik2zPUDQ/L68tGgfcf+Z4jI9hVvH1zDt1Wmmg4EElmw+bHl9Zv7x8+j23hdsSczstGc8s4Nlw1/k7W3mA4zCUWxHxtNGGiqF58kV2Z7PSBq3lvMxwSVuBCUhnO1K6Dh++P4x6qnn2D+sFs+sDQNe5tNdL9G0lJG4JQ2JmWz9ozSeZYcepV62I5SZpZD47Yu0G6X9eGIzstlVDk0Mo+eXuXVOEqJ4SxryDed73IPnyRU80nGCpUbvClzorWg8OrzNzB+3scc0ilLs/q1s/XIMfWrrL4UI4YG3P+Erq9GSzCMqhWdY/+CZLyXayhe92zBgxQ727D9oM/qREMWJudew+4UjbFxhrjnM5sdj6QBW1wvbx3D9DAcWDbPUkIRwLc8ybUcs53vcA8CJbeNdKuRxtaDXRiLqScvKpfEyjaKEux/+9WN4a953vBt1wbJu6Ng5fNirCbWsRkvSRlQaxdJVw0zDG9ry6TqKF+qUyty2EMVONG/WrwRAeoXWvP33IcuB7OgI7etuvl44O/pe9+HhEdRv9hhPf/izy/34CaFnPPMjPwzXDohdiUt9dSt1jaKuh4rh+hGWv/UQ4eEx9Hr/GzafT+PmyR3s+q0cAEnRH/JRpxC8SeHihqkM6lab8PCeDF52VLtcqGZnBg3Rd5bwo+Zdx1k1sh8x9SMsox8JUZwkRT/O/cFZD1JtuNenQd/S+qVC3KHm8XrTcMLDI4joMMQlf9ddKujbBWiXQ7hfOMz4n/4FEoj9egxP9+tC156z2OCpvd1KXRtQTVXxiP+Rvq8vZvNRb+AI6yf0YOLeZMCLmvf3120dTv7vQUau2i81G1FshXbRPtuG5P0sqFIvS+182glt7OwazYblqfleCFFyuVRkLUjUxgFOrdae72e9Tf/H2tOq7i3848/YhHOPIK1mnxbaiTWHbS/r0O5CBOkV69PvunUTzjWu2d6HQIhiJrPZXj2+nWnlstZMJuw5BkBqtUgGVbiuLxZCuKCSH/Tpt7hmehtBw6ewIC4d8COkRQ/6j5/AR8v/5PDODawe08VSgwn09bLdRjZUDxVvm055QhRvmc32KRzfPkJfDID3l7Hsz9Cu+W00OFJfbCetg+r5NyNM9xL3o8GQyzKmhRDFVLEPetXzLlqkZRO4btotBQ03r3Lex/w2zEMdrmf70dPEX0klJV3B6FOBqp2G8PHr2mhEf17UajLZjbGc2QFJzsGLksV8SsqQfIS9o7WavZ5//Hz2nNT6nwQ16Jn9d0sI4VKK7XX0Se+v5XznYCCeLf0aM3Cv9UAdIbzyzQ+8WCMdj/jVtOsw0tQ0H8JTPaLZuXSFVVN9K97/eSadK2SQumscjZ//ynINviF5P/Nq9LZp4rwS2pOXmvzA8pWXTEvM1xjLtcJCCCFKnmJbo/eeu8fUxBhK8/GrGd2xGgBJ9VvQbcZc+tTQzp8nHfrCFOrRPL1gCcOHDOWrb8fwQmRFACp1eYCqpbRjmYtnl2rb/vQ3fk9TMPo0ovumiVbrjmDx/NcY9u53LH2uuvZChBBCiBKs2NboAULHruXrjsF46wtM3C5t5+OI5y1N7Lmt73ZpOzO79eOTJK3U/nWlRi+EEKLkKrY1ekxjGL+5dCcnzv9HitU4wkrqdRK2zmdEj+dszqPHv/sY7T7YwKHzVqPgpV/jyuE1fPBSH0vIW69rPf6x9Xat1xVCCCFKqmJdoxdCCCFEwRTrGr0QQgghCkaCXgghhHBhEvRCCCGEC5OgF0IIIVyYBL0QQgjhwiTohRBCCBcmQS+EEEK4MAl6IYQQwoVJ0AshhBAuTIJeCCGEcGES9EIIIYQLk6AXQgghXJgEvRBCCOHCJOiFEEIIFyZBL4QQQrgwCXohhBDChUnQCyGEEC5Mgl4IIYRwYRL0QgghhAuToBdCCCFcmAS9EEII4cIk6IUQQggXJkEvhBBCuDAJeiGEEMKF/T8o6NNZPNAIrwAAAABJRU5ErkJggg==;" parent="1" vertex="1">
          <mxGeometry x="4.180000000000007" y="283" width="293.32" height="105.5" as="geometry" />
        </mxCell>
        <mxCell id="g8Hrz8pBSeV4qm7vl3dj-24" style="rounded=0;orthogonalLoop=1;jettySize=auto;elbow=vertical;html=1;strokeColor=#808080;" parent="1" edge="1">
          <mxGeometry relative="1" as="geometry">
            <mxPoint x="440.06" y="344.2600536193029" as="sourcePoint" />
            <mxPoint x="300" y="344" as="targetPoint" />
          </mxGeometry>
        </mxCell>
        <mxCell id="g8Hrz8pBSeV4qm7vl3dj-26" value="" style="edgeStyle=orthogonalEdgeStyle;rounded=0;orthogonalLoop=1;jettySize=auto;html=1;" parent="1" source="AcxdMaKK0mU5kZiv2lnr-38" target="g8Hrz8pBSeV4qm7vl3dj-25" edge="1">
          <mxGeometry relative="1" as="geometry">
            <mxPoint x="141" y="108" as="sourcePoint" />
            <mxPoint x="141" y="203" as="targetPoint" />
          </mxGeometry>
        </mxCell>
        <mxCell id="g8Hrz8pBSeV4qm7vl3dj-25" value="" style="shape=image;verticalLabelPosition=bottom;labelBackgroundColor=default;verticalAlign=top;aspect=fixed;imageAspect=0;image=https://cdn.icon-icons.com/icons2/2206/PNG/512/iphone_mobile_phone_smartphone_apple_icon_134096.png;" parent="1" vertex="1">
          <mxGeometry x="170" y="58" width="32" height="32" as="geometry" />
        </mxCell>
        <mxCell id="g8Hrz8pBSeV4qm7vl3dj-27" value="" style="shape=image;verticalLabelPosition=bottom;labelBackgroundColor=default;verticalAlign=top;aspect=fixed;imageAspect=0;image=https://upload.wikimedia.org/wikipedia/commons/thumb/4/46/Bitcoin.svg/200px-Bitcoin.svg.png;" parent="1" vertex="1">
          <mxGeometry x="178" y="66" width="16" height="16" as="geometry" />
        </mxCell>
        <mxCell id="g8Hrz8pBSeV4qm7vl3dj-28" value="API" style="text;strokeColor=none;align=center;fillColor=none;html=1;verticalAlign=middle;whiteSpace=wrap;rounded=0;" parent="1" vertex="1">
          <mxGeometry x="300" y="316.5" width="60" height="30" as="geometry" />
        </mxCell>
        <mxCell id="g8Hrz8pBSeV4qm7vl3dj-29" style="rounded=0;orthogonalLoop=1;jettySize=auto;elbow=vertical;html=1;strokeColor=#808080;" parent="1" edge="1">
          <mxGeometry relative="1" as="geometry">
            <mxPoint x="485.61" y="411.5" as="sourcePoint" />
            <mxPoint x="485.61" y="570" as="targetPoint" />
          </mxGeometry>
        </mxCell>
        <mxCell id="g8Hrz8pBSeV4qm7vl3dj-42" style="edgeStyle=orthogonalEdgeStyle;rounded=0;orthogonalLoop=1;jettySize=auto;html=1;" parent="1" source="RLjyjs_sm2IHfBNOWAbh-1" edge="1">
          <mxGeometry relative="1" as="geometry">
            <mxPoint x="730" y="622.7549999999999" as="targetPoint" />
          </mxGeometry>
        </mxCell>
        <mxCell id="g8Hrz8pBSeV4qm7vl3dj-31" value="" style="shape=image;verticalLabelPosition=bottom;labelBackgroundColor=default;verticalAlign=top;aspect=fixed;imageAspect=0;image=data:image/png,iVBORw0KGgoAAAANSUhEUgAAAo0AAADZCAYAAABFLQqFAAAAAXNSR0IArs4c6QAAAARnQU1BAACxjwv8YQUAAAAJcEhZcwAADsMAAA7DAcdvqGQAAHZPSURBVHhe7b13uCxZVff/qaoO55x7bpw7DAJDVIK8BAUJIkEBCa8iQXmNIP7EhCBJMggMOQyg8JoAA6j4IqIooIRhCAPDADNkJKcZJt258aROVb8/9lrT6+6pztUn3Ls+z1NPd1dVd1VX2PtbK+2kKIoCx3Ecx3EcxxlCGs9wHMdxHMdxnBgXjY7jOI7jOM5IXDQ6juM4juM4I3HR6DiO4ziO44zERaPjOI7jOI4zEheNjuM4juM4zkhcNDqO4ziO4zgjcdHoOI7jOI7jjMRFo+M4juM4jjMSF42O4ziO4zjOSFw0Oo7jOI7jOCNx0eg4juM4juOMxEWj4ziO4ziOMxIXjY7jOI7jOM5IXDQ6juM4juM4I3HR6DiO4ziO44zERaPjOI7jOI4zEheNjuM4juM4zkhcNDqO4ziO4zgjcdHoOI7jOI7jjMRFo+M4juM4jjMSF42O4ziO4zjOSFw0Oo7jOI7jOCNx0eg4juM4juOMxEWj4ziO4ziOMxIXjY7jOI7jOM5IXDQ6juM4juM4I3HR6DiO4ziO44zERaPjOI7jOI4zEheNjuM4juM4zkhcNDqO4ziO4zgjcdHoOI7jOI7jjMRFo+M4juM4jjMSF42O4ziO4zjOSFw0Oo7jOI7jOCNx0eg4juM4juOMxEWj4ziO4ziOMxIXjY7jOI7jOM5IXDQ6juM4juM4I3HR6DiO4ziO44zERaPjOI7jOI4zEheNjuM4juM4zkiSoiiKeKYT+BTwwSOw3g6fe0BPZPZyAT91Pbj3Sd9wHMdxHMc5NXHRWMIXgHetwOETUKSQZWF+LsIRoFZAI4c6UCTww9eDXwD22h9yHMdxHMc5RXDRGPGn6/DNa2BpF6xshHnNJiR5eK+WxiyHpAiCEaBbC68LHTh7EX5hGW4YZjmO4ziO4+x4XDQanpfDVSdgMYP2BizUgzjMS45QLCILeU3y8B0IVsilFO55wN3YjuM4juPsbFw0Ci8/Bt/qQd6AWg3yNVjOgjUREYEWnaXuavFgU6TQTfrzm0WwPu5uwWIDbn49+HnPQHIcx3EcZ4fhohF4+SE43IO1DDYWwrx6Lwi+JL+uwFPBqNbFPIeazMxr1xWNtW4QjWkKh5vQBnb34FYH4GczuIGs6ziO4ziOs1057UXjOUfgmIjDXgodMRnWir6bGbEk9tK+GLQkORQ9SJMgGvV7qaxcy4PS7EjsY5JBpwX5enCBL9dgdx3udxDueNIvO47jOI7jbA9Oa9H4/ENwrBYshepezsUlbQUj9P3JsWjU2Eb9jSQN81R0qhhtA0UWrJNJHl7TevjBpBuskLnMTzK4x154aLQtx3Ecx3GcreK0FY0vuRJWMtgQ62EmGdG5JL8ouWRHp3KUeil00747OpH5uUl+AWh2+8vbKbSyvlgsemHFNAkisydWSgjisitxkQCLwF2W4RHy3nEcx3EcZys47UTjNcBfXQYbtRDDaEvoQLDyWVQ0IvUYoZ9Nfa3QFGsiIho1DrLeC+IvT4JohL5FMU3D7+VF/7MKxZYsU5YK2N0JdSHP3gMPbsBZ/cWO4ziO4zhz57QSjRcDbz0MSx3oiqvYijOM5RDjem6LNbKbQtPGOcYubCEVF7SiLu1eerJoRCyU+r5IgqVRUVd2Q/ZrYw3yFpx5Rqgd2T4BDzoIdzXfcRzHcRzHmQenjWi8EHjH5VAUIZYwyYJIU5Go4lE/x6IvN9nScYKMrjMOhRQBH0QsYpXEpHCrNXSjE963RNTeewl+2bjIHcdxHMdxquK0EI0fBM4/BqsbQfDVakGcqQhUNObQCkZEJJ7RDLGHK53+GNRW4E0rGpNIJMb7ZCkSqGVhWx2xSmp5n6SAelfqQgJ32g0PIbx3HMdxHMeZlVNeNP498OXLQymcPIe6cQUzRKS1Zf5Nl+CPGicve+1RuKIbvqsJMAAPOAg14MPHYb0d4ho1YQZxbxdZ/7ctmnXNkH1CS/8Q3OudDNZlfr0XtlUrZDzsLGSCA1yvAb+QwI/aH3Icx3Ecx5mAU1o0ngt86wQstmBJfMytet8qaHNedOzotAgCcyWB2y3D48w6lleuw5VdaGnWdA9efuBk1/BlwAfX4erjwVrZIhT31qSYQtzKRdIXe1Y4duhnVWdSS3JRkm5aqQhHs/1aL/ynNIGOWFMRK2RH1tmdwoP3wE+ERY7jOI7jOGNxyorGlwHf2oCFbhBLezaC5W/V1EpEXM+tAoqFEOuY9oKQu+1ueEz8oxHPa8Hhdvitei/81isPxmv1+RTw7kOwIoKux8nFxGPR2DOu60zczw05W60sTHkRLIxJL2RX1/IgenuJWDZLrJYdgoUyzeFOe+FXgV3xSo7jOI7jOIZTUjQ+twNHNvpWunovlKzJ8+AaLtIwtF9Nyt2sF9BZgNpCsNb99G54YPyjA3j2Gqz0wjYA0hq8Yjle67p8EnjvsWCp7JYIOxV7XanvqKJxsSe1IiUBpsiDJTHLZTKC04pGjdfsiGWzJfUmW1JPct8C3KUW4iD39XfDcRzHcRwHTkXR+ILjcEUeEkAyE7vY7IRXradY60LeDaIxz2ADaLXh0TeBe/R/biyefUyslQm067CUwMsnqMR9NfCONnxnPQi5XnLyeNdJ0ReHC3kQwy1xp2tMpdaM1OzvXhKSZQopIB6LxraIy5ZsKCOUE9oPLMnrPZfhdrIPztazKhbiIcZsZwv4GvBl4H+A78g8eRajEMu+zutpTDKh1uptgLNluuUcH9iuAL4t+/roeKHjOJtCIffgreIFO4hTSjS+/HI4kQZrYl3FU2TF03jGmizPc+h0oNaEx54JP2JXnoBnHwlu57bETO5L4BXNeK3RXAH8C/DttSAcc4LrmZ4IxHoQfWkalhfyhzQuMpXeSq2X1tKon7UTUxe5kgHNVOIju6Gcz9piEMEPrMHdzbrOfDgBfBP4opSJ2hAR35Akp4fU4SfjLzmbyjrwN8D5Iv5qhFqqNkb62ntM1tFX5J7W943os97zADcF7k+4764v8wbRBb4u07eAS4Bj0fIDwG7gDWa+45yq/EAelC4B3gN8ROavAp8F7hCtXxV6L35eakO/DfheFAK2Yt7vNE4Z0fjSy0MHexIyykpPEk6IROTuWhBka9fA838YlvqLJqYH/OYPgou7sRAE3vWbcM6MRRP/G/jYseBCz7Mg5DqSBV6vQ9GFbs8UCO+dXDKoTDRatHNTkix0fgudsL0TC/0Y0FoRYj4ftBA6M2c6PilPm18BLpd55pTRlfOSSMmkuliBazm8sAZ7zbrO5vFF4FkiGmuRwItLW8WNajs6x5gHWJ3fMcLzOm2ZbOPGBOv/l8Syifx2S66XhkxLsn9abUGeN/lV4FHR7zrOTuQo8FUjzt4h81eBNbPekvmswq0K0fZOEaTvk31Yl21htqef4/LLVWx/q9jxorEAnnIYlrtikVNEKPbM8HyKjsyS5eHJ+zkHTl4+Ld8HXnIUGtLy14GbN+EPopI903IB8P4VWOlCsxFEXZ5Dt+j3Nokk5gyiTDQWpsi5ikbtybomacfGSBYJPCeFm1z7S864PFLGEa/J9duTTt+SSaevZT0zuZ7+PFrP2Rx+X0R+Xc6LJTcCTdGHsbJbMX5QU+z3N6LPDKkFq9eGur7Ltol0YK8V0ek4O50zzcPZgggzfdhalddl8x4Rc0vRvGk4JNtH2vKkRCjqtnYZkZiIa/pi+bwTidu/HcUh4Nd+EC6ADSsM0352cUvGly5q/alOiA3cl1cnGJG4pBftCwK2kQfx9u11eGO84pTcA3j+MrxqH/z6EnSacKwNi91QUmipBwtFv7PJSyalYwRjTE/EYk9jIXshS7tHEOCtDDZSeEEOH4u/7IzEnodCPqt1USe1YrVl2SDB4MyXY8AjgG/IZ20w43sqj86fLos/5xp/PEAUtgcIRkrmqUjU9/VI1Nrl67IfLhidU5H4odti3cJLY4R6jMOF5v16ZNlcM4LRWjh3yef/Y9bdiexY0fgl4IUrcMa+YNnTGMZrBWMNNuqhpE2vLlY5mdIEzkzgmXPIKDgDeOT+0MAXEl/5hRPwD/GKM3Ib4FXAX+yFc/bAPZZgdwsW2sG1DOG/b0iWdSsN7zuEJJlCpkH05Ps6FUlwkS7lsLsLyz1Y7MA7WiGGyhkPdW2qUNRYtkXT6et6LREQHVlvxAiUTsUcAX5HzgVybqxQtOfLzrfEQs8SPwhYK6FdpuKvF4nNTOati+WkJd9fiCyf+r0ZI2UcZ9vwWbnmr5FpFThsBFsi06pMKtoAfi76rWn4kLE0DmJNtqnuchWQ94nW22nsSNH4YeCNrfBUnuQheaNITQyjWMQ6UpOxSMLnQrKSD9bhj/bHv1oddwB+bm/fTZxn8OkW/Hu8YkUkhBJBT9sPzzkIDz4Y3O4NsTqqQNRakEpZqZ8YdUnXChmqUMoLLXT7nda5ZQFYTilflA5cRaN1VaoIScQCqcv01a1Em8vvSEekYkzJzXnS5y61KipqKe7J/A0ztWWywtCKPLusTFjayc5XcYv8VuwyH+N2d5wdwUejOEF1D8cTxj2sLuL7me9Ny/+T16UhE1F8pVof7ySfdyo7Lqbx/cDbN6CZ9X0/C4QEDS0r00uhlYT4PKVIg8v4hhk8eYJyOLPw38AHjsmwgfVQw/FBNfjZeMU58h3g7V24RoI4VCi2pY6jHebQomKxK/GOdRGJRdoXiyrIWyncqg5/HP+Icx3eKA89uYnHSYwVUTNtrXVRrUtPBX7M/JYzP35PstjV7RXHMlpx3zIdw7IRjPpQ0BMhqFhLoT7E6Xc6Zt3FEtE4CisWVbDqb9wXeGm0vuPsRH5WYvwxYqwMK270oeoy4AZm/jQMcdJdi7qnrZuaaJ92Ijvq4fN84L2HQ0uYbkDTFNUukr5g1JI0ilrIbtHYPMEI8ADg7nvD0H+1LmS1kOH17njFOXJT4I9r8LK9cM5euPPuMF+FSDFg1BilptZKWacmsZpKN4V2Bh/vz3KG8MV4hjQi1lWtxO5oHzt8c3g/8F0RXPbWsC5oFXcqGK110K6n8/R+s4LRkhuhp8vHEYzx7xJZRS1eMss5VXi/iRGMiS2NyqJMswpGImui/m48qThck9q6c4iG2xKGyIXtxXvb8LHLQ9LH3lYYT7rRkid+aSXjmoyaEZwBt1muLot5Eh4O3HZvGJFmYT2I3X/9QUji2WzqwC8Dr9oNr1mGuy/1hx6MhaOKQ53UItkToajLdX4iiUnOcAYFbMdPn+r6TMxNOkXZT2cK3ixlazRcII4FzI1YPGHiT3UZ4oYujIUydl01ze+Kw+TaBJjFElE5DplsKzVWRstdos+Os1NZFHez2oAGCUXFxjTOylfiGWOgsZUPixfsQHaEaHzbCfjMNUEUNgpJwugZYVNAPsBe3CjgHrvhsQOWbwa/AZy9C4oCzqjBwf1w7uHyWmybya8CD102ZXTE6likfetszQhDJZGhD/V79SKECLi1cTRxR26JhSM75QY9hfiYiTtU4nMQn8NMRGBmBKCKvvi7MdbymEVCNXaJz0oVWaOOs9VcLQ9qOo1Ck1FWJVF1VtQtPg0Pj2fsQKpsk+bCK9fhUy1YqV83GF3j6mILI4T6hbU8jCP9iHjhFvD/NWDXQngUqnfgWA5P/UG81uaxBrwd+IdWSBhK0xADqnUaGzIKSWZc0xYNxO+mIYv6jDW4eNBjngOSjRu7HG0yBQOEI8CeeIYzF14n94aGClhXs6KCbolQaH2fTHURjC15VZezDmlqJ12GLeAuU0M6utjiGF87GMtiGfa79r3j7GQ+La/qBp6Ex8QzpuDdI6yaw/iJeMYOZFsnwjyvBVe0g/jb1Ql1CFNCyZi2WLrKBGMmrfyDD8C944VbzJ8dhWvacI34GhdzeMUcM7mVb0kCxkUboQNZF9+YWhGX8nBskzyU7Mm6oZPaqIfjbTssa2XMM2h0QnxpLQ+xk0455wFvkfdtEYixAXzQzfgzwG/HM51KOQo8VN6r6zgWjIo2O/qq7unrA0+ZsHNoyTBj35AO8YtyHRSmlM6gDireT9sc6oN1Tx46PmCWOc5O5VnAX8u9McrSuGgsjQD/IQlhs7AUbXeYcNX1rBt9p7NtReM5K3BECkrXclho9ceLbmXQqfddSDZUsdYLQuyRB7dv4sCfXQWXpbAmo63sonqxdRnwoR58/jgcr8NaFBCnFo8kD8dvdy8UPK/3IJNM9I6Iy40s9EYqHLuSQa0jxSSSLFPL4VVL1xVCTuBlMuwVRjQiwlGTXlR8WMtQIUJkp5dq2O68Afg3eZ8aK6O+j1GBlgPHgT+oyJJhOQ5cJCVG3hct0/0aZEXU+7UntemeFy13nJ3I2VKbcdeYcfQ2AeXr4hWYhcQkway5aNwePOd4GOGlkJY6y4MYrOWhAWynwQKm1q4kD+7VfC2czBeetf2TBl52FVxj/kczgVcvx2uNx7rEE376GBzryFjbUnaoa4ZRtBZCZDzjTKwQ91qCnypxg770GBxNg0WxnQa3P9JRFZKp3pPP7Q78xnIYuca5Lr9mklla0pmn0gipxUjjXDWeTcu6vKkkm9qplvsad68O8ahu5jJUtDVktKbnxCtUzO8AXzCfrZgtE45tmX8ceI2UKXGcnY7NXL4mWlbGQWl3N8YUmcPomtAURojGdVNuZ1HErhoNdjLbTjQ+41CwImLczBn9caXV5dKthVg8JQO6R+EVZ1eXJTVvXnQITqSwWg//aT/wEimJM4wrJGD/M1f36y2qgEMzJ82xqff6F3Y3hbN2wT3S0NGNI0SevSLW3aQvGu329PPGGtxkL/xJf7ZjeKQ8HScm7k3rMDZFpHQjV2NNpr+MfsupnnvJedB7IjGi0VoVLTVZ9t5o/jy4uxGHhbzXpBx96FByUwboBPBJaV8cZ6ezBBwQEZiMIQRVNLYkiWYWLgLuKu+tICwjFo3POEWs/dtGNF4GvP5SWG0Gq9ZCCqnsmZbOscW7e/QtaMjT/qsrdvFuBi88BOtixcvykBl+011wv8V+PakvAZ9Yhx+shv/eTsJ40B1gQ1zc3Ug05jVIu7CnB3fdC/efoU7UXwBfbYXxp1OJdcyN2tTtIy7qN2x3M+8W8QgjGm1NRhWG+r4jDU1druvdwGvN+k71XCnlqArpYFQcWgEfC8ZFEWY3l3tk3ljRaBwGdAaIxp4mCwKfipY7zk7kUuCWxtI3TDTaeMYDwO2B98QrTcirRPitDxGLSiwa/0seTHc620I0fgl4w5VwRg7tJnSNlezaWoumxdYC3ojlrC61B3cilwH/ckUYVaVt3O1JERJQKIKFb60h40jLcICLYmJIZGxotTbua8CPp+HiPOukLU3PF4A3d6FbhKSXXMIBILzvptCuh3n1Lvypi8brcAXwOFP/z3b6hXTydRGIHRm+riMN5APZfgldpxr/IMH1ZW7eGI0VzMTa8QbgjtE68+BeRrg29eEwsoQqul4m03nRcsfZifyrPHxbwVaWDKNiTQ0lBfBi4Hej9SblzsCXx0yEsaLxoIwwFYd/7US2XDReBPz91bCcQHcjuKbrA0SHCkcVjUUaylWM49Ldzrz5sr4gbCWwIT1AW91MKZxo9IVhvQt7u7DchdseDBaIG8U/WjFPaYk7tZBi6iIcu7FoXIenLsON4x84zTlP4hKt5Upd0z8C/JC4PX64xGrkzJ9HA98XC3AvOgexG9iKRo0nnjdfBB5vYl6XZD/UhR6LRoz1+qAZK9dxdjKPB95msqEZIRqttfETwB3iFSdkyRQJ1+ztcUXjrK7x7cKWisbzCKOjpHVoNqBoh+H2UtNiW5eQJnGoaNxbh+epnXoHUyYa140bvpOFLObdDbhvCvcRi9Rm8pzjwdrZFbGupXoKjTVVa2cP7rYQOmGnz1ulTuOtgdtWNJSVUx2PlNi/oyLGloxFWK15g/hgPGMO/LV0lsg+deVVxWxMz4Q6PE6SsBxnp3MjiU1U0TLMPY1xYxMJzWmxIV5rY4hGZB+WTiHRWPaAuin8J/DeQ7DYgEYmjXI9vG+KEOlJ1m6eBaFybWJMDmc3Tg3BCHAigzXJdlYXNdLwdxN43G540wK8NoWf3wLBCHBWFo67JsAkabh41P2lZMBnVswMB4Bfl6fk+7tg3JbsBZalQdRrWm/FdCsbSuG8kv3Ih7jTM/FUdIG7xQsdZ4dyWF7VGTmOEFyraAjBS6PPB4YIRksO/Fg8cwezJW3h3wIflseDIr3uU3wvgY0mrC3AShNatSBYGkCawA/vhSeOc7Z2AC8/BEdqsJIGC2NbrIwqHv94L9wm/tIWcM9dYYQYpZbDQi8IfJ2f5KGMz574hDrONqYlncqS1HBbMhbGbpTRjnFPA9zKvJ8nV5v9GOf2Uhd7A7hFvNBxdig6DKDWsx0lBguxTk5Zze4kPiklfsYp82PZOEXGnFY2XTT+eRc+e0gsViIY1e2c5ZCJ3Vldsh2xNGrixW32w2MHPV7vMF5+DA6ncDyFlZqIRU3wkdftEht4RxGKMZrhfm1HKkk8duxex9nOfNkM4bcsw/oh4kwzkGN03mbVJFWrYl7ikh7WHA5b5jg7iUvkdVXu0bURrmmNZywqSiTUMBSNU9T44mGoM/Tu0fydzKaKxnPX4evHIan1C1AnWbAeJkWIZ7RZ0kj2dJIH6+MdD8KjTl68Y3nlYVjNoVcPU5GErPFM4gPTNByX7UQngbQXSu901P1V65fbUYoELjx5luNsW74oDWHdWOdGNYypdEY/Hi+YA0dF0Np9KhOyjnMqY/sUtTSOQwu4XzxzCv5ORKi6u7V7Xi9Jxok/b0Z1hc1iVNtYGa84At9fCaIjKRGGtW7IzNWxpNNeKO9SE8vVvfb3x4Xd6Tz7CBzV8bPlWNx1L9xybxBgJQa9bUErO7kWZFfqS9o4zK48EFwc3zWOs035vrxmpiMYhd6jmxE68hlTRNyiVtBhAvIu8QzH2aG8R+IKx+1a1sUSuWoKcs+CHcNaX3VfyqLlyuadCsTt0Fx44SG4ph1i31LCkID1Tn9qtkNsXEqo+5cXkHWg1g6vv7QbHhT/6A6kB/zxWhg6sFULnxcTeN3ukL35u8CPinDUWo3biR9ZCvUkkzy8rqUh69sWWS+SEFKwFvvQHGebooXWe2I91LqZ24VLTOD/pA12FW45x9kOfFJeF+UeXRoyYIXNkV2XUmazYvM710eMBqOsxTNOASZtgybm2VfBES3QLXFxdmr2goXR7kgG7G5BfRF+e28YE3mncxXw5I3QGdWKkDByZgYviqp9PiaKHdxOY1XeN56hFkdraZSwA41TdZztzoqMz7wiFoRx4nE38/L+gqkfOY6Y1ezv7BTL2nROb1YjMbiZfLkkmWZQyZ3YEvrb0eedzlzbvmcdgtVojGIly8OUaqZi3h/XuNGFXT14enP2YpzbgW8CrzkCjRbsXoP9a3DDDJ4WX4WCPSkXDPM9bTI/QsiYrveuK/4xCU0QMsG/3f/oTMjXgffFMzeBL8czKmAd+JwUmD4XeAHwVODZwJ8D7zAu4s3mmzJdIQ92KxIDpUkwtvyOTlpGdrOS1Dakw1ThOA5aY/KG8YJN4DBwcTxzi1gBPgu8HXhuvLBivilxb0+OF5yGHJIyUW8EngLcU6yCN5PXxMQFauWCWwG/KUOmfkBGS1NWRKStyXd0WhXRppNFBeaZ0fxp+GhkadTai/E2FZ2/BDw4WjaKE7K9VwEPiP6vPWZnSw3Wd4yZlFMVcyvu/Xdd+PzRvhWqKULDktJPgtEGutGFpQKeNO8hTjaJC4H/PBxEVJbDUgdutgceNehqA567BsdFnO3pwvMG2eC3gGeuhBhGtTDaB4Jrs+AJoQh3aMCjSh4YnJBI9A3gKzKM5sdFqNjYtV2moHOVdCX542LZ7nHTKBVSSHqW4a4+JPFHXxliGdPLQpfrf76ziMoqeJw09HlJIolyhbEMdEr2R7OP4+/az/qd3GQ2q9BEBNyilPPZLRaLHHiZLB/Fw6UjGSf43253UerhVs26nNuviuv8E8Y6u0u2uyCd2WbwPdmXLwEfA74TLbfH7Qvm/bQcFlfpefIfW5I8pdbqM0tq+lXN1cAfGutzXnKN2ms5N9dyLsOTvtysOyvvlnbjY/JZKxAoLbkH63LvnzCZz0umWHdZCZ1VuWdWRTTa9WOslU+72CcCLzHzp+FhwL/Jb9qi3ep+tt25jXNcl+vzbLM8pgv8I/CnJQ/tsdVSsdu2vFm8lfNkbqLxOVcGcRE3woqKjSQLorGbw3IH9ubw5K14PJ4D7wY+cTjEAKqguumB0ebqdwEfPAFLXVgo4E8OxGtsHX9fwFdWTxaOyPm0lsYihYUuvGbAkJCnE/8P+HQOV8r90InKpmgsHSIaF6TBuVsFro11eWr/mFjz1IqGdHQ12X5Hw0ek4Ykb/VG8FXinNICjYgK1A8sjV/CydCy7xBI5S5LJ5cDvyO/rf6uX7FfPtE0dE98Yi0ZL3JZR8rtKLsd0vxQQ3ye/uQA8P165hMuA35fzOI5oVAtjJsWH/zFeYULeJMLwe3Is12XS60Ytn10Td7lPrq3/ML9TFcfEatUdcG4sel0jx/7AFNb7b8uD1XuN9XRNfrchn+013JB9fMKY53da7ibidVhx60H7tyQCe1beJw8+X4sXRKgVbMFUKFiT/VeRqANW6L7a77Si0joqGvW7cVIKkbj7wIDQqklIjMUyHtlFBVwsHBeNNbSMvwGeJw8YZb8xKbrN60tbPC8vbVn7NzPvlNdaHiyHcRkdFRhadkezb5vpqSMY3wKcfyyUClIxdfsxBCNS+82OfXvCvN9q7hmbiEroAasJrOrgt6cx/wJ8pAtHi751LRaMGEtfJg37HuAnzHrT8hjgDcD/mI5WxVNhLH49MzyXvfaG8Q/iTnq0dKp1+X0VXoMukbJGp26+tyrWxlnGdP6csb405ZiW5Wbpvozr9mXI/0J+r+z/teU+vlKEyLijOn1WXvXYjEK3XaughmQL+DOxJK6a46e3dSbXSyHvVcTN01X2YekcdVsqXMsmKyoz4GfN53F5hFyLF8tv6DFQi2pd3u+S94XMn1WsD+P3IsFY9lzekGvO7h8yb5b7CrEo3lYsncME44ZM9gFU7/MN2aemHLOaTHrt7Im+p65ma2GzYqzMIqcCrIoKArtke3ab6lYvQ7cdWwMvA35B2t0/NBZpXa/sf8Tog1u87qLs03GpC/l30fKqKGvfZuYikeJZLo1JFP+mtReVRIp6P+us/rydzP8FLl4JYrFTC9nSdzkQMqTHQaveF2kQnWry3w7cTK2L1qoYuaBVJG8k8K2TF512/DdwqAbrWV+YWFGmna1an1Tg1PJqnhQvlUakEzXOu+QU6igjum9xZxvzNRGJDxTReLXUEdwwFsaGEWyKXjI6qWBdkP2x4nVdRl2YxU39UfPfOtJZZiXCIo+mcRn0PftZX7WTXBWLyXcneCA4f8zEnDJmHT7w0+b9CZli4d2QadFYyzfmWL/yw/EMQ03uHytgF4z4uJdZd1weJf95zQgaFWJL8loz/12XMSf3/FvlGHRE1CdyfbSiqW0elFTkN4DXi9V1Gi4X69Xz5Z7XIf0sKhTtg8OGOX6HZd/0nKj1XOMV1bJ4hayr21BRZUWYCrkyrKAa9wFtEIMegtRdPgytz/gtCb25kXgSGfJdKwrLpkUzxcusC/8pEipUNXMRjYgQVMo6oUKEY1KEG+03qohW3Qa8oQvfOxbKCvWkYPeDd8ND4hVHsCymhfUUPn0kXrr19EQ8xoIROfc6Usx58cLTDLUItE3HYlELI9Lh1KRxL7tnpiEWNESdas/sW8/sS8wFwGMlyP87IoRUDKlb1wqKUQ2Lfe7QTi2X31MXeg78sfnOJNjYILXgDmPU8lF0ov8fC9CWuC3X5fyOK2C+agTuuNRlG3eKF0zIBfKq22/LpPvSNaLRHr9sjiNgfEL+XyxMBjk19CGJKY/HE+W1E90bavm1FmC1Oqn19ZlmWRUcAV5sHoIwx2FQOEldrrk1Qp3jaYeze5lY7C4zYnUhEokqDssm5DUxwlZZMwJR56t1tEwYzuLCnQYtKm5F3tIQK6OlKcks/6skXrHsf+jvDpqIRGIZ6/LQvQr8UrywAka17VNhBWNZg1eTrOlMino3u3C7aJ2dyMtacOWJkASSyf/79SX4mXjFMfjx/eE4tlM4OpezND276zIM5ACFUctDPGO96Hc8pysdERAqKlRY1I1IrBnrY1bhTXmFNEwagF6XfekZy6MKWRWvsSXp7eLi/nvpqGrmKbcpr2o5zGWdMleqisB4KqMuDWRq3LOTslFyHON2aBTWIjwKPb5KvO2m/Cf7kDAOai0dl1yuoUEiahLOMw8H2o5ba5YKxXVJAFFr7p6KXIJl6DU4Lnb/p30w+Lno3qiL1fWYvK4NuFZqUgWhKn5OBHoiryqmVDA2zYTZtyslzu01Mn9Sni4WSm0rrFgsE6tW8Omk88uI1xuXslhGFVYqyO5slk3LR6LPSyVimAEi7vMS+1lmJZwX+tvL8v450fJZidu2TSeOd9ypvGAdDrVDjGarDQt1eMLu6S/aexOKnK/l4WIr64i3inuUtZARGoJwipzeqYgDpsssjTF1eehqVnBnfk4a4jjmSUWsdqj2HHXle28jhFO8XTqfFVmWDuggc7N8GqzlMTHiFHHxT0p83U0qGKtA/5MefxUt4z4g63liBsEzC1cagVZ2/NrG/Wmtjy1JOpkHZfsxillFtIqtWOx3zUNAWfvcAZ4Wz5ySJ4l7eN3sx4FItFnBaDkQhRpMwjniErfE7loNAVgYIvwGzR+HXaYtiMVWmVBT1oFfjmdOwT/Jq7UsjmtpJBKK1koYi91xf28cFiUUZmOGh4VBTNvGT0QvDa5MO6FWD0mE+fOyu26H8ILj0NsIBbuvPhrK5TxtabY6bnvVIlSEEVbip52t5F5RJ6bnM8nD1E1hvR5el6Zp5U8RLolnjEmawu3jmVNwkXlfRNbObmRV1M6vEMvCmyVu6biIgOMmNnLeFKZDbpoYoHGJ3UDDiC2eVrzOilpMtWNfl9/+9Wi9QXzKCMdxbyMV9LO0PZbMxAmqKKkZV7Vas9RF3ZPrZh5okfNu9OCSmamMLnCLeOYE1MRi1ZbOeEmE2GLkMcDcR3qfVZGlfJ5U4qhFCUkN2bY+jOo5SSL373vN+0l4N/C66Le2klgwDmJJ7rWlCcJAhvH9Ehf5IAaJwlFYy+UsxNvWrPMq66ZW1T5eh56UZNGxpGNsQ12k8I3V7SWMxuWZK7AuY2YnCew5AH9+g2qeGhZqUK+F+M8LbGXRLaYuFuJRwxxmQL17+rqop32670l24qx8zYiO2EpiGUco2fvVumJVdFlLTmzlm4ZcGr7eFNUDVGypG7VTIipisTiIsuOiIi6eVCiowCvk+7pM1xs3QeWTE4p0PSdJBWPtjhJ+9nz3zPHtDRnabVY+PuI6Vuy+qS3inmbeNKh7Vq8hFa+D0FhPKii987tGEOpvWrG4K/JibBiB/4cTWLZjfnOA+3ka4sxj/Txovv08LmV97rwSsuZFHAdaFe+JZ8xAWZs4M7sWgoAqasFqUiYctaNS93QKvOtEcI3tFB53FI53oZXBiSxkC79q1lQtww2XYONIKPJ9PPYJbDHaeMXCMUOGhzQjxXxoWOt6CqOZ4xq0PozMCIxcRkeYlXRIx1YzlsVc1svl84LEpe2RuJi6aSj0fc10znot1MxvKeOKM4t+RwXfJMIJqUnZMd/vSUeqx1ax7+NtpCbms0xUd+T7un8b5glft6Xby83ySW7jSZLI9PrpyPWmWZvTMspKnplrQC2RKqh+Plq3Ks6PRERZmEQZvQpiLG8E3Fx+qz3BeWxLiZppeVDkBkf+t7YpegzU6lgXK2hDSi49Q5ZPymPlWA+KW8RkOo+yRK4a96uKQv2sQm+YWJxEOCpLIrwGWZ/H5bIptz8p1oWtkxWQKiLHdWPHVtm/jT7PQtwWVsKd94pLOgnTIGqmJI+WaXnbkZD5s505Bjz2CmguQKMW3LCNrFrBCPBjNVgedMduMXcwV65NfEJu1KYIR4Br1PRyGqKX/yjhNMJoOxfK4rxUINVFDFjBqMtt52UtH1XSMSL08njhCL4eiUBrGcV0JoWxCg4jbiRT0xnpb6t71oqnrkkMUsvTuKV2kHZmXOJ9/JHo86RcIP9j2PHR/xl3zPPKnP56Sab2MDQEo1aRxek1Ivz1d8cREw2xBE7jIn6+ZM9rGMCJSDA2zHWuQkOv87oMKjANG7K/w+JSVTBijoMKaRWAOu2SNmNtgOix8wYlxcSfx6EKi/cnB+zzJNhEoFgY6u+qOzl2L8fbtgIyFoYxug1kiMuqiNuaSrgHYaQXtTBmmYz8IlOayPCBMoSgPo3nhLqGrzoy+ullq7gUeMYJyGrQ7UJSg4MZvGrUGZyCuxHEaNoNx/J78QpbiMY1xhnUeYn6GdbxnMpog67CqgxrxerKsSoTc5PyA2nU49+KrWZlHbBaIFNjibTLGkbkpqYjX9AHBlmva0SUWkriKca2BdOSyagkZ8nYy2dIJ5rL8S0i62/PHJNB21WrYir/b1GssNqoL0sc8l75nMvxX5UOoCbf+cX4h4eg4rTs/rEWWLVoqpipgk/KqxWGanktSq4bPc/dCqycg9BrDPP/dZt22jDW7oWSe2Ba7izX1ULJQ5JuW7GWeCShZBI+LcWZ436wYx5AkP3omO3rNj9hvjMpv2+yozHv9fOCKSWmMXNWMK6XiD8VlpowY9/bQt6HotFfRmEFWNz1/EL0eRr+u8TaF38uwwo9tazG+7cc/ca6WLR/Rx4YXhyVSLKie5SIVeEZb6MK5jaM4DOPQCcZnB2d5FL0uwjWyI1mSPhQd2fWgXOHPepsAV8A/vZY2E8I+3rWIjyrqlaphKccglYaLLF3WYZHz3Fbk/KUNVjNgqU1E8txUvTHE4fwvgf8RnMyK8tO57uSULIuHXpdGvT4KU1vj0LWWZZxYZ8arTcpfwv8l3Qo6yXb1+1qR6eNQCLraaeonXNb5u2RdVryna4RoioCVZRN07CoYNQnbaRDmMRS86nIStozx2FD/t9LpTFXMaQkRhzq91WQId+9ubjv6pG4tsdWHwByma+d4rgJTuvAg+V9u0SkqQBW0dAz69xQRiKahZ8VYTDsHNbMdvX8t2eI5R3FXaLrgkgoxfO6sm/7pdh7FbxHXL4qknTbVjBaVMTXpdDyuAOe3TJ6ANCHnF0y34rWjilg3ZUSK79qlk/Kjcz7Mje8ikZr/dOs7cNyjtSG8qsygs00VUS+BzxXjvk4Vl1MG7QmFSD+T7R8UvQ/qmDT96NYiiyCKmX0QXKXiOP/T9qSUTHIX42s5ePsA9F+DLuXJyHuwyqjTqjTVyszJ1hEOO6tQ9GDtQS6PVjqwCsn9UvNkQuAtxwJNRgXOsGidvbu+QpGCFbaXgrtBC4Z987ZQtKS810rTs7kPR34kNysKj6QBl1FmLV6aaefyLpVuPcuzPtP4HUT86SiTFHBp5YiFUlrUmanZTqOxAghIqGk6+wRa9sZxn1mO79J0H2d9Ps/IeLsNhIb+qMyksXdgPsAPwVcT/6PPRaWzIg/behVcD5MOsE7iFXt9vL+djLdQQpJ30W2eRdZZ1zBCPAZOdZWDGKOiV5XaoU8Ickr7TE6oHEYdFwsat1SgVxU2DHFfNYcByvgBzW/mcn0nnU4RcuDhwjEGBV3dTkv45bfeYR5cNO2w1oXY+rm/r3/jILxnyMLY8yCzF8yyTZNs+4ucQs/S9qQN04pGJEKANef0PKIEUlVGilGWfYsKtTUIpiY4uWHpOD2p+ReeeOY9+utIqsnkdWxzPpo96NK5iYa77A/iL92mW9FqBWShduD5y3Bn+0NlpaFbhizupvDy66Kv7X5vBd4l4xnlBXh5rzd7tmtQePwU/vDazeFI7G5YYs5eymcQ0vsnlaL46XbKPt7M/hXaczVPRZ3blao1c0Tcq+izOmr076LojGh+Mplf7Rx0A5LLWo9E6tXl47iMdLhvEmmv5Fh1P5LSsxYy8i4qKCd5rujuFSOvX3GKRNKegxUUKfAj0XrzINPmmukDBWPuZwPTUZpTJCdPYgflByLsmvYUpMOatZYykFcbETTsP1Alrfk+lyqqOyK5fFRPFmZiLT3mj7rj0ouQoag/UyJBdUKSHs/6EPZCvBDUiJnFl4qD34N4z62LmXMZ+u21uWFJHBVVVD6zXKsYwtzGXadJfEIVIG16k1q4VuTY5IAL5f3fwfcNP7CGPxUJBBH7YsKxlHrTcrcROM9gF4vlKNZE2uZTsiGkwxqtZMbqNcsw55eECMdwvdfPumjRoX8E3D+YbHWFMHid8f9oQzCZnAfYFEOUCuFb8QrbCE/La86priSF30LSI/+yDanE+o61AaDyHpQl45+l7iW9sjytsRNzUrXuMZV4JVNZaTSaTRNA7Usn1clQaMD/KQ8Kb9FrCODTvGvG0tnjBU/egml0lHsFtficvSdKsiNELbbRvZTO/0FOUcqytoSKzlvBmVO6zG2Vsi6XD8H5P2sMYWfiWI+bXa0tS7FNMStPQ/eJ/fSbrNtawkru571fptm+MBh/L4cn0Hi1VoYY+fQi6PPlu+KaNPna33gLCN+AFyrqKzKMfOAUI+OcZlQTGTb6pE4f4YSP2VsYdd/ksgfJLxiS58Vi4ir/xVyHTw++u40FCNErN0PO2+aRKJBDGrnZ+b6wHID6vJIZhMmikQa6hy+/a1gbfxUfzF/chbkGWxIrcfVHF5ZNjr6nPlL4OPHguDJRRj9zP7Z4yQmYQ+wIFnmyE25XbgDUlpngE9KO7aWnMd4hJRTmX1GJA04PGTSOGtn3Biy7iSsGotgZ8RvxoJNaRnh0BQRtws4U8ahfY/EbI5bMMDGSQ1D90UbpqaI0yq5Wo7JRsn/tqRGiKiVcdj6VTJs36xwXJdznJrrbdxzMoiPmG0PEi0YMYkcp6QCK+cgrpZ96pr7Zti+YUT1PET+Q+V4JyUhGHoeOnLPNKTj7owofXInI4wxQrhdsg2lLaEJOmrJLOjDQtl2hrEubc4LZYzlKpkmv7QqkaTJYNPsA5LQ8n2plVk1sVgsY5dJhIkfXmZhbqIRoJZCbh9ZhTwJorCbhmLYqydCoKflOT8Eq80gKJsdONGFPxtVcbZCXteGr0nNiySHtAf/+yA8MF5xE8jEmtfM4YvjXC2bSGNAz1Yk/QlgIxtsPTnVaEuHtSINcGwBQebrE3suHWCzohsyrnWaDxCOKizjSfdtXf7DhnS8rxG38zSWLLVgjENHGrlVEa8/Fa8wI5821oCO/OeYuhy3VTkOav0ss5bOA92vsn3D7EdbplaFncOko0foQ8WixI/Og659CJV5KhxrkQvV3m/HzfsqealcF2vmHKxGFkg9R3UjqusDrMi/I6/2+towAk63oZ91vV3AEytywb/ViFDdX7UuKtZdbecD/EH0eVa+MqZbuoxHxTOm4O1Ruzms67XWRcS485fmcxXoMJJIzPgNRwjaXM7lInDfeOEMVNFHDWRPAWsDWrE8CTfA8p4wffvKeA148gFYWQplbbICDrXgLwb8XpW8ZB2+tx7crBp3+etnVRtYOwm3OiP8/8VeEK/bib11iQ2LVIkOF9kjZMcnBVwQ1484RblEGhvV02WWPLWaqKhUQ3wVT+px0lHZTV4mIq2FT/f3x6TxfIkkuExLmXAeRG4sK92KjonlAtMJx+fFYi0ui3JsqkyqGMSXZdtl1w3R/K4RUVkFVkZk2xoTOA5dEUpl11kVXGHiT1U4WgtnGSrc5tlcakdsk1TqcvyKAQ9JHUkSsfy9WO4XxEqmoSod80CQmG3oA1VbXMFVxQ++VX7XCmEVhrFARPZ3Ve6N18YLK+Az8mqzsWMGWRSrENEXyrbHEa6xS/je5n1VaM1ITNzpoP+/JteMTg+NV5iBed3nANx9HxSNkxtfS5rKDVaDvGSlmwCP3gvdLFi0Fjtw+Br453k9Pso40j/ohhsmAxa78NSDcOt4xU3kHkmwMmZlPf0Wc7dmvwHHWBiRBtuOSx0nyZyq6DB26s7U42MFgFpIVCzqoamiCPFnohs7Fh66rXi+UpOSH+8aEYM1CcUUjY3u36AOY1o+YWL0homKuuyz7ndaUWb7KC4y1mqMSLRiUa8pvY70v1Q1GoseH3tvW1S82djGSc/vuHy2xOqq762LHHM8EEH5M2ZZ1bxCrpG6nC+N212Qa1YtoLo/+iB0BaA2ksNSwkdFR2GESttY+zCfESHZkGSzqtDtWPGj84jiGXU6IFYvtZRWyb8PufetWNplhJ1a+6q6T9WCPogy6+PZ8YyKKLNQD0Otn2szZLCXMa/7HCSVvFkWMS10gHZNDny9PObt9sAvHwzWvhzopPCVFfjXEpE5K6+7Co4XwXXeLGC5C39ycD4xMZNwM4lrbIjVbpbCrVXzk+KitqV21MJoyUQ4lt1kpxqfk/877ObSJ8BUOkBthO8QrzgFowSaOVUQiceDwF9IFqftMGZFtzmJe1fjuaomlY7Aivn4elVUOHVl2ozM6fOMVSkWSxYr7HpybGd15X/XnKMhTTfINtUd261g24P4mLkWdVtqYRx2fGpzsvgouyUOcZdM9tq2FlDtqurGKvkUmfcQk+il69WMhREjRveLtV/vJY25q4L/MSIwdj2Pagf2xDMq4t1jWPnU6qqo4D3TzJuGY0YQlu2DFdaxa3peOQ9vM9s5LtfIIMer3b8zK+pXlGF9SyVowecykgxaDVhbgNVGKM9Rxi2B+9wQji3B1Xvh8B64cKWabDHlL74n5YGy0KEsFfD8g6Mbzs2iIcerXYf3DzieW4E2aJgGXBvxVIp+Z3Id1PJg8j/VqctNmxkrAyU3m1oie9JIHa0oc1pj78rcY0rdxKItGAH7Rkliq5LPxzPGIJXOaJrSFKPYL8dGO/BhFrW6nKNVOT9nxCvMge8bgRGjls9C1lmU/7Mk53NWUftFI6rj67UMFY4rc3Tda4yuniNrSexGli8rKLOKa/WVca5cE+pSXpP9yOQc6b7EDz8XiaC1FeXqIlBil3shD3O75febUlpHqrFVwnljiEMlXu/3os9VsST/u8zSZ8XSMPf1tHxOfjP+bbUIr0XCDCPo7h/Nr4o1sy/XyLjYZYLWsijXT5XHZ5x2YSZ2iyWqTDgmRb/h7qXw5SPxGn3uAtzlQD+BplWD807Ah+MVp+AVV8GJesjWTopg1XthlXdkBZwpLWWRwqG4Bdpi9nZgScokWetHTFLAR+MW8RREXWR1EWP1ATdaHsU+xhbAaVALgYrAsu0qup9q7ZxXjb1JRWNTjlk2B+uV5tJp0tGwY6TzUyMCNgO9dnS7w6jLucuNy3IWPmIEzqDwBUtXttubQ2kbxe5HfDyGNSeZ1C6cJz8k4i0TS2FdXlXEqku67LyUjV2h31f04UCPcwE8CPg1s04V/LO8an8cu6UVnW9d2Q8wy6uiK9sYZElT9/QuI+5UzFVR8ue8IfGCjBCO83xQUZEYb3cYg47htAxqLyvjvgeCcExLWty0CJnRzQ7UO6HI9zAeAfzkEhzYCFarDvCOlendtSeAJ18JVzfh6gU41gw3zIvnURhuRu6+L4yYQweSbSYa77g3CMe94kJvSomgRFp7+8BwZJvte9UcF6tLTxrfXQNEtA1yT+XhqgoL34VyXaeyfbVAxbGTGKuMCswqM+wscTb3MGyDVJtDA/wpOT+5EacqUONzlEsnoOdoXrFKMVqnbxzhqKLkiMTHzcolRvAMa451n9SzsDRnK+ywfRnEZjU1T4osPktyT6nbctKHQbUya1KTWrmPyDF+fbR+FVwp221LG1aYCRFwKhQ35J5YMMOeVs3Fxj1fZk1blbZ1QV5VxAE8Mlp3Gv5JakTGFjrrhi77vFSxBVj5atR2W8Gq11k8IddeFXHylrmLxnsAu3JYlCxkKx6TIlghGzk0pVWQKjcD+XXglnJWWgls1OAta/CleMURfA14wQkodkkdxgT2N+AlVaQfzgE98Xku9S2j5VvJT0rMZZaP7uROdT4rN2xPjkNZh9Ex1iHktQHcM1pvGi6UxjY3VjTr6rT7o8t13aobF6XkebEUPR6pCLoa1SegfdR0RqmxtA5rCOvyH+ZhUYn5lFwbuk/D7iU9XiqOqrD0HTNJOMOseMhyFdvTiLpx+I65nlWgjmJBrp/NEvk/KfdXR0RGLbIWTiNe69Hntsyb1kAyDnabeo/o6yBGXSPT8jFT7moQqyJgF4xIWqwoTOJr8QxDLBQx4rJsWRVoRQ4VilYkj+Lh8YwZGdZWVkIDWOiFLOTFyE1dqImDEK+XAx/oLx7IoxI4a0+/Eemm8PqN4OMfhw8BL/li+HKWhbGkf7gOz57E5rsFdJPQQKcpXDBuT7wJLBHCC4o0WBc1Y9rSTUNoAfLUdKpygelEe9J5dKPOTq1bdeMiLirKcPuK3FLa6atAtR1Xw9z4iXGHVmHprAIVTPFTfhWoqzyXqSuvepxiloxorLrIeBkfNa5OFUp6PEpuq2v3uSdJFbPQlm2rGBwVz62CVq3V80AHfeiNENAxuyo4HpPwTHMMMrl2dxlvw6RYT4QKt2GFwWfhm7K9VfNwuSbbLxMmC+ZBsOyarALNCl8c0g7sMsLRUkU7eoZxe5dhRapdb9aY4kG8Sa6v+D5biiY7X9GR26piXuf8JGpdqBfQ6AVrlLU4drL+XqTAR8uu0hKelsBZC/3h67oJnNO67gUU8x7gHVfDGWeLaG3BrfbA701zZ28y9bSfXPKta+KlW08u4jHGjgaEPEWeqmgiAQNESIw9NFWMlbputl9Iwx8LxjJKTlslqAtcOxlrgYlJjeVPxXTV2GpdKhZH7ZM+AMyrcLXlQ/Kq+zYuTalWMQtaF69p/vMwMrmeasAvxAsrQtuKcayZdRE0DfkPVZVdGYdHmPdd2X5RYjGcBCvaf3eODy0XmjbiuHFDqwt4rUSY6TpVlXiKuUTaskGiDXEfa7etIml9woeLMr4pr0tDBCvmweAMs/1fidapig9EAl7fW1e0RecVcxCy8+orTuLmZ/TFYi0P1qi6EUF51rfKrKrPZQxeVIODGSx0QxJGUsCTy46g8Fbgv09A0ujfzT+2D35rHr3THLjT7nD80hkbo3lwPbH8dtMgEgc18N0UvqVBW6cgudyo+oqx7NlJqUnnUIWbR7cZP41iAtxj1KI1wW03EZ837vpxtpGafa1apKllUdsaK8rUzRqjrtHNQuMSB90/MbrPxQRDNQ7i4/JqLeUMuDZ1nlrVqk5YUr5nzpWeo6aZLBrSoO+rLDMyDnZs4a7xJEyC/le1Mq7K0IzPi1eskP+W10GuaBVmGutqqdqKpVixOEw4IsfIWv5m5QIdvneEcF03ls41EY5VuMbL0LhNTWqxlsRFIx51vh6Hsr5gVjZFNN5+IdRXtI10Lw1jErelpl9H5iXd8kZqEC9uwt4e7FuHpRZkHXjq0evWfPy/BXxmpf90nLThp/dWn4U2T+4tcaBJHo5VfANvJT+RBGtvkUBv1JW6KVfd1jCJwEjlps4rurkviWeMSXsOT6PKx00W6bjosbhLNH9WLioRhvHnQWzWJavXTz6GcNR9Gvc/jEKtnJkR1+0RwkeFXBUuwTKslXxUbKAVNVUdk0l4shHTwwT3OOgD3hnAf0bLqsaWuluQY7hrDLd6Y07txjhhZirkrIharKjczQfE4jpIRFuW5AFFhds84sJXzP8sOyeDRO282JS28GxgNTnZddnKwtROQvmcoglpHZoJvM9+eQzO2QvXa8NZK3DGKiy04NWH4JlH+tO3j0OjCE9/ywk8bB/8XPxD25wbEeIv0x4cT+D98QpbyG0IyURIqEBMIcMKQkjk2ewLfTP4grEAZxMIwUTGdp6Vzw3ZZuymjqlaoCnnixupNaZw1PjB+hwsRZ+JrKqTiK55dAYxP5DXnrG4jkKtslUUfLjUuHhrRviMEq+9iiw8MdZFP2oflG5JIspm8hDZ/jHpzKfdD71XPx3NnwfqalbLrSYSrco0LHx+HpnCnx5Sn9FyMBJRyxW5y98iAnB1jH1ARLb2Z3osq+STJkxgEhbnUH2CzRKN0B8CT1/zQlxW8lmTPJYakw+XA/Cks6DRgeVOEI09ghWznUKnFn67XkAtgbvumZ8ZeTNop7BWg4+diJdsLWNZGUVAVjmawXbhYmBjyl6iinili0ZYhQbRqCjztowV6QDHTZZQwZhJp1Al5015fJjzyCLKxfGMCajCPazCrCbHf5hYUGpTdGbj8hl52FiXaygbIh5rcn3pQ9s4gnsevEyu+cYYD2pltE1M5ks3KTlNrbNqqdUpTq6wbEhpr3kQG0PGEW5KVf16MsI1bVkzCTHzYNocgAT43/HMCtg00XiDWiitozTyUBC6kUO9GzKsazI+8SQuPssf3RTqOSym/UztouQfPjiesYO40QE4sgCrGRwbpxfeRJpyrG2GvCYqKRrv+Nk5jh++VXwc6Azq1YaQVWTJ0ka85JK/lrgjU/fivGrsWWvRJMwjZvfohOEDlirOzyg+Es+ILKPDmFXUnjCWpp7UCDwg19IgS+xuETjzGLUHiS3rDRGKMYVxB98vWraZJEb8lbkTB6EuyEQsZo+Kls+DL8vrJKFOG2JRu328oCL+2SThTCLEVsXjNQvaddkHpkHCGfPAtB4lQ1WJFl6fBBW7VYloy7D+pVLufkbInlYyoNkNorEmWdXK0pSCIgHuerN+tm5aBFdukYeGp1uE6V3xF3cQ9xHhhYizcRvUzeAnB/T0iYwU08zDmN6NPJyHU40VYM+Y/gkrBJKKRq5Qa4vGSo7LvBqBr0cd/iTicczDOBE96Qym+b+bUfPvwgkEUsysovYL0TGvjbDK9kQY9YCHxgsr4vwxBTNGLBYybWbmtEXFqrV0jmtt1BI9izJM4GZw0YCkomEsiAV4XiKpOaHYrpLPTujhsNbIn42WVcVX5HWYeC1jbQ4hPkzZfk7FjxKypFtZeG1IBrUOPZf2QqxbRsiotmNyTsLdgHYtxM+pxSsXsdgqwvjSFxyGV6/0U+t3ErcD9mwEy+xS3q9jth24x4BOL03C+V4A9rZhj+z7qUZiOgvtvBgRUD1u7NooukMsQqOYVz37L45hMVRLml4OuRyTKoYCs6yOsS9bjRXV+ZjWn6IiV/5nxbKolp1hFk61/p2Qa35WK+cgrjJ1ClWkDsIK3PYcrWDDeLKMCawhFpO6yruy7gPjBXPknbK/41xrMfeKZ1SMWl7HYZdcv7Py4ZLtDgq/WIxiL+cVFz4ti3MS35smGiFkUGsyjLqNdQfyPAwj2BGr4Cwxb22TdJNLiR875TkcXoO/vxJedDm8+srQaO4UGh2o94Io/vQ2Kl9zBv2hA2P0fPTSEPd4Iuu7Rk4FOtK5beR9i18+QDDmkSttWrFn+aKxMmJeB3VY6qZO5UFrHth7uMzKGF8qdZm3MoeszM/O0NjNKsjmSTqFBaKMr0giwYI5D/kIayNyDc1rzPIT5iE0vkdUuMb7p/GY8fx58/cSnpKZZK5JacnxnMYdOS2fMe7mYSyYKZHX/xWvVAFfGVPAWrf1LmkzHmbmTcu/m/fjusZVmN0qml8Fl8rvq5CNBe0wxonHnIZp29Gp6NT7rtU8h6IIrmNERKZpsDzWcvjaDMWrcxEvtqNq5GGouz15GNawUYR92UjheA7/9gN41uXwR4fDuJPbmUWjBA6Pc4dtIhrDmMr51KzpbgIrKazUwljflzXh/5UpiR3K5+W6y4A0H+4eVoGpgrIKq9oXdNtmnna0ZcKxY0TrvFx539V7MV5gBGNqHxxl6gB3NOtWwWdmaOzm5XayfCf6rGJJxZEeG4uWxblBNH8aVIDpNaPnQZdZMpmWSsRcVRyJZwh6PHQfygTivPZpEN+QjFu7T7NQB/5vPHNOqGAc1o2oOzoxbVYV45yX8WGpkTgNVVhovxHPGMCSiLJDMs0L9SRO82A4a8jKIKZtR6filgf6ZVnyqDHKc+jmkHah6AVBOS09JGs6C9Mt9sDLDsJLDsLzD8IvXg+Wa0HU9FJYr8FaHVr1IHI+cxSedwRetRpGkBl2Q20Fd90TRJh2JtuJO0lwjJbdUYtyT+a1klCO4irgW6eQaLSjaTQl5ALjorLnKZUOXy/xKqxqXxcLZxZZHAfRMfF9VY/vPA2p2e/dY1g+JuVLIi70fKhYHXWc2CS30yflHmkYka/u2EEipC1tUxUFlm1zO47wyUx5m3lwUfQ5Fq5KZop6675UXRR+FE+R/VM3euwqHxfNuO4AL4kXzgG1y4zb1arAPDwntydSM7Jt4hrH2Y62FVXUCh3W12s2uQo4rQ0JcKZZr0o+GM8YA92/ecWcjtNmVsZdCaKh6MkTYyK1GjHuZBnZhQku5piiFwqHb2Rwo73wuKhl+1/AU84IAvI3zoQDi6FTT4ED3WCJ7AFXteH8q+Hc4/Cn6/DGVfj2yT+1JdxVRLE2pFdGy7eSn5HXIg3ntpNdN4O9nsJCDeqTRF9vcy6QV7WUpyPcVImxwFVhVWtPcSerC31epNKpl+2anZdKh6kd/zwui1meT6qwBI/i3SZcIDUWtXUjmOwxU3GSV3D9HBYBuBFZGEexOEdBfb55r813bMlTwdgw87qbZBlWHiLFqI9I7NsxEY+TxjNa9PvvjhdUzCUz3Gu/GM+oiAtGCLdB7AKuF8+ckGuiItrrRhQOsvQlsuyR8YKK+HfpQ+IRX4ahJYCqKMNVRll7Pjd0bN0MSXwppF6j2QuNO+z24BP92WPzVYIFUXm6XVjCjwLPWIZXnQnPPQi33R/K9uRAJ4G1DFabcHUBX16B118OzzoULJG2kv5mojdHLQ8dzScHPYZvATc15zAdEuOINKhfj2fuUFaMCNSyQmo16EU3mnXXWpfgLHRlW+N2+LEltGq+EVmH7Hb0/6uo1GWZHI9p3VPDUCuePQ9DLs1NJ74PrBAqQ8VTo4LYss/JdZNPaBljjh3Te+X/qXguQ+8xPbe6/rxqjsY8QWLwDolo1FqkXRP6MQlWaLaBP46WV01ZiadxmacwV8vhOPF7VXokLoxnTBAXOK/jcWk8Y0ySOT7QbapoRE5yLe0LCiswdGrLyfro5fG3R/Peo+HuawC7BrU2A9gD/FIGzzkIL90P994XfmejE2q8nViAlWaIg0x7cOEheOqJMP3zFA3uLCznfff6xYMCgLaAw0CzFZJ1so6MCV7SO6ddaHWnK+S+HVFXRScLcZsnJJC/bcRJ3QimKt16V0/RSaWyD/MqHqyxOLodRf9/Ip38bjluXeNuvY9ZvwrUEm/bGIudH0+bhV4/1tK3YCwdZfuSVdRpfjayiOcTWHvm1TEh14han7smDthmUx8Ty4pmHgPcIvqdefAmGW6ublyWk9zTgx7wdhnx2J3ziDCzWDLnMdKI1pltyfW3ZOo1lk2r5jqt4pzHItomwqilz052/jweVFRPjGthxKy7VlHbUEZZWzRXbr0YSrDU8lCbUScrLJIc1tPQIEzKkTz8/mIXHrQ3XjoZDwXOPQCvXob/swQHF2ApDQk1u3rBIplJI3vRMXiODFn46la/ttK8uPveUIeyl8LxTT+Lg/lrIK+FEIOaxKiWiUblK4PqGewgjsqNarNOtRMu++s1ufEaE2ToDePLZnupvC/bbhl3jWdUxCcjd2sZNREGKiRb0lFW3SF9Nkr8mYSbxDPmxG65fvQ5t25EYZk1uMxlPS3fMaJ9EtIKXIKDGFUuRM9lR4TDJIJtVj4tI7+M2qYez1HrldGQ//aUeEGFXBHPmIAbxjMq4NNm6MJJqWJI4H8078fZByvm5nE8zh/QP6gojLHCcl4xllTU5kzE/RvQ7IQN14r+lIm7VbNviwS6E95t35bGNClgXw4PiFeYgZ8CXtqE1+yDJxyEGzXFOiAFyrM8JPm0U/jOBvzVUXjqUXjxkeD+qZqflv+5lsBKPVibtpq3SnJLux4sbsNI5LzH8Y47kS8DS93QuafS2S9Jpxe7RGOqsNRcItd9dwKxqEJtXvXsrHXPWlitRcu61PXYtYEbm3WqQJMqxj02lvvHM+bA5yW2TC1WKhIHXTf6YEIF8YzItVOYc1NmAYupDRCzVfB+E+4xTDgqHWPVnzZGbxJ+y3Tmg45VVcfncuD78cyKmCbecp58WF53mfI+41JFmIQmBqlLehzXdJl4q4p/k30Y18po+e14RoUMapfmxo1FMGSFWEWSfhkepSdu1yLpZ6WOw790w02cyRCF8+L6wK/sgyddD561H358LywWwfKnZLIfnR688xC85Ep48VUhVqcKricW2VyO4UfjFTaBFRnP93k5PKkFH++Ewu2aOT0MPefxMIM7ka9KA9wUyzOm04iFgCWvqCzC5SaeijHFUSHfuWW8oCKsJSyJxKK+V9HYMjF14+z7pHzf/P6kVHF+RvE5Y3lWka1W6zJsLF8VY5arhde6TG3HkJn9aopg2jOnoSdfBTxJ3h8S9/MgC7HOt/fWvAtO20x1FRWxcFRbR0fOU1faSrVe6UNSWZuA+T1d/odmWVVcYSyhZbVklTUNOTKleebhim0Br4hnjsk1FT18M6FgVKrI2i7jz+VVhalaGMcRqvNKVGIrRCPaOCUhezozvUlXavpBsEAVNfjEBMWrL12HJAt/6habVJG3IZlTLzgAr9gPD94bGtRdUg9Sh0dsZ7CawocPwR8fgqcfhr8uQoc/LUuEIRhrBXxqguM0LS3gHcBjV+AxHfijHrytF5KEWkOuJDsWNSJ2r01WGtQz7iCu6oa6n5mIRu00BhnKbSc4axIDsp0s6vRVgGn4hKWQczkos3tWjhqr57BtpLK/KjDHeNaYmlSOhcZS6jQI3ad5FOyNuSg6TvbcMWA/F2X+rK78y8x1o9dKfM2kpgTKGeKKu0lFdfGUt0ioxDulyDjm/ukOmDIRVguyf705i8bfk+PVHSIqrGBU0dcVYaPiXJdb7L1rWRVL9KDtTYvGStp7Tq17Oqn7dUnEolriHm6+UxXq8YhjFc8Y02U9jTXOUjY63Kjf1GMzD4G2CtzIfFaxqNtU7Gddnsz5YXdIVz8/8sWTM+Kyoi8WkZtfp0NjRmTHw1Xfd9Bj3Jy5L/DivUFE/tJB2FfvH+QcKZWThpjNLx+D1xyBZx+Bc1eDxWoSbnwwiNZaHoZIrJqLgNe04IXH4NXXwCsPw8eO9s9NC9iQ2oua0KThBqPoAfUGXH/UnbkD6AHdTCzkMk8bYxuzZ1FRVRVWiMadTz1yRanbbx5ZykgMoaWskVF3aG5EAHMaKxX5z5M6HyZdf1qOS4OvSVO2/RtGXoEr/2MiBtZLrhuLijPtpPZUFA/7z1LS6LVyPWyYa8FeF2V0ZZ8ycz3NKqIH8aemZl7XCMJhFkNkWU2E8I9H5XhUKMbHXZevynXbNtbXqlDPlNZeHOUK1nNPRdZty9mm9qMmvsQMmrdaUTv2SVNipyyO0BIvn8eDyivkvtRjrvtlrYy6Hza2cg3Yb9aZB2Xt+dz58T2hoDayA9eOEmM6Um00xw3Ofoe8qrVnO8Rr3AZ4/H543kF4zEG4wW6oJTJSShLi/tZllJTvFPBXx+BFh4OQ1Lp/w9grVrt6L2Rzz8JRiSV67TXwgsPwjGPwDyfgGx24og6XNuFoPbiea0XYZqMLjV54j1gUNfHFup3j8ANlfQ3usyVXYLX00mBFXknD9aquw2GnZNTycblSfqcwHdCoQ7oo107VWcrKJ2QfBllaLSqec9n3e8YrzMj3jEWqMUDAl6HWtc2gJdfMWomAKLtOVFSUWSAn5UNGNOo5GPScbh+AkhmThP5Mxqw+1xzn+H+Oun6aIsb2mE51VhFdxqeAN0biMD5PZSzJNVcA3wL+XyR+holNSxP473jmjLxzjD7ygJznWFBWEUcL8D9Shi+ujzgOq7JfZ1QUl/2uKPlKBVls2bOogJuHVe+F8lrmio7nLUUu7CdHy6tmVP8yF2zQai+5rvsS0yD20uASGMWXNF8/hf3xo8A24CbAE5rBhX3OPrjz3pDl3clCMktLXPMd4GgB7zwKjz8GTzgaEkzKvM/f6AY3fpJD0oW/GVNhtzUWEfi9FvzRBrzoBHzwGFxRg5Us1KfcyMI+tVJYrYnbMYWb74Y7NGBfCrskE94Sfx7EyvL8LAObxaWE7PV1EUAq4Eou6WupSeNURTzhZ6TB0O125fza7XdKHr6WK4wDirk4njEC+7BYdXzQhSKCetLYjbo0VewuzlFUW07IORslQlT4LomI2AecFa80BZeYh5yObKesU+jKcVyTtuhIicVlFG3g8XKO/06215VrtWambALBrv2EPqzNg18zFk/dx2FY6+EC8JfykLZPLOn6W7rOMPG4IZboNvC0eOEMrJoSN4PYMOfBCqdRYnMcXidi64S0hbFYjIVqGRvywFWFu1zH+7ZucHUJxyJNUZE57rU6Li+U4z0qJGE9EovKo8z7eZAUxSwD9k3PMw6FrGOlm/Yb9EJcuAD1An50P/xGf9VSnnoi3ITLOfze3mDy3gkU8tR3wRrUO7Dcg1o3CBFtVIpaSDBp7Q4dxe0k+eIbJ4JAa/ZgVwuWOnCPG193WLErpfO86EgQqBsZtBrhOGeIpdL4gXR+LQ+hAzfbHSxA8RPdO4APt0KB9kHWxDLUevIzTfiVeOEO4x8l60873lEUJj7slyrI+vsDqdNIZJVSq1pqOmdlETgoLsFRHeA02BgfvacHiSLdr1z2ZZbacWU8Sqzo1hU+SDimIqYzOUZPmFPQv+Ui4NXinhuUkJAZF+einNs9Mmb4rPfPncz/zYZYGVMjFlKZnmFGgBrGO4E3yHmwIs9aSmOraS+KARx0neo+HZeyRZM+sIzigWKtHnT9lgk+XXcReKwIZeVSOWarQ8RX3TzoJWKJO0Ou4XEMKOOggn9UMpO639VVfniIiBqHXAphf9y4lykRjSrEBnUr6lYHeJ949WZBhevVIsCsKFLxpsdM3dga5nOVWXdWPi4VG5bMMcfszyAhaUXjqPjPWSl7qNwU9vSCUGyn0Kqd3JAnechETovQeHx5RPHq84B6N4icbrpzBCNyUTwcePUSvGwvPPIA7KkH8ajTQh5u3OYJ+MEKvGcFvnVCSv3I1dStwUYTPnIlPP8QPP0EPGUNntCCczbgI8egK+sWiQzXmMNCDxa6Ift7oQcLKdx3CZ6/BK9ZhlfthseVCMargfevwMb68DqMZdQKOCubvcPbDnxELC+DOhVFBdwSsLsLB1rVWFkvlQxTtXQqiXS0aUmHXDfLtxNlHfCsfNeUY2mXCMa4AUylQ2hugmBEXPnjPGxYMhEcs14/x4xVlRGWulw6amttfNqAcjBdGf7sZ2Vc9ReK2FmV/1q2HXsMVDCOQq3q6tavMjEH4NFjiDRrVUT2Sd34944EI5LccGMRG3q9l133dSOk9DURC11VLI95nJHrbaNE3E3Cy8U6bkvQzfJ7GyJiZxWM9npUV++6mcpQK9+PxQtm4CLgFyQsYEGOzTCBrq5zFYxrwLOjdeZB3GZuGre7XmiI2mJRs41GkYaah9dOI2yhF18VrG1JEVy+O5lbAn+wH551FvzhWXCLJdjThX0tWO6G/1gUobj4ng6c0Q4X2OFdcOleOL4AJ+pwuAFrKTQ3YJ9YMa91h4hQ3N2GGyfwayIOX703iNdHjHgCvRg4pwWNOjQWwvlK5fgPQjPje8C+GrxouymWKfl2LxzXIX+dhFACak8L9rZgbxsWO9W4NVQYqovX7od2XhYt6zKvG1+funV/GENQK7vjGRXQKBHNih4HPRaJiKF2JMDnyYfNeMWD6Mn+HJdO8hqZfjhecUKOybFR4RMLaotase0E8GDxfNxZEmPuDNwNeL6xgGMeUNQKUnZO7O8yxjnQ30yk46yypubr5Nz0hly/ahHsyL52zT6dLXGbZbzGZIgjx6QsXlLblaa81oFzzHqzcMD89iA25IFrzQir1ei8jsNbpArBC+T7eg3Y9zGtEfdEU747i+hULpH/uCqv1mpn3yuLZvqFeOGUvEASag6Z+1uPjRWxdtuFiPAlcxyeZX5zXsyr7xjJz0hv1ibEzNnxpxUdw7cjjeUgtHGpF3B/ezfucM4Afn03PO168MyDcM/9/U6/kQex2E0lc7ceXNgdiUPUJ/q0FwRjSrBY3q4Jj98Lf7EMr9sNT2tOFkd2IfCGo1Cvy9jhZjSfURbHWg4/VD91BCPA/iwc65LL91pUuDUklEAtx7NyNPps9yE+xIURlOqOnAdxXdWyDlfFbBK5PO8WrTcrVw8R8yoWVXQjAqE2gaWrCo5MsK1U9i2LxNW0HJ/hd/R7zSiRRTt7FVGKvR5jF3gsIK1behKqsgx/WIRde8D1G6PXsIrHpsm0LuN2UutX3auD3NQYt2lD9md3RSEcLdnP+FxYFuQe1dhBZF/GGWf5m1IE/UbAn5T03/q/dJqEYfs8DVpUfE3aRSscB1n6dJ8/KS7lUfGhZXxXsuJ3SbZ0ZmIZh1k5Y/ZIW/eweMGcGNbXzZVdhDGou/ngeLhEXKjNXn9Uh5jPEcaC1pI948TY7FTuTxB6L9oNDUlWuXIZDi2EsZ73tfqZzGkv3AB3PQBPOAtecjBMv7U4fQLGB4F/OQFZBp1OEIw9sQzrpKhl0dbevFkT/mTLrrjq6RiRMayTSwkW8KQWzAVJFqZZuVga0O6QG1nFoup5FWtV1IcsQ8ectpZGzHYzI9gU7TSrFo3qBoufZVLZ5rJ0jCpoMulIa5K4sBmMEwubyT7tEguRTrNyQn572LWrZCUxiPE8/R9qcbNCMd6G/c/6vsy6FP/OIDoVlV5ZA54qv6f7UvaAV5f/lBijhiY1XRivXMJzzP8qc9dbayOyvYa8vtysNwstuf6HibCmKcmzIJ8vlWHqHi7Z7/8G/C3wTBHuB8U1/z75jePyvQNGJKr1dJClcVweGs+YgreJWFs0Qs0KR2ttVDGn+/1e4B4y9vUuWVfbultLEtVzJT76f8txS2TdH5UkqbVInNrtWcti/KC/LkXaV+Tc/HW0fF4M6ms2h04QjrFbM4nGpQa4ZEAV7Pccg1YWsrDLbu5TkesB5+wNcYx5FsRaU0rvANxyEd64BK9fCDd2FXWb3g2cdyQc51p2cshAJ+6VS/hf9dAYn0pcMsHTYCFlltIknLObxy3AFHyqRIApXSMWtVOywnEeZSJgsjHX432vep8+XiIYLbkR3Xa9XJJM5s2XSoRXGamJQ1Wxcut4pSlYLBFp8yQWfz0jGFWwUyIwR5ENEHbTcD/Zfl1E6ChLo25XRdBfj2k5+0mz38MsjTEdaXPiWqibiVqXLwJeKnGbz5WyRN+VdVSIxoLUWqYZ81jFLMh1e0DO16yoe1pZNLGNZe5pjHhUV/2q8Wpo0/59EdQvAt4sY0kfkmX6MG9dzkWJgByFCtifHRFSViVl/c2mcaNdsHFcGs6odddi0Zm4qY8NaBUOS1xkN4W7VqGOdhC33g3LHdjb6Qvve+yFx8Wt84z8FXDeCqzV+418LuerlkFdriJrMdZxxGs53L1+3YDwUwG1fo/q9GOyohpL3zfiGYaWNCYr0jHH1owfjT7Pg2GCrYwBDoepsRYfa/lUsXhcXtvG9auWvyoD3AfxiQkEUir7ti4d2S3iFaZAramTXr8WazFUi2hZuZTYYtg1E/JdFU+67iTN2A/FM6bgYcb6WpdpqWQ/6maeisq9Em94X7PeKJ4ur3X5nQFdHJ1IvK6KNXQ7oC7uDWONVGLBGD+glF0n46IW0ioe7mLLHka4qYgb9Iy/ZASmdSvH7m2Nl1Ss+9l+jyGWxZgz5XVVEs82iy0Vjfdehv3L5XX9rBWikCzrmK9qZ5BB0YMHxCuc4vwwUmRbXMU3WqymZpXlZcBFHVirQafWdzVbdPxwtT7WMtiQUX7u14TfjL9wivCleMYE3DyeMSWLpuMuuY2uvYca8iRb5gKskrijGEVH9n9UAzkNtpGOL1sVkVZI9uTYbMzRfW/5kHQUo9zTyrJ4DRKJi5sVLYQdP1BsNmpljK1QkzBr2/8C4Ity7tdEwBXGsmfR2EXLA6T81ST8orEOjRKOlq6UAfpevGACtISdir1Z0HOm9751Z8dCUl23ur5a56ZxUy9IwtEs6NCIMVa4TdI2qYiMPw+aYibZ1qr8xl/EC+ZM3JZuKrcBFgc85toGXZ+y4hpc/3Es/IGkLaOQRMtPdT6nFtkiTE+axM8xBs8Bvtk6OcElTU+eLKkUau8UQcg/vL55wblbQS4NYNyBYNwPOlkGXPIT05WGt0wsNsX1s1vcbGoxURfIPPicNCijLIa56ZATEU03i1eaAzXzMGqtWTplIhrLjuc8+EF0Ldg2rwx1TyeSSDErum0Vy5tBbEHsyn5orNu098Ys9U4/IHFtmvgSW/YGUZPv3EoSZ6bBCk0VjqPQdSYVqZaHimCqqi0YR/CrdZDo4XJhCjd13KZOy0UjjkH8wBAzqTt5HEZtE1lnTWr9/m68cM5sqWiEkLARiw/EumiTK4oUPhKli67ksCuD44fhRw6evOx04JsngkjL8+pLDT0DuHJIT3JS+IAmu9TDfmxcA0+oz/70v91RsWjdVZuF1r1rlYi0woi3VDriVMRjWlGMaxkXGdGTRg27vs/NPjWNG7Bqd3BZ/UBFRWNmRIqKSXVNbga5iPlxhVIhAq/K/buBnIeaiTEc1/I5LuqGtkKhK9vcJf9ngVAP9pFmnXHpzhAPe0wKcHflXOix1etSpxgVv2cA/xUvnIDfMA9P7THFUF3W/ZKEWEzDvY17s0rUVa3YLsT+twVpvx4NfGEKS+PhikZEOl/Oe5mFbxzxtlUsSl3Sv40XbAIlcm1zWShpMXVEGJ3SFJpdOGLO4lFCvcJ8DXbtPvUFShkZ/WShn6ow3fNJXTjaCkW4dcJ0JioWUxk5pkhhPYPVdijvc+71qxcB241jAzpX2zDGViMtZl+LVd4UfEA6juYAN0dH9kXdrl1pmNelnt48+Diw1ruuJalrrIu6T13Zf7XWTtvpD+ISedUGTq14uj3dD3U16j5SYemWYZRZpwdhryMV3VXxx8bKoyI6G3BtT4P+z8wI0w1535AHmScD/wI8CLhpyffHOVbTulh/Tq4FtXgvS3zibrmvyqxndflOA/h0vHAKHifiqjFmUkzHrPe4aNkkjBplzaJicNCk69j1iWIeN+S4rcvxfouMhrRvyiQOO/LUtPxjiaXQxhdOSvxb0xLHOcb7dHfJ3N4Kqmx/puLO+0N9xRLteG2sHLKj6yb45m0r4eZt1sN3b9JfdFrwX8BCJww5mFV0A0EYRWajG4SidiA2wUU7k4wQi1qkIbFjoYA9Cbx8OTQCpzqXjGkVUAoV1yn88Dg9wwj+VV6H/ZQKNSsc62PWWZuGw8Ceshs5Em0qHjVZp5hDYs4n4hkGdT+qW1b3Czk+94zWnwdxPctx6EmnpLGIVXAv4xpuDygBZIWbtgmWnrF6DyOTc70gYuIVMpqXLZBc5p6tmX2Ip+YMHfUvAZeXWBLt/9P3iQkP0GvnDSPuv3F5qlj9FuS/DrJuxtTl+E3Lq6PPVvRZWsYNayfFCvY4jrEh7xP5zgrwI+IJsH1WWWzhqhGb15h47MNyvd4j/sIUXCqv+uCkwmxRSgepBVLvETuPAbGJw67H+PjpdzV20m6/LJ5yHXjiiDqg82bLRePdCEksZWisXiq9c1YPsScAlx2GWie4tw/GR/Y04DNXBetrPZ3+KTvm6Yeh3QlDMipdiVPsJmFCxE+PflJMrQhjfv9pc/PdtFvFhZEFCGOxUFLTuXWk8WtVJJBOGPGlrlV7M1sLG2a9Yo4PWIk0groton2ywjE3ruBYhFTBN6J9KNuPMgtWr2TIzHnwMXntGZEW7yfm2LTEun11RUkwlifIq4pGKxy7pvOyYk33Sx9GErm+9ZhqZ2+P8ZLEHv67WOjubZYpbfmOtWBh3MF22iuiZJr76dmSSLko1+CiWBnV4miPRVcEzGFjJXtixRb7X5I41SUjuHTfyiakTdkr9RGn5V1G+GrMoS3ErQ8CKprstCbfKWS/dZQZe97aRnAjdQnLHuh2RVbdVSPk1EOiGchrUrqmivtUXdN2e0pTQnkOmH2z68Vi0RILa8V+x66jx1TvNf2MEZJnS7/zEvm8VcRt1KazXLITcZ1GLSeTNODiI0HcJAuhMHiew0OqqOq6w+gQLHxZDredxrYf8aTvwkoL8g50e/3C3SoYlW4CrQRWM9jIwufdwLnjPBqfQnw1nhEJxph1eco+UVHSh8Yn9kyjbCeMOFLrTa9E6FaFdq5tERSJvKbSwcfCVhvCXeKeqpph/1P3wT6r2jaoisLZo/iYcdGq9a7Miofsp14/6xV1lpb7ixAdtg+YDm3Qg2FdlmWRuDsgo4J8XOoYDqscoM4ktVbp75XtWybr/G8zbxz+GfhP4w7WbahYXTP30Ia5f3SYy4cAvyPvq+Jp5p5B9kkfNu0U0wXeEc+cgPuJCNFjoYJVhV+Ze17ZZR6E7TztjlWM7gYeI8f10WZdi25n2PasCKuq3VgVq//vy2e1P5X9t5hYFOp3rZXQWhbLhGQcT1nmFj8IvEmy5at8UJmWWK9tCY2SHdFEC520A0ylpV9PZSSYimre7SQ+BazXoC0t28OGqZURfBN49hrku+HoKmy0Q8kcxQpG1KWXwpE6HMtCcfZzTjPBiGnQLWr5iy2O69JYrJQ0GtOgsYyZvDal4dH3zWj7uWx7HBfitHxetrkux6YhDa+6Iu2E3O9dOVbzaAithQsjIrUdUbI5i+lBdOWcpSK2rKhW62tmxMJReeDoTRn/NYrXyXnYb84bIl6GCZeGuRYz+U8qQH5LOuQPTzDEmRVsTRNXaCdtnvRaniTc4rtSbDmXbWmtztiyuWI+L8ox3y0VP15l1quSW8j9oxZateBaq+eqmZTODNnbAL8MvEfO9YaI/AU5hxslx9+i56rsukgkofLLY45iY7e3y/zHdeMGFvvRSf9/Vm4jrvqr5Zp4H/Ar4hJPjEtcLZ5aoFuthmuR8MNYCg+WTLGoVCuq/b+HZL8+JPv1W9HvbyVJURR6HraMv+/B/xwZv+HuERJkkhz2d+A5VVR23UGcswLHupB0Q0P2vCkzx78A/E0H2r1w1yd5SG4pkuB6Vjc09OMae+Ke3kjhh7IwjNTpyN+NEBrasVk3n95os1opjstIA9ZSNsj601OhL683mqADn4S3iNuxK6JHO42y/5/Lf8jFvfYs4CfMb83KF6Vw8rp5GNXOzZ6zjhGN2hnuNvGi8+QDxlIcY/e1K6967NIpLGuT8DlJjlkzx6oXWfgUnd+W6+vuYlGapeDyefJQrNbpMgo5LqlYtSa5n14q/2tBvq/Htuw8IMsack33xC09T841glHP+SCbQCKTPqg+K15hCv5NrJ7IPrQjMY0cO40rVHftfjlnx4Hfk3JAk1jsX24etvX86v+/tg+S85XIed+sAucngAuA9wPvBL4tgm+QVZAxRK26nu1615f75+eBO5r5241tIRq/C7zpqvIC3mX0gI16KGz9oAPBvXI68fTDwdJay+FWu+B348e/MfgI8I4NyBagvREEYzMJGend3nWFo1ocM6BZwNk1ePogpeI4W8ibgbeLkIlFI0YMlYnGBwNPMuuerrSAf5LO8kuR5Xa/WCV/XNzaVYxO42w/zhdL19eAT5ryPgtyfdxQXPV3lpCJOPP9VGdNjs3nge9Ics/XpG8dxIPknrmB1Pe89Q48bttCNAKcc1VoxDW5YpgVp0hhLQui8dxJHmdOAS4Fzj0MnSw8AT9x7+RV8f8V+PBGXwiqy//aV9PDdtMQu9iS87KnB3dcgN/ur+I424rfBK6MXGZl1prcrKOi8XmblD3tOI6zExnTtjd/lqVsSyO/boxj7DrI8yAY7Uglpwv/0g2CEUKSyqSC8e0iGCFkPatQTPK+CzoroKGTHOO1DNoZ3NkFo7PNmXR4NU3gSOdQZNxxHOdUYtuIxoONsDNlsTNlJPk22vlN5NsSSNEAzpzwAPwl8DFjYcxFECZ5sCh2JZ6xpxbIJJT0qUuB9Qemp+440s6pgz5LTnh7gFRzcBzHccqZpl2dCz+xPzT2vZI9skJShxXU1d5qlp3qXKPxVwXs7sDDJyg19Gdd+OLaYMGoQzZ2auFznsnwgAk081AqwQWjs92xpZBGPYCm4pbWtkRLhDiO4zjllEi0reHW9C1c7RExjalYvtIUPn8k1N06HXineb+Qh8r643DuOnxjPQjOxLikexKzqEK8p0lGGRyVqVXArzbnm7HpOFWhNes0pGVQNajUuKRr0t78TLyS4ziOcxLbRjQiVsaujDc9CBvH2EuhVYMLVuB3NuCcPNSEOlX5yrH+/x83cfk56/CNIrida1LzEnMcu1FZnW7Sr8N4JfCopWrLoTjOPPmAvOZDhGNqGj6tR5hPWO/PcRzndGSIPNt86qP8SYIVjjUZMSbtwtVr8KYVeOoJeO6xUC7gVGJ3B5Z60GzDva4XL70uz16Da5J+56lWRrU0WuIi3vTglU0XjM7O4VuRWKQkic7SkPW1EbxttNxxHMc5mW1TcgfgvcAFh0MZjDgzOpPPZVbIVDqAbgrdTOL+JLs6k4LVdzq4s12snwY+dDm05f88c0RB8+ceC8MstsV6W0aRhBjGXkkdxj9d2GZPFI4zgt8Fvm4sibYJiZ+J9NpWi/1e4B/NcsdxHOe6bCtd8CAT16jo+NNlZLmU6Mmh0YNaV0rHGBncS2E1hfedgMevwVNW4K/MUEA7hY9e1X8/zDXdAf5wIxT/7iTBuljLT3bR2YHva1JqR2MbmwW83gWjswP5ptwbOpbwMHKZdDSNX4xXcBzHca7DttMGZ+wKNQGLNOycjmlahsZAkorYFKHUI1jZNLEjTYJAavaCiPruEXj9VfCCK+HPj4ZhgbY7a8BqHVabcOsBVsbDwDNWoOjCeiLjU0s2dMcIxSQPGdE6RmwqxdKTLAhGx9lpnCPtRCJTKpnRcTxjGTnw8Him4ziOcx22nWh8qtS90ELTqexhLXKiqwVShWO3JlnXeZjUJavu7ESSQOoyHla3BkUGV3bh7w7BM46FGMAP9jexbfge0Emh3QzTT8crAP8DvPII9CSIS+suau3Fa+kF62IqxzCVY3NGCm/edleD44zmWzKUl5bMsY6JVIRjfGnbzzc37x3HcZzBbKuYRuU48NIj0uD3gghMCrEgZmF+TXqGVi1YElOgWwSLWk86ikysjJa480A6mbUatOuhPmEthz0duOdyGIt2q/nrFfhOJ1gOU+BVu09efgHwzsPhz3WTYKXdEPNsZpKF6oSDUy8gk+WtGuxZgOeWHRjH2QH8vBGKOkayltFB7nk7dnIqUyHr/CVwE7PccRzHKWdbikakMX/WMXEv96DeCQKokwXrYZJL8WkVR9JD5IVkRKZBHCmZvD/J6iaWyB7QkvGVizRsZ6kLiznUesGtfaN98JBaCJjfbF5wJaw24AfH4PY3gKeZKsTvAT4oxymR0joQxG9PXXby31Vo6/IihZsuwRP7sx1nR/Fk4GJgUYSgXuK5eUAsE436umBqOzqO4zjD2baiUXkD8NUVWNoI4k1F42o9WNM0y3pPLwg8pZdCIrUJGWBhxFooTJFrpWaScFR4NXK43gI8YBludtLa8+E7wF8eCUW2Ozk88SDcQpa9FbjkUNj3VNzQ8X9QkjwIRXVZrwN3XICnxCs6zg7hb4F/kuSvOHYxE0siJtlF0VskB14L3MYscxzHcQaz7UWj8j/A+66BQz1Ya8CKJHgkeeggdvX65XUSE9Oo8XuDMMa3gXTTk11dmpyTAs0E7r0H7hl9pypeBBw51B/m7zX7wvy/Br56or9eITto/7eix0mHBeymcOcleGx/FcfZUfw38HoZPUpFo73PkxLRqMsLKbFzfeB15juO4zjOcHaMaLT8APjXHL5/9OSYxW4KtSy4qLVG4ygGraLiKyaXZZ0sCNRaHiyge9aDC/y2Z4XSQcPK4kzC75+ARqf/v85cDrGbJzr9dQqxsKpwZMD+a2zjT+/b2TUrndObDwOvkvfqdrYiUcMyLNpMFMAycBD482gdx3EcZzg7UjTGfAI4/1CIS+yIn6reCfUa1erYS0I5Ho1zzEz8n2IFpIquXFzTNj6yncJ6PVjurhWNrbDsmhTWe7AHuPleeECj706elBbwlB9AugT1JIhGTWBRrv0PxjXfFVe1zqoVIT6z2YMHHoC791d1nB3HK2S4wNSIxqa5fweJxkWtTQrcD/jNaB3HcRxnOKeEaLR8Cjj/OPSk0HdLklw2JJYvkeQWLUeoblwVWkkRBKaKRj06WQ7NrojNDFaa/SScWg8WOtDuwYYIuW4buj1YaoRpfx0esgy3lu2Ow78B770UGrv7Vs3EWBALLUhH2Jadv1ELruikgKUczmjBb+2HG/dXc5wdy5tlBJeuCRnRjOkSI/u1Rb9TyZQ+N17BcRzHGckpJxotlwP/eRwua4cYyJ6IPx0hJTNZ19cWChdUOBZFWCeRkWd29YJYXGuGbGskyaQooLUeRNri7tBDra4Ha+RiFupDXtu5pXCvvXCf/uZKefYROC7biEXjtRZG+dwxCTudLCQJdSUT/EAHnre0NZnfjjMv3gn8X/UGSJ1GjV20XoNcLIwqMN9jljmO4zjjc0qLRstR4F0FfPuqk2Mdtfi3ikRdpFnIuczIgUYBy22pg9iEtpa3ScJ6aQ+SLjSWJMu7Jy5lI05NKCIA9Tr8xG54WORS+5PLYXU5rJ9Lgk9d4haTNIzegvxeIqPfIKKxSOBEM3xuAK+tB9ec45xqfESshuumhE5PRGTbiEd9/Vvghub7juM4zvicNqIx5lPAf10Vkkq6SRghRlEhqe5qfV/vwLKovm49uL016aYnsYNp0a/9qL+jQ/cVMpyfUqShDE5dsrCbvTCGdhc4loWOri3rNghi0YrGXhoEZU9+PymCNbRIw76lKbzOhwV0TnE+BzxJrIw6dKDGOuZGMD6b0dZ9x3EcZzCnrWi0XAL8xxoc7QUBFtc71KzjWhd2tyW5RmruqKjTepGKCsYYtQim6cnitKYCswgJO135Pf39pq4rorEQ93MhvWMqdSoXxfVer8Mz3R/tnCZcAfyyiWdsyL2mt+VjZbnjOI4zPS4aI64C/rEL393oxzjWtP5jD2qt4GqOi2jXRQ12o4xsJRaR9vtFAnlUoycXITqOaEyKYAVtSM3KfQk85Qz7a45zevAQ4IiIxkysj78F/Eq8ouM4jjMxLhqH0ALeBXziRBhdJpfYqaQIJXBqYn1MTLLMIGLRqKh47En29ig0EUZjMGuSDb6rJfGMu+D5y/G3HOf04afFQt+QYQZ/Pl7BcRzHmQoXjRPwceA/VuBEIZYMycTOir47Wd3PmtRis7PLsKLxpPkDBGQsGiHEQu5rwZkN+N09J63uOKcl/5/UYZzXSE2O4zinIy4ap+RbwHuOw9F2CLpflyQXLcPTlBFpNHM6FoXKpJZGJc+gI2WEmjncvgG/VdUwNI7jOI7jOBEuGivgBPDPXfjSSj+msd4LMYaqFcs817GVcZhotPGVXcm61rGk79qEx8RfcBzHcRzHqRAXjXPgXcBFh2W0mbyfZW2FY2Gyp8tQAXntyDTyWceZ7oj/+6eX4f+Et47jOI7jOHPDReOc+QLwriOw2ju5cPgwwYi4n5EYySI52e2ttSMfuBse1P+K4ziO4zjO3HDRuIl8B3hnGy5b689TC6IKQZ2nruciDYJRS+/UE1gq4FcX4K79rziO4ziO48wVF41bxDrwH8AXjwTB2JXRZ3rGLV3IsIYbGayJpXEReP4CnHXSrzmO4ziO48wXF43bhI8AF14FGzr+tcRCdlNYz+BYHX5lCe4bf9FxHMdxHGcTcNG4DekAV8poFteXsXQdx3Ecx3G2EheNjuM4juM4zkhG5PA6juM4juM4jotGx3Ecx3EcZwxcNDqO4ziO4zgjcdHoOI7jOI7jjMRFo+M4juM4jjMSF42O4ziO4zjOSFw0Oo7jOI7jOCNx0eg4juM4juOMxEWj4ziO4ziOMxIXjY7jOI7jOM5IXDQ6juM4juM4I3HR6DiO4ziO44zERaPjOI7jOI4zEheNjuM4juM4zkhcNDqO4ziO4zgjcdHoOI7jOI7jjMRFo+M4juM4jjMSF42O4ziO4zjOSFw0Oo7jOI7jOCNx0eg4juM4juOMxEWj4ziO4ziOMxIXjY7jOI7jOM5IXDQ6juM4juM4I3HR6DiO4ziO44zERaPjOI7jOI4zEheNjuM4juM4zkhcNDqO4ziO4zgjcdHoOI7jOI7jjMRFo+M4juM4jjMSF42O4ziO4zjOSFw0Oo7jOI7jOCP5/wFotFpc/g0JOAAAAABJRU5ErkJggg==;" parent="1" vertex="1">
          <mxGeometry x="380" y="594.01" width="173" height="57.49" as="geometry" />
        </mxCell>
        <mxCell id="RLjyjs_sm2IHfBNOWAbh-3" value="2" style="ellipse;whiteSpace=wrap;html=1;aspect=fixed;fillColor=#4D9900;strokeColor=none;labelBackgroundColor=none;" parent="1" vertex="1">
          <mxGeometry x="460" y="470" width="23" height="23" as="geometry" />
        </mxCell>
        <mxCell id="g8Hrz8pBSeV4qm7vl3dj-61" value="" style="edgeStyle=orthogonalEdgeStyle;rounded=0;orthogonalLoop=1;jettySize=auto;html=1;" parent="1" source="g8Hrz8pBSeV4qm7vl3dj-41" target="g8Hrz8pBSeV4qm7vl3dj-7" edge="1">
          <mxGeometry relative="1" as="geometry" />
        </mxCell>
        <mxCell id="g8Hrz8pBSeV4qm7vl3dj-41" value="" style="shape=image;verticalLabelPosition=bottom;labelBackgroundColor=default;verticalAlign=top;aspect=fixed;imageAspect=0;image=https://upload.wikimedia.org/wikipedia/commons/thumb/a/a1/Grafana_logo.svg/800px-Grafana_logo.svg.png;" parent="1" vertex="1">
          <mxGeometry x="750" y="590.45" width="96.67" height="98.85" as="geometry" />
        </mxCell>
        <mxCell id="g8Hrz8pBSeV4qm7vl3dj-43" value="" style="edgeStyle=orthogonalEdgeStyle;rounded=0;orthogonalLoop=1;jettySize=auto;html=1;" parent="1" source="g8Hrz8pBSeV4qm7vl3dj-31" target="RLjyjs_sm2IHfBNOWAbh-1" edge="1">
          <mxGeometry relative="1" as="geometry">
            <mxPoint x="730" y="622.7549999999999" as="targetPoint" />
            <mxPoint x="553" y="623" as="sourcePoint" />
          </mxGeometry>
        </mxCell>
        <mxCell id="RLjyjs_sm2IHfBNOWAbh-1" value="3" style="ellipse;whiteSpace=wrap;html=1;aspect=fixed;fillColor=#4D9900;strokeColor=none;labelBackgroundColor=none;" parent="1" vertex="1">
          <mxGeometry x="610" y="611.25" width="23" height="23" as="geometry" />
        </mxCell>
        <mxCell id="g8Hrz8pBSeV4qm7vl3dj-47" style="edgeStyle=orthogonalEdgeStyle;rounded=0;orthogonalLoop=1;jettySize=auto;html=1;exitX=0.75;exitY=1;exitDx=0;exitDy=0;entryX=0.754;entryY=0.922;entryDx=0;entryDy=0;entryPerimeter=0;" parent="1" source="g8Hrz8pBSeV4qm7vl3dj-41" target="g8Hrz8pBSeV4qm7vl3dj-41" edge="1">
          <mxGeometry relative="1" as="geometry" />
        </mxCell>
        <mxCell id="3CRy6BOUvxRNAAsPTxBq-1" style="edgeStyle=orthogonalEdgeStyle;rounded=0;orthogonalLoop=1;jettySize=auto;html=1;entryX=1;entryY=0.5;entryDx=0;entryDy=0;" edge="1" parent="1" source="g8Hrz8pBSeV4qm7vl3dj-53" target="g8Hrz8pBSeV4qm7vl3dj-54">
          <mxGeometry relative="1" as="geometry" />
        </mxCell>
        <mxCell id="g8Hrz8pBSeV4qm7vl3dj-53" value="" style="shape=image;verticalLabelPosition=bottom;labelBackgroundColor=default;verticalAlign=top;aspect=fixed;imageAspect=0;image=https://cdn-icons-png.flaticon.com/512/5968/5968534.png;" parent="1" vertex="1">
          <mxGeometry x="455.11" y="43" width="62" height="62" as="geometry" />
        </mxCell>
        <mxCell id="3CRy6BOUvxRNAAsPTxBq-2" style="edgeStyle=orthogonalEdgeStyle;rounded=0;orthogonalLoop=1;jettySize=auto;html=1;entryX=1;entryY=0.5;entryDx=0;entryDy=0;" edge="1" parent="1" source="g8Hrz8pBSeV4qm7vl3dj-54" target="g8Hrz8pBSeV4qm7vl3dj-25">
          <mxGeometry relative="1" as="geometry" />
        </mxCell>
        <mxCell id="g8Hrz8pBSeV4qm7vl3dj-54" value="" style="shape=image;verticalLabelPosition=bottom;labelBackgroundColor=default;verticalAlign=top;aspect=fixed;imageAspect=0;image=https://i.pinimg.com/originals/bd/a7/b8/bda7b879e7ae05e3a53fe2d066fabf8a.jpg;" parent="1" vertex="1">
          <mxGeometry x="333" y="49" width="50" height="50" as="geometry" />
        </mxCell>
        <mxCell id="g8Hrz8pBSeV4qm7vl3dj-62" value="" style="shape=image;verticalLabelPosition=bottom;labelBackgroundColor=default;verticalAlign=top;aspect=fixed;imageAspect=0;image=https://docs.influxdata.com/img/influxdb/cloud-controls-view-raw-data.png;" parent="1" vertex="1">
          <mxGeometry x="212.51999999999998" y="740.36" width="388.9" height="199.64" as="geometry" />
        </mxCell>
        <mxCell id="g8Hrz8pBSeV4qm7vl3dj-67" value="" style="shape=image;verticalLabelPosition=bottom;labelBackgroundColor=default;verticalAlign=top;aspect=fixed;imageAspect=0;image=https://icons.veryicon.com/png/o/business/25d-work-diary/macbook-pro-4.png;opacity=40;" parent="1" vertex="1">
          <mxGeometry x="380" y="108" width="572.71" height="572" as="geometry" />
        </mxCell>
        <mxCell id="g8Hrz8pBSeV4qm7vl3dj-70" value="if sale or purchase forecast is identified" style="text;html=1;align=center;verticalAlign=middle;resizable=0;points=[];autosize=1;strokeColor=none;fillColor=none;" parent="1" vertex="1">
          <mxGeometry x="380" y="143.5" width="230" height="30" as="geometry" />
        </mxCell>
        <mxCell id="g8Hrz8pBSeV4qm7vl3dj-71" value="2" style="ellipse;whiteSpace=wrap;html=1;aspect=fixed;fillColor=#4D9900;strokeColor=none;labelBackgroundColor=none;" parent="1" vertex="1">
          <mxGeometry x="460" y="180" width="23" height="23" as="geometry" />
        </mxCell>
      </root>
    </mxGraphModel>
  </diagram>
</mxfile>
